%TF.GenerationSoftware,KiCad,Pcbnew,9.0.6*%
%TF.CreationDate,2026-01-03T14:52:23+08:00*%
%TF.ProjectId,HackPad,4861636b-5061-4642-9e6b-696361645f70,rev?*%
%TF.SameCoordinates,Original*%
%TF.FileFunction,Legend,Top*%
%TF.FilePolarity,Positive*%
%FSLAX46Y46*%
G04 Gerber Fmt 4.6, Leading zero omitted, Abs format (unit mm)*
G04 Created by KiCad (PCBNEW 9.0.6) date 2026-01-03 14:52:23*
%MOMM*%
%LPD*%
G01*
G04 APERTURE LIST*
%ADD10C,0.150000*%
%ADD11C,0.101600*%
%ADD12C,0.120000*%
%ADD13C,0.000000*%
%ADD14C,0.127000*%
%ADD15C,0.100000*%
%ADD16C,0.504000*%
G04 APERTURE END LIST*
D10*
X110907667Y-60733200D02*
X111050524Y-60780819D01*
X111050524Y-60780819D02*
X111288619Y-60780819D01*
X111288619Y-60780819D02*
X111383857Y-60733200D01*
X111383857Y-60733200D02*
X111431476Y-60685580D01*
X111431476Y-60685580D02*
X111479095Y-60590342D01*
X111479095Y-60590342D02*
X111479095Y-60495104D01*
X111479095Y-60495104D02*
X111431476Y-60399866D01*
X111431476Y-60399866D02*
X111383857Y-60352247D01*
X111383857Y-60352247D02*
X111288619Y-60304628D01*
X111288619Y-60304628D02*
X111098143Y-60257009D01*
X111098143Y-60257009D02*
X111002905Y-60209390D01*
X111002905Y-60209390D02*
X110955286Y-60161771D01*
X110955286Y-60161771D02*
X110907667Y-60066533D01*
X110907667Y-60066533D02*
X110907667Y-59971295D01*
X110907667Y-59971295D02*
X110955286Y-59876057D01*
X110955286Y-59876057D02*
X111002905Y-59828438D01*
X111002905Y-59828438D02*
X111098143Y-59780819D01*
X111098143Y-59780819D02*
X111336238Y-59780819D01*
X111336238Y-59780819D02*
X111479095Y-59828438D01*
X111812429Y-59780819D02*
X112050524Y-60780819D01*
X112050524Y-60780819D02*
X112241000Y-60066533D01*
X112241000Y-60066533D02*
X112431476Y-60780819D01*
X112431476Y-60780819D02*
X112669572Y-59780819D01*
X112955286Y-59780819D02*
X113574333Y-59780819D01*
X113574333Y-59780819D02*
X113241000Y-60161771D01*
X113241000Y-60161771D02*
X113383857Y-60161771D01*
X113383857Y-60161771D02*
X113479095Y-60209390D01*
X113479095Y-60209390D02*
X113526714Y-60257009D01*
X113526714Y-60257009D02*
X113574333Y-60352247D01*
X113574333Y-60352247D02*
X113574333Y-60590342D01*
X113574333Y-60590342D02*
X113526714Y-60685580D01*
X113526714Y-60685580D02*
X113479095Y-60733200D01*
X113479095Y-60733200D02*
X113383857Y-60780819D01*
X113383857Y-60780819D02*
X113098143Y-60780819D01*
X113098143Y-60780819D02*
X113002905Y-60733200D01*
X113002905Y-60733200D02*
X112955286Y-60685580D01*
X91866667Y-60733200D02*
X92009524Y-60780819D01*
X92009524Y-60780819D02*
X92247619Y-60780819D01*
X92247619Y-60780819D02*
X92342857Y-60733200D01*
X92342857Y-60733200D02*
X92390476Y-60685580D01*
X92390476Y-60685580D02*
X92438095Y-60590342D01*
X92438095Y-60590342D02*
X92438095Y-60495104D01*
X92438095Y-60495104D02*
X92390476Y-60399866D01*
X92390476Y-60399866D02*
X92342857Y-60352247D01*
X92342857Y-60352247D02*
X92247619Y-60304628D01*
X92247619Y-60304628D02*
X92057143Y-60257009D01*
X92057143Y-60257009D02*
X91961905Y-60209390D01*
X91961905Y-60209390D02*
X91914286Y-60161771D01*
X91914286Y-60161771D02*
X91866667Y-60066533D01*
X91866667Y-60066533D02*
X91866667Y-59971295D01*
X91866667Y-59971295D02*
X91914286Y-59876057D01*
X91914286Y-59876057D02*
X91961905Y-59828438D01*
X91961905Y-59828438D02*
X92057143Y-59780819D01*
X92057143Y-59780819D02*
X92295238Y-59780819D01*
X92295238Y-59780819D02*
X92438095Y-59828438D01*
X92771429Y-59780819D02*
X93009524Y-60780819D01*
X93009524Y-60780819D02*
X93200000Y-60066533D01*
X93200000Y-60066533D02*
X93390476Y-60780819D01*
X93390476Y-60780819D02*
X93628572Y-59780819D01*
X94533333Y-60780819D02*
X93961905Y-60780819D01*
X94247619Y-60780819D02*
X94247619Y-59780819D01*
X94247619Y-59780819D02*
X94152381Y-59923676D01*
X94152381Y-59923676D02*
X94057143Y-60018914D01*
X94057143Y-60018914D02*
X93961905Y-60066533D01*
X129907667Y-60733200D02*
X130050524Y-60780819D01*
X130050524Y-60780819D02*
X130288619Y-60780819D01*
X130288619Y-60780819D02*
X130383857Y-60733200D01*
X130383857Y-60733200D02*
X130431476Y-60685580D01*
X130431476Y-60685580D02*
X130479095Y-60590342D01*
X130479095Y-60590342D02*
X130479095Y-60495104D01*
X130479095Y-60495104D02*
X130431476Y-60399866D01*
X130431476Y-60399866D02*
X130383857Y-60352247D01*
X130383857Y-60352247D02*
X130288619Y-60304628D01*
X130288619Y-60304628D02*
X130098143Y-60257009D01*
X130098143Y-60257009D02*
X130002905Y-60209390D01*
X130002905Y-60209390D02*
X129955286Y-60161771D01*
X129955286Y-60161771D02*
X129907667Y-60066533D01*
X129907667Y-60066533D02*
X129907667Y-59971295D01*
X129907667Y-59971295D02*
X129955286Y-59876057D01*
X129955286Y-59876057D02*
X130002905Y-59828438D01*
X130002905Y-59828438D02*
X130098143Y-59780819D01*
X130098143Y-59780819D02*
X130336238Y-59780819D01*
X130336238Y-59780819D02*
X130479095Y-59828438D01*
X130812429Y-59780819D02*
X131050524Y-60780819D01*
X131050524Y-60780819D02*
X131241000Y-60066533D01*
X131241000Y-60066533D02*
X131431476Y-60780819D01*
X131431476Y-60780819D02*
X131669572Y-59780819D01*
X132526714Y-59780819D02*
X132050524Y-59780819D01*
X132050524Y-59780819D02*
X132002905Y-60257009D01*
X132002905Y-60257009D02*
X132050524Y-60209390D01*
X132050524Y-60209390D02*
X132145762Y-60161771D01*
X132145762Y-60161771D02*
X132383857Y-60161771D01*
X132383857Y-60161771D02*
X132479095Y-60209390D01*
X132479095Y-60209390D02*
X132526714Y-60257009D01*
X132526714Y-60257009D02*
X132574333Y-60352247D01*
X132574333Y-60352247D02*
X132574333Y-60590342D01*
X132574333Y-60590342D02*
X132526714Y-60685580D01*
X132526714Y-60685580D02*
X132479095Y-60733200D01*
X132479095Y-60733200D02*
X132383857Y-60780819D01*
X132383857Y-60780819D02*
X132145762Y-60780819D01*
X132145762Y-60780819D02*
X132050524Y-60733200D01*
X132050524Y-60733200D02*
X132002905Y-60685580D01*
X129907667Y-79802700D02*
X130050524Y-79850319D01*
X130050524Y-79850319D02*
X130288619Y-79850319D01*
X130288619Y-79850319D02*
X130383857Y-79802700D01*
X130383857Y-79802700D02*
X130431476Y-79755080D01*
X130431476Y-79755080D02*
X130479095Y-79659842D01*
X130479095Y-79659842D02*
X130479095Y-79564604D01*
X130479095Y-79564604D02*
X130431476Y-79469366D01*
X130431476Y-79469366D02*
X130383857Y-79421747D01*
X130383857Y-79421747D02*
X130288619Y-79374128D01*
X130288619Y-79374128D02*
X130098143Y-79326509D01*
X130098143Y-79326509D02*
X130002905Y-79278890D01*
X130002905Y-79278890D02*
X129955286Y-79231271D01*
X129955286Y-79231271D02*
X129907667Y-79136033D01*
X129907667Y-79136033D02*
X129907667Y-79040795D01*
X129907667Y-79040795D02*
X129955286Y-78945557D01*
X129955286Y-78945557D02*
X130002905Y-78897938D01*
X130002905Y-78897938D02*
X130098143Y-78850319D01*
X130098143Y-78850319D02*
X130336238Y-78850319D01*
X130336238Y-78850319D02*
X130479095Y-78897938D01*
X130812429Y-78850319D02*
X131050524Y-79850319D01*
X131050524Y-79850319D02*
X131241000Y-79136033D01*
X131241000Y-79136033D02*
X131431476Y-79850319D01*
X131431476Y-79850319D02*
X131669572Y-78850319D01*
X132479095Y-78850319D02*
X132288619Y-78850319D01*
X132288619Y-78850319D02*
X132193381Y-78897938D01*
X132193381Y-78897938D02*
X132145762Y-78945557D01*
X132145762Y-78945557D02*
X132050524Y-79088414D01*
X132050524Y-79088414D02*
X132002905Y-79278890D01*
X132002905Y-79278890D02*
X132002905Y-79659842D01*
X132002905Y-79659842D02*
X132050524Y-79755080D01*
X132050524Y-79755080D02*
X132098143Y-79802700D01*
X132098143Y-79802700D02*
X132193381Y-79850319D01*
X132193381Y-79850319D02*
X132383857Y-79850319D01*
X132383857Y-79850319D02*
X132479095Y-79802700D01*
X132479095Y-79802700D02*
X132526714Y-79755080D01*
X132526714Y-79755080D02*
X132574333Y-79659842D01*
X132574333Y-79659842D02*
X132574333Y-79421747D01*
X132574333Y-79421747D02*
X132526714Y-79326509D01*
X132526714Y-79326509D02*
X132479095Y-79278890D01*
X132479095Y-79278890D02*
X132383857Y-79231271D01*
X132383857Y-79231271D02*
X132193381Y-79231271D01*
X132193381Y-79231271D02*
X132098143Y-79278890D01*
X132098143Y-79278890D02*
X132050524Y-79326509D01*
X132050524Y-79326509D02*
X132002905Y-79421747D01*
X110907667Y-79802700D02*
X111050524Y-79850319D01*
X111050524Y-79850319D02*
X111288619Y-79850319D01*
X111288619Y-79850319D02*
X111383857Y-79802700D01*
X111383857Y-79802700D02*
X111431476Y-79755080D01*
X111431476Y-79755080D02*
X111479095Y-79659842D01*
X111479095Y-79659842D02*
X111479095Y-79564604D01*
X111479095Y-79564604D02*
X111431476Y-79469366D01*
X111431476Y-79469366D02*
X111383857Y-79421747D01*
X111383857Y-79421747D02*
X111288619Y-79374128D01*
X111288619Y-79374128D02*
X111098143Y-79326509D01*
X111098143Y-79326509D02*
X111002905Y-79278890D01*
X111002905Y-79278890D02*
X110955286Y-79231271D01*
X110955286Y-79231271D02*
X110907667Y-79136033D01*
X110907667Y-79136033D02*
X110907667Y-79040795D01*
X110907667Y-79040795D02*
X110955286Y-78945557D01*
X110955286Y-78945557D02*
X111002905Y-78897938D01*
X111002905Y-78897938D02*
X111098143Y-78850319D01*
X111098143Y-78850319D02*
X111336238Y-78850319D01*
X111336238Y-78850319D02*
X111479095Y-78897938D01*
X111812429Y-78850319D02*
X112050524Y-79850319D01*
X112050524Y-79850319D02*
X112241000Y-79136033D01*
X112241000Y-79136033D02*
X112431476Y-79850319D01*
X112431476Y-79850319D02*
X112669572Y-78850319D01*
X113479095Y-79183652D02*
X113479095Y-79850319D01*
X113241000Y-78802700D02*
X113002905Y-79516985D01*
X113002905Y-79516985D02*
X113621952Y-79516985D01*
X91866667Y-79802700D02*
X92009524Y-79850319D01*
X92009524Y-79850319D02*
X92247619Y-79850319D01*
X92247619Y-79850319D02*
X92342857Y-79802700D01*
X92342857Y-79802700D02*
X92390476Y-79755080D01*
X92390476Y-79755080D02*
X92438095Y-79659842D01*
X92438095Y-79659842D02*
X92438095Y-79564604D01*
X92438095Y-79564604D02*
X92390476Y-79469366D01*
X92390476Y-79469366D02*
X92342857Y-79421747D01*
X92342857Y-79421747D02*
X92247619Y-79374128D01*
X92247619Y-79374128D02*
X92057143Y-79326509D01*
X92057143Y-79326509D02*
X91961905Y-79278890D01*
X91961905Y-79278890D02*
X91914286Y-79231271D01*
X91914286Y-79231271D02*
X91866667Y-79136033D01*
X91866667Y-79136033D02*
X91866667Y-79040795D01*
X91866667Y-79040795D02*
X91914286Y-78945557D01*
X91914286Y-78945557D02*
X91961905Y-78897938D01*
X91961905Y-78897938D02*
X92057143Y-78850319D01*
X92057143Y-78850319D02*
X92295238Y-78850319D01*
X92295238Y-78850319D02*
X92438095Y-78897938D01*
X92771429Y-78850319D02*
X93009524Y-79850319D01*
X93009524Y-79850319D02*
X93200000Y-79136033D01*
X93200000Y-79136033D02*
X93390476Y-79850319D01*
X93390476Y-79850319D02*
X93628572Y-78850319D01*
X93961905Y-78945557D02*
X94009524Y-78897938D01*
X94009524Y-78897938D02*
X94104762Y-78850319D01*
X94104762Y-78850319D02*
X94342857Y-78850319D01*
X94342857Y-78850319D02*
X94438095Y-78897938D01*
X94438095Y-78897938D02*
X94485714Y-78945557D01*
X94485714Y-78945557D02*
X94533333Y-79040795D01*
X94533333Y-79040795D02*
X94533333Y-79136033D01*
X94533333Y-79136033D02*
X94485714Y-79278890D01*
X94485714Y-79278890D02*
X93914286Y-79850319D01*
X93914286Y-79850319D02*
X94533333Y-79850319D01*
D11*
X51373479Y-86083809D02*
X51887526Y-86083809D01*
X51887526Y-86083809D02*
X51948002Y-86053571D01*
X51948002Y-86053571D02*
X51978241Y-86023333D01*
X51978241Y-86023333D02*
X52008479Y-85962857D01*
X52008479Y-85962857D02*
X52008479Y-85841904D01*
X52008479Y-85841904D02*
X51978241Y-85781428D01*
X51978241Y-85781428D02*
X51948002Y-85751190D01*
X51948002Y-85751190D02*
X51887526Y-85720952D01*
X51887526Y-85720952D02*
X51373479Y-85720952D01*
X52008479Y-85085952D02*
X52008479Y-85448809D01*
X52008479Y-85267381D02*
X51373479Y-85267381D01*
X51373479Y-85267381D02*
X51464193Y-85327857D01*
X51464193Y-85327857D02*
X51524669Y-85388333D01*
X51524669Y-85388333D02*
X51554907Y-85448809D01*
D12*
%TO.C,SW3*%
X105256000Y-61215000D02*
X119226000Y-61215000D01*
X105256000Y-75185000D02*
X105256000Y-61215000D01*
X119226000Y-61215000D02*
X119226000Y-75185000D01*
X119226000Y-75185000D02*
X105256000Y-75185000D01*
%TO.C,SW1*%
X86215000Y-61215000D02*
X100185000Y-61215000D01*
X86215000Y-75185000D02*
X86215000Y-61215000D01*
X100185000Y-61215000D02*
X100185000Y-75185000D01*
X100185000Y-75185000D02*
X86215000Y-75185000D01*
%TO.C,SW5*%
X124256000Y-61215000D02*
X138226000Y-61215000D01*
X124256000Y-75185000D02*
X124256000Y-61215000D01*
X138226000Y-61215000D02*
X138226000Y-75185000D01*
X138226000Y-75185000D02*
X124256000Y-75185000D01*
%TO.C,SW6*%
X124256000Y-80284500D02*
X138226000Y-80284500D01*
X124256000Y-94254500D02*
X124256000Y-80284500D01*
X138226000Y-80284500D02*
X138226000Y-94254500D01*
X138226000Y-94254500D02*
X124256000Y-94254500D01*
%TO.C,SW4*%
X105256000Y-80284500D02*
X119226000Y-80284500D01*
X105256000Y-94254500D02*
X105256000Y-80284500D01*
X119226000Y-80284500D02*
X119226000Y-94254500D01*
X119226000Y-94254500D02*
X105256000Y-94254500D01*
%TO.C,SW2*%
X86215000Y-80284500D02*
X100185000Y-80284500D01*
X86215000Y-94254500D02*
X86215000Y-80284500D01*
X100185000Y-80284500D02*
X100185000Y-94254500D01*
X100185000Y-94254500D02*
X86215000Y-94254500D01*
D13*
%TO.C,G\u002A\u002A\u002A*%
G36*
X77063080Y-59675904D02*
G01*
X77152192Y-59749891D01*
X77171315Y-59861636D01*
X77125722Y-59990713D01*
X77020687Y-60116698D01*
X76932524Y-60181579D01*
X76823873Y-60242990D01*
X76751422Y-60275202D01*
X76743517Y-60276601D01*
X76707060Y-60237031D01*
X76649976Y-60135460D01*
X76610545Y-60051788D01*
X76554532Y-59917869D01*
X76537672Y-59841838D01*
X76558221Y-59795692D01*
X76592800Y-59767000D01*
X76713335Y-59709879D01*
X76868055Y-59672901D01*
X77009826Y-59665197D01*
X77063080Y-59675904D01*
G37*
G36*
X77400426Y-60550950D02*
G01*
X77507008Y-60644694D01*
X77548971Y-60772905D01*
X77538172Y-60847067D01*
X77472380Y-60941962D01*
X77347770Y-61047286D01*
X77195028Y-61141229D01*
X77044837Y-61201979D01*
X77035532Y-61204347D01*
X76962912Y-61214408D01*
X76918109Y-61186307D01*
X76884266Y-61099747D01*
X76857161Y-60989569D01*
X76825181Y-60843449D01*
X76804737Y-60735476D01*
X76800748Y-60702461D01*
X76842688Y-60644720D01*
X76948102Y-60585711D01*
X77086381Y-60538258D01*
X77226919Y-60515182D01*
X77249162Y-60514606D01*
X77400426Y-60550950D01*
G37*
G36*
X64506848Y-59315111D02*
G01*
X64517980Y-59440001D01*
X64522296Y-59607186D01*
X64519836Y-59790375D01*
X64510640Y-59963273D01*
X64494747Y-60099588D01*
X64487536Y-60134082D01*
X64466802Y-60198063D01*
X64430150Y-60229696D01*
X64353734Y-60234562D01*
X64213712Y-60218241D01*
X64160205Y-60210684D01*
X64006604Y-60183752D01*
X63899219Y-60155239D01*
X63862921Y-60133357D01*
X63888416Y-60072854D01*
X63955924Y-59960784D01*
X64051979Y-59815961D01*
X64163116Y-59657198D01*
X64275870Y-59503310D01*
X64376773Y-59373109D01*
X64452362Y-59285411D01*
X64488861Y-59258809D01*
X64506848Y-59315111D01*
G37*
G36*
X61924944Y-56450780D02*
G01*
X62273856Y-56460129D01*
X62587935Y-56476863D01*
X62845565Y-56501014D01*
X62911610Y-56510168D01*
X63628220Y-56640809D01*
X64356061Y-56815429D01*
X65106896Y-57037853D01*
X65892490Y-57311906D01*
X66724609Y-57641412D01*
X67615016Y-58030196D01*
X67684382Y-58061809D01*
X67989526Y-58197095D01*
X68313436Y-58333622D01*
X68627230Y-58459675D01*
X68902024Y-58563541D01*
X69040000Y-58611610D01*
X70025069Y-58888027D01*
X71032914Y-59072397D01*
X72062405Y-59164751D01*
X73112407Y-59165118D01*
X74181789Y-59073530D01*
X75269417Y-58890017D01*
X76374158Y-58614610D01*
X77073378Y-58395636D01*
X77659958Y-58182577D01*
X78267479Y-57934330D01*
X78867228Y-57663842D01*
X79430494Y-57384056D01*
X79925112Y-57109961D01*
X80032697Y-57060654D01*
X80105955Y-57052743D01*
X80113839Y-57057535D01*
X80103504Y-57108503D01*
X80054361Y-57231392D01*
X79972026Y-57413999D01*
X79862117Y-57644125D01*
X79730252Y-57909569D01*
X79641255Y-58083965D01*
X79497052Y-58365051D01*
X79368669Y-58617737D01*
X79262186Y-58829852D01*
X79183684Y-58989228D01*
X79139244Y-59083693D01*
X79131460Y-59104196D01*
X79176856Y-59112849D01*
X79304366Y-59120572D01*
X79500977Y-59127010D01*
X79753673Y-59131810D01*
X80049441Y-59134616D01*
X80270226Y-59135205D01*
X80597527Y-59136956D01*
X80888295Y-59141892D01*
X81129802Y-59149538D01*
X81309324Y-59159418D01*
X81414134Y-59171058D01*
X81435899Y-59178742D01*
X81411313Y-59223331D01*
X81325913Y-59318070D01*
X81191242Y-59451345D01*
X81018839Y-59611544D01*
X80903594Y-59714428D01*
X79990298Y-60489709D01*
X79082974Y-61203661D01*
X78186569Y-61853285D01*
X77306028Y-62435586D01*
X76446295Y-62947563D01*
X75612318Y-63386221D01*
X74809040Y-63748560D01*
X74041409Y-64031584D01*
X73540264Y-64177732D01*
X73166597Y-64266038D01*
X72810440Y-64331298D01*
X72451971Y-64374951D01*
X72071369Y-64398432D01*
X71648810Y-64403179D01*
X71164473Y-64390628D01*
X70822818Y-64374703D01*
X70184894Y-64335492D01*
X69587172Y-64285778D01*
X69015240Y-64222851D01*
X68454690Y-64144003D01*
X67891112Y-64046526D01*
X67310094Y-63927711D01*
X66697229Y-63784849D01*
X66038105Y-63615232D01*
X65318313Y-63416151D01*
X64576404Y-63200584D01*
X63734316Y-62954067D01*
X62975036Y-62737678D01*
X62600692Y-62634826D01*
X67163302Y-62634826D01*
X67198054Y-62712306D01*
X67284686Y-62746524D01*
X67344856Y-62750187D01*
X67483510Y-62709184D01*
X67639376Y-62598764D01*
X67794269Y-62437813D01*
X67930004Y-62245212D01*
X68028086Y-62040706D01*
X68108350Y-61867250D01*
X68197457Y-61754516D01*
X68283661Y-61713878D01*
X68340228Y-61738431D01*
X68365919Y-61799782D01*
X68403824Y-61934816D01*
X68448861Y-62123668D01*
X68495950Y-62346476D01*
X68496511Y-62349298D01*
X68551195Y-62620338D01*
X68593627Y-62813216D01*
X68629357Y-62943220D01*
X68663936Y-63025640D01*
X68702914Y-63075763D01*
X68751842Y-63108877D01*
X68776838Y-63121461D01*
X68911442Y-63169126D01*
X69012187Y-63150236D01*
X69095130Y-63083146D01*
X69170805Y-62941447D01*
X69189126Y-62727548D01*
X69150269Y-62445014D01*
X69054409Y-62097408D01*
X69045143Y-62069458D01*
X69012728Y-61976961D01*
X70866262Y-61976961D01*
X70919133Y-62361644D01*
X71028606Y-62710703D01*
X71069645Y-62798828D01*
X71169094Y-62973279D01*
X71270111Y-63085845D01*
X71403471Y-63165177D01*
X71508631Y-63207573D01*
X71748283Y-63250645D01*
X72005773Y-63221740D01*
X72190474Y-63152641D01*
X72340638Y-63034766D01*
X72408893Y-62885336D01*
X72402583Y-62763598D01*
X72375742Y-62689289D01*
X72326088Y-62661677D01*
X72223596Y-62669615D01*
X72172602Y-62678216D01*
X71930259Y-62710042D01*
X71755082Y-62699205D01*
X71624767Y-62635367D01*
X71517008Y-62508188D01*
X71420093Y-62329409D01*
X71357737Y-62170761D01*
X71323502Y-61995811D01*
X71310786Y-61768369D01*
X71310327Y-61727528D01*
X71329509Y-61421923D01*
X71391181Y-61197779D01*
X71494128Y-61056497D01*
X71637137Y-60999480D01*
X71818995Y-61028128D01*
X71890156Y-61057964D01*
X72006923Y-61106121D01*
X72076719Y-61107211D01*
X72125734Y-61071803D01*
X72169997Y-60966063D01*
X72139137Y-60828618D01*
X72068376Y-60722370D01*
X72679388Y-60722370D01*
X72699449Y-61015089D01*
X72701880Y-61034342D01*
X72730323Y-61256377D01*
X72765414Y-61532435D01*
X72802030Y-61822138D01*
X72826015Y-62012921D01*
X72856735Y-62252480D01*
X72886179Y-62472407D01*
X72910831Y-62647006D01*
X72926148Y-62744904D01*
X72954730Y-62906101D01*
X73296185Y-62878472D01*
X73527695Y-62849909D01*
X73788064Y-62803259D01*
X73989449Y-62756561D01*
X74238402Y-62675527D01*
X74406819Y-62588893D01*
X74490172Y-62500039D01*
X74483929Y-62412351D01*
X74472189Y-62396039D01*
X74425144Y-62352917D01*
X74360803Y-62330507D01*
X74261330Y-62328949D01*
X74108892Y-62348386D01*
X73885653Y-62388961D01*
X73822815Y-62401220D01*
X73605415Y-62439339D01*
X73464558Y-62451840D01*
X73385405Y-62439560D01*
X73366723Y-62426948D01*
X73342318Y-62360641D01*
X73315887Y-62220274D01*
X73290693Y-62026773D01*
X73270874Y-61812712D01*
X73227337Y-61357462D01*
X73172139Y-60982930D01*
X73106082Y-60692093D01*
X73029967Y-60487927D01*
X72972833Y-60411287D01*
X74204284Y-60411287D01*
X74227753Y-60547470D01*
X74347640Y-61008306D01*
X74462302Y-61387867D01*
X74570438Y-61682461D01*
X74670752Y-61888397D01*
X74727834Y-61969234D01*
X74916332Y-62129914D01*
X75132828Y-62227403D01*
X75356125Y-62259203D01*
X75565028Y-62222814D01*
X75738340Y-62115737D01*
X75762008Y-62091145D01*
X75884177Y-61894073D01*
X75951985Y-61634624D01*
X75965555Y-61308898D01*
X75925012Y-60912993D01*
X75830480Y-60443010D01*
X75816334Y-60384769D01*
X75744686Y-60167876D01*
X75654639Y-60001787D01*
X75556233Y-59894753D01*
X75459511Y-59855025D01*
X75374514Y-59890854D01*
X75322026Y-59978626D01*
X75299915Y-60087021D01*
X75311106Y-60230015D01*
X75353236Y-60418607D01*
X75390751Y-60604815D01*
X75424473Y-60846964D01*
X75449408Y-61105870D01*
X75457286Y-61235015D01*
X75466884Y-61459596D01*
X75468612Y-61608645D01*
X75459207Y-61701647D01*
X75435402Y-61758090D01*
X75393934Y-61797460D01*
X75359094Y-61821073D01*
X75251888Y-61872303D01*
X75159624Y-61858103D01*
X75135117Y-61845993D01*
X75072572Y-61799599D01*
X75016200Y-61723886D01*
X74960856Y-61605930D01*
X74901396Y-61432804D01*
X74832672Y-61191583D01*
X74755065Y-60891347D01*
X74675290Y-60589367D01*
X74606863Y-60369747D01*
X74544423Y-60221194D01*
X74482605Y-60132416D01*
X74416047Y-60092122D01*
X74372789Y-60086516D01*
X74269825Y-60127147D01*
X74212227Y-60239949D01*
X74204284Y-60411287D01*
X72972833Y-60411287D01*
X72944595Y-60373408D01*
X72876591Y-60348127D01*
X72767802Y-60389504D01*
X72702120Y-60514047D01*
X72679388Y-60722370D01*
X72068376Y-60722370D01*
X72038822Y-60677995D01*
X71989657Y-60626841D01*
X71814316Y-60517539D01*
X71616801Y-60488890D01*
X71415896Y-60535689D01*
X71230390Y-60652727D01*
X71079068Y-60834799D01*
X71050101Y-60887245D01*
X70931462Y-61211955D01*
X70870277Y-61584462D01*
X70866262Y-61976961D01*
X69012728Y-61976961D01*
X68977038Y-61875116D01*
X68914337Y-61711946D01*
X68866314Y-61603390D01*
X68849840Y-61575839D01*
X68842154Y-61525218D01*
X68884383Y-61439001D01*
X68983366Y-61305892D01*
X69090538Y-61178239D01*
X69229158Y-61011371D01*
X69350797Y-60853812D01*
X69436121Y-60731030D01*
X69456191Y-60696516D01*
X69498890Y-60565001D01*
X69500635Y-60439401D01*
X69464947Y-60349829D01*
X69412713Y-60324344D01*
X69316954Y-60355462D01*
X69171273Y-60440351D01*
X68993809Y-60566319D01*
X68802697Y-60720669D01*
X68649739Y-60858358D01*
X68370827Y-61122934D01*
X68400710Y-60949575D01*
X68448157Y-60608562D01*
X68466637Y-60313194D01*
X68456003Y-60077988D01*
X68416108Y-59917464D01*
X68411231Y-59907473D01*
X68303179Y-59761871D01*
X68234444Y-59719979D01*
X76165755Y-59719979D01*
X76171506Y-59811776D01*
X76198666Y-59952403D01*
X76249770Y-60153881D01*
X76327349Y-60428230D01*
X76370991Y-60576704D01*
X76470240Y-60910018D01*
X76547287Y-61162943D01*
X76606356Y-61346476D01*
X76651672Y-61471616D01*
X76687459Y-61549361D01*
X76717939Y-61590709D01*
X76747338Y-61606657D01*
X76767313Y-61608614D01*
X76847361Y-61595730D01*
X76981114Y-61562852D01*
X77067769Y-61538315D01*
X77315238Y-61440484D01*
X77540406Y-61307138D01*
X77718674Y-61155399D01*
X77819827Y-61014872D01*
X77866360Y-60813414D01*
X77836325Y-60596729D01*
X77739256Y-60390041D01*
X77584689Y-60218571D01*
X77495850Y-60157865D01*
X77441417Y-60107786D01*
X77444840Y-60029931D01*
X77463241Y-59976397D01*
X77511478Y-59731985D01*
X77474960Y-59495344D01*
X77442018Y-59418926D01*
X77333847Y-59292152D01*
X77175525Y-59237502D01*
X76963740Y-59254998D01*
X76695176Y-59344666D01*
X76520185Y-59425694D01*
X76364222Y-59513364D01*
X76240697Y-59600540D01*
X76178882Y-59664994D01*
X76165755Y-59719979D01*
X68234444Y-59719979D01*
X68177097Y-59685028D01*
X68052444Y-59679964D01*
X67948682Y-59749703D01*
X67904516Y-59828787D01*
X67883314Y-59920807D01*
X67858762Y-60083812D01*
X67834058Y-60293881D01*
X67814413Y-60502526D01*
X67778536Y-60850412D01*
X67729256Y-61139897D01*
X67657249Y-61403827D01*
X67553195Y-61675044D01*
X67407771Y-61986394D01*
X67374046Y-62054089D01*
X67250926Y-62314590D01*
X67180801Y-62505211D01*
X67163302Y-62634826D01*
X62600692Y-62634826D01*
X62291651Y-62549916D01*
X61677247Y-62389284D01*
X61124911Y-62254283D01*
X60627732Y-62143414D01*
X60178795Y-62055178D01*
X59771189Y-61988075D01*
X59398000Y-61940608D01*
X59052315Y-61911278D01*
X58727222Y-61898585D01*
X58568818Y-61898021D01*
X58301976Y-61904272D01*
X58046963Y-61917487D01*
X57822360Y-61935976D01*
X57646746Y-61958049D01*
X57538699Y-61982015D01*
X57516207Y-61993779D01*
X57485508Y-62066869D01*
X57450400Y-62221007D01*
X57412560Y-62442305D01*
X57373662Y-62716873D01*
X57335383Y-63030823D01*
X57299397Y-63370268D01*
X57267380Y-63721317D01*
X57241008Y-64070083D01*
X57221956Y-64402678D01*
X57219818Y-64450655D01*
X57188851Y-65176029D01*
X56839556Y-65176029D01*
X56490262Y-65176029D01*
X56490262Y-64996238D01*
X56498005Y-64838934D01*
X56519506Y-64608156D01*
X56552165Y-64324145D01*
X56593385Y-64007141D01*
X56640570Y-63677387D01*
X56691122Y-63355122D01*
X56729647Y-63130711D01*
X56924193Y-62206661D01*
X57178854Y-61273738D01*
X57188298Y-61245498D01*
X62841164Y-61245498D01*
X62841376Y-61334389D01*
X62874262Y-61397156D01*
X62923912Y-61437277D01*
X63038905Y-61456366D01*
X63176319Y-61389227D01*
X63329528Y-61240221D01*
X63434831Y-61100969D01*
X63512508Y-60988758D01*
X63575072Y-60918286D01*
X63645180Y-60883319D01*
X63745485Y-60877628D01*
X63898644Y-60894982D01*
X64083347Y-60922604D01*
X64232424Y-60944939D01*
X64119027Y-61312451D01*
X64056344Y-61520174D01*
X64021370Y-61657799D01*
X64012677Y-61745790D01*
X64028838Y-61804607D01*
X64068426Y-61854715D01*
X64080363Y-61866827D01*
X64163743Y-61927822D01*
X64253699Y-61930145D01*
X64379394Y-61872242D01*
X64418780Y-61848809D01*
X64509981Y-61785916D01*
X64579855Y-61713098D01*
X64636578Y-61612828D01*
X64688322Y-61467578D01*
X64743264Y-61259823D01*
X64759338Y-61190648D01*
X65397341Y-61190648D01*
X65400916Y-61411087D01*
X65459323Y-61776883D01*
X65576796Y-62068129D01*
X65753329Y-62284811D01*
X65988910Y-62426916D01*
X66118985Y-62467689D01*
X66258382Y-62497639D01*
X66349191Y-62498481D01*
X66435003Y-62464630D01*
X66516297Y-62416778D01*
X66652803Y-62312114D01*
X66708972Y-62202011D01*
X66697544Y-62061380D01*
X66697294Y-62060380D01*
X66653108Y-61972605D01*
X66560678Y-61942689D01*
X66523323Y-61941572D01*
X66307584Y-61905744D01*
X66150695Y-61797464D01*
X66051901Y-61615537D01*
X66010445Y-61358769D01*
X66014820Y-61138120D01*
X66051432Y-60899227D01*
X66122192Y-60634553D01*
X66216586Y-60372362D01*
X66324096Y-60140917D01*
X66434209Y-59968481D01*
X66461651Y-59937131D01*
X66611484Y-59829723D01*
X66763999Y-59805921D01*
X66901071Y-59867306D01*
X66930898Y-59896254D01*
X67051253Y-59978408D01*
X67169886Y-59980488D01*
X67266937Y-59915806D01*
X67322549Y-59797674D01*
X67316864Y-59639404D01*
X67316461Y-59637784D01*
X67223240Y-59436135D01*
X67070248Y-59293417D01*
X66873995Y-59211723D01*
X66650995Y-59193144D01*
X66417757Y-59239772D01*
X66190794Y-59353698D01*
X66042674Y-59476426D01*
X65842191Y-59730519D01*
X65669335Y-60053350D01*
X65532187Y-60420557D01*
X65438828Y-60807777D01*
X65397341Y-61190648D01*
X64759338Y-61190648D01*
X64792700Y-61047075D01*
X64889981Y-60554258D01*
X64954712Y-60087541D01*
X64986790Y-59657918D01*
X64986112Y-59276379D01*
X64952576Y-58953918D01*
X64886079Y-58701526D01*
X64815813Y-58566639D01*
X64693362Y-58447141D01*
X64559318Y-58417841D01*
X64412544Y-58479456D01*
X64251902Y-58632703D01*
X64076254Y-58878299D01*
X63934770Y-59122086D01*
X63815206Y-59342280D01*
X63664793Y-59618481D01*
X63498465Y-59923307D01*
X63331158Y-60229378D01*
X63233513Y-60407709D01*
X63069802Y-60711587D01*
X62952055Y-60945145D01*
X62876950Y-61119432D01*
X62841164Y-61245498D01*
X57188298Y-61245498D01*
X57462143Y-60426630D01*
X59876139Y-60426630D01*
X59892374Y-60508940D01*
X59929364Y-60581054D01*
X59944782Y-60603896D01*
X60025426Y-60682362D01*
X60131755Y-60691642D01*
X60162830Y-60686216D01*
X60334081Y-60625843D01*
X60485454Y-60510249D01*
X60630148Y-60326369D01*
X60767826Y-60087367D01*
X60858873Y-59919116D01*
X60936086Y-59788789D01*
X60987872Y-59715405D01*
X61000279Y-59705992D01*
X61057860Y-59721957D01*
X61180356Y-59764332D01*
X61344099Y-59824838D01*
X61390286Y-59842433D01*
X61578395Y-59919013D01*
X61695179Y-59989286D01*
X61751344Y-60075469D01*
X61757597Y-60199776D01*
X61724645Y-60384425D01*
X61701177Y-60487523D01*
X61644072Y-60787724D01*
X61631358Y-61005392D01*
X61662996Y-61142111D01*
X61684419Y-61171011D01*
X61801431Y-61226691D01*
X61948325Y-61209375D01*
X62100205Y-61123841D01*
X62146287Y-61082349D01*
X62229351Y-60962027D01*
X62327184Y-60755688D01*
X62437180Y-60470846D01*
X62556728Y-60115012D01*
X62683220Y-59695701D01*
X62814048Y-59220424D01*
X62876237Y-58980072D01*
X62938525Y-58730287D01*
X62978137Y-58554357D01*
X62997063Y-58434255D01*
X62997291Y-58351957D01*
X62980810Y-58289439D01*
X62957592Y-58242734D01*
X62848042Y-58132489D01*
X62700669Y-58091532D01*
X62546709Y-58123720D01*
X62462249Y-58181535D01*
X62398306Y-58264868D01*
X62308502Y-58412116D01*
X62206085Y-58600477D01*
X62128624Y-58755724D01*
X62033592Y-58946573D01*
X61950156Y-59100766D01*
X61888201Y-59200848D01*
X61859798Y-59230337D01*
X61797747Y-59213749D01*
X61674222Y-59170214D01*
X61515688Y-59109070D01*
X61512015Y-59107601D01*
X61205426Y-58984865D01*
X61232854Y-58657699D01*
X61233173Y-58325100D01*
X61176461Y-58045839D01*
X61065580Y-57831738D01*
X61020221Y-57780010D01*
X60884883Y-57681319D01*
X60756678Y-57673216D01*
X60629951Y-57745036D01*
X60578485Y-57806768D01*
X60528879Y-57913921D01*
X60476211Y-58080699D01*
X60415556Y-58321307D01*
X60386778Y-58446628D01*
X60312963Y-58753845D01*
X60221785Y-59103073D01*
X60126149Y-59446135D01*
X60057602Y-59675732D01*
X59971389Y-59958675D01*
X59913703Y-60167482D01*
X59882601Y-60318139D01*
X59876139Y-60426630D01*
X57462143Y-60426630D01*
X57497266Y-60321604D01*
X57883064Y-59339924D01*
X58339884Y-58318363D01*
X58637863Y-57705414D01*
X58805865Y-57373509D01*
X58940526Y-57119903D01*
X59047982Y-56936338D01*
X59134368Y-56814557D01*
X59205817Y-56746305D01*
X59268466Y-56723324D01*
X59328447Y-56737357D01*
X59348693Y-56748699D01*
X59415121Y-56775181D01*
X59502674Y-56772329D01*
X59636141Y-56736842D01*
X59762230Y-56693652D01*
X59990183Y-56620876D01*
X60245802Y-56551814D01*
X60414419Y-56513731D01*
X60613268Y-56486617D01*
X60885361Y-56466734D01*
X61209081Y-56454113D01*
X61562814Y-56448784D01*
X61924944Y-56450780D01*
G37*
G36*
X59849052Y-94819790D02*
G01*
X59897401Y-94845196D01*
X59938968Y-94882813D01*
X59969877Y-94928775D01*
X59986254Y-94979214D01*
X59987869Y-95000157D01*
X59978522Y-95051312D01*
X59953066Y-95099565D01*
X59915373Y-95141048D01*
X59869319Y-95171896D01*
X59818779Y-95188240D01*
X59797794Y-95189852D01*
X59754608Y-95183826D01*
X59711379Y-95163795D01*
X59706737Y-95160933D01*
X59662656Y-95124096D01*
X59629566Y-95078062D01*
X59610770Y-95028193D01*
X59607719Y-95000157D01*
X59617066Y-94949002D01*
X59642523Y-94900749D01*
X59680215Y-94859266D01*
X59726269Y-94828419D01*
X59776809Y-94812074D01*
X59797794Y-94810463D01*
X59849052Y-94819790D01*
G37*
G36*
X59849052Y-96020263D02*
G01*
X59897401Y-96045669D01*
X59938968Y-96083286D01*
X59969877Y-96129248D01*
X59986254Y-96179687D01*
X59987869Y-96200630D01*
X59978522Y-96251785D01*
X59953066Y-96300038D01*
X59915373Y-96341521D01*
X59869319Y-96372368D01*
X59818779Y-96388713D01*
X59797794Y-96390324D01*
X59754608Y-96384298D01*
X59711379Y-96364267D01*
X59706737Y-96361405D01*
X59662656Y-96324569D01*
X59629566Y-96278534D01*
X59610770Y-96228665D01*
X59607719Y-96200630D01*
X59617066Y-96149475D01*
X59642523Y-96101222D01*
X59680215Y-96059739D01*
X59726269Y-96028891D01*
X59776809Y-96012547D01*
X59797794Y-96010935D01*
X59849052Y-96020263D01*
G37*
G36*
X63050312Y-91218373D02*
G01*
X63098661Y-91243778D01*
X63140228Y-91281395D01*
X63171137Y-91327357D01*
X63187514Y-91377797D01*
X63189129Y-91398739D01*
X63179783Y-91449895D01*
X63154326Y-91498147D01*
X63116633Y-91539630D01*
X63070580Y-91570478D01*
X63020039Y-91586822D01*
X62999054Y-91588434D01*
X62955868Y-91582408D01*
X62912639Y-91562377D01*
X62907997Y-91559515D01*
X62863916Y-91522678D01*
X62830826Y-91476644D01*
X62812031Y-91426775D01*
X62808980Y-91398739D01*
X62818326Y-91347584D01*
X62843783Y-91299331D01*
X62881475Y-91257848D01*
X62927529Y-91227001D01*
X62978070Y-91210656D01*
X62999054Y-91209045D01*
X63050312Y-91218373D01*
G37*
G36*
X63850627Y-91218373D02*
G01*
X63898977Y-91243778D01*
X63940543Y-91281395D01*
X63971452Y-91327357D01*
X63987830Y-91377797D01*
X63989444Y-91398739D01*
X63980098Y-91449895D01*
X63954641Y-91498147D01*
X63916948Y-91539630D01*
X63870895Y-91570478D01*
X63820354Y-91586822D01*
X63799369Y-91588434D01*
X63756183Y-91582408D01*
X63712954Y-91562377D01*
X63708313Y-91559515D01*
X63664231Y-91522678D01*
X63631141Y-91476644D01*
X63612346Y-91426775D01*
X63609295Y-91398739D01*
X63618641Y-91347584D01*
X63644098Y-91299331D01*
X63681790Y-91257848D01*
X63727844Y-91227001D01*
X63778385Y-91210656D01*
X63799369Y-91209045D01*
X63850627Y-91218373D01*
G37*
G36*
X64650942Y-99621681D02*
G01*
X64699292Y-99647087D01*
X64740858Y-99684704D01*
X64771767Y-99730665D01*
X64788145Y-99781105D01*
X64789759Y-99802048D01*
X64780413Y-99853203D01*
X64754956Y-99901456D01*
X64717264Y-99942939D01*
X64671210Y-99973786D01*
X64620669Y-99990131D01*
X64599685Y-99991742D01*
X64556498Y-99985716D01*
X64513269Y-99965685D01*
X64508628Y-99962823D01*
X64464546Y-99925986D01*
X64431456Y-99879952D01*
X64412661Y-99830083D01*
X64409610Y-99802048D01*
X64418956Y-99750892D01*
X64444413Y-99702640D01*
X64482106Y-99661156D01*
X64528159Y-99630309D01*
X64578700Y-99613965D01*
X64599685Y-99612353D01*
X64650942Y-99621681D01*
G37*
G36*
X65051100Y-95620105D02*
G01*
X65099449Y-95645511D01*
X65141016Y-95683128D01*
X65171925Y-95729090D01*
X65188302Y-95779530D01*
X65189917Y-95800472D01*
X65180570Y-95851627D01*
X65155114Y-95899880D01*
X65117421Y-95941363D01*
X65071367Y-95972211D01*
X65020827Y-95988555D01*
X64999842Y-95990167D01*
X64956656Y-95984141D01*
X64913427Y-95964110D01*
X64908785Y-95961248D01*
X64864704Y-95924411D01*
X64831614Y-95878377D01*
X64812818Y-95828508D01*
X64809767Y-95800472D01*
X64819114Y-95749317D01*
X64844571Y-95701064D01*
X64882263Y-95659581D01*
X64928317Y-95628734D01*
X64978857Y-95612389D01*
X64999842Y-95610778D01*
X65051100Y-95620105D01*
G37*
G36*
X65451257Y-92418845D02*
G01*
X65499607Y-92444251D01*
X65541173Y-92481868D01*
X65572082Y-92527830D01*
X65588460Y-92578269D01*
X65590074Y-92599212D01*
X65580728Y-92650367D01*
X65555271Y-92698620D01*
X65517579Y-92740103D01*
X65471525Y-92770950D01*
X65420984Y-92787295D01*
X65400000Y-92788907D01*
X65356813Y-92782880D01*
X65313584Y-92762849D01*
X65308943Y-92759987D01*
X65264861Y-92723151D01*
X65231771Y-92677117D01*
X65212976Y-92627248D01*
X65209925Y-92599212D01*
X65219271Y-92548057D01*
X65244728Y-92499804D01*
X65282421Y-92458321D01*
X65328474Y-92427473D01*
X65379015Y-92411129D01*
X65400000Y-92409517D01*
X65451257Y-92418845D01*
G37*
G36*
X66251572Y-94019475D02*
G01*
X66299922Y-94044881D01*
X66341488Y-94082498D01*
X66372397Y-94128460D01*
X66388775Y-94178899D01*
X66390390Y-94199842D01*
X66381043Y-94250997D01*
X66355586Y-94299250D01*
X66317894Y-94340733D01*
X66271840Y-94371581D01*
X66221299Y-94387925D01*
X66200315Y-94389537D01*
X66157128Y-94383511D01*
X66113900Y-94363479D01*
X66109258Y-94360618D01*
X66065176Y-94323781D01*
X66032086Y-94277747D01*
X66013291Y-94227878D01*
X66010240Y-94199842D01*
X66019586Y-94148687D01*
X66045043Y-94100434D01*
X66082736Y-94058951D01*
X66128789Y-94028104D01*
X66179330Y-94011759D01*
X66200315Y-94010147D01*
X66251572Y-94019475D01*
G37*
G36*
X66651730Y-89617742D02*
G01*
X66700079Y-89643148D01*
X66741646Y-89680765D01*
X66772555Y-89726727D01*
X66788932Y-89777166D01*
X66790547Y-89798109D01*
X66781201Y-89849264D01*
X66755744Y-89897517D01*
X66718051Y-89939000D01*
X66671998Y-89969848D01*
X66621457Y-89986192D01*
X66600472Y-89987804D01*
X66557286Y-89981778D01*
X66514057Y-89961747D01*
X66509415Y-89958885D01*
X66465334Y-89922048D01*
X66432244Y-89876014D01*
X66413449Y-89826145D01*
X66410397Y-89798109D01*
X66419744Y-89746954D01*
X66445201Y-89698701D01*
X66482893Y-89657218D01*
X66528947Y-89626371D01*
X66579488Y-89610026D01*
X66600472Y-89608414D01*
X66651730Y-89617742D01*
G37*
G36*
X66651730Y-98821366D02*
G01*
X66700079Y-98846772D01*
X66741646Y-98884389D01*
X66772555Y-98930350D01*
X66788932Y-98980790D01*
X66790547Y-99001733D01*
X66781201Y-99052888D01*
X66755744Y-99101140D01*
X66718051Y-99142624D01*
X66671998Y-99173471D01*
X66621457Y-99189816D01*
X66600472Y-99191427D01*
X66557286Y-99185401D01*
X66514057Y-99165370D01*
X66509415Y-99162508D01*
X66465334Y-99125671D01*
X66432244Y-99079637D01*
X66413449Y-99029768D01*
X66410397Y-99001733D01*
X66419744Y-98950577D01*
X66445201Y-98902325D01*
X66482893Y-98860841D01*
X66528947Y-98829994D01*
X66579488Y-98813649D01*
X66600472Y-98812038D01*
X66651730Y-98821366D01*
G37*
G36*
X67051888Y-94819790D02*
G01*
X67100237Y-94845196D01*
X67141803Y-94882813D01*
X67172713Y-94928775D01*
X67189090Y-94979214D01*
X67190705Y-95000157D01*
X67181358Y-95051312D01*
X67155901Y-95099565D01*
X67118209Y-95141048D01*
X67072155Y-95171896D01*
X67021614Y-95188240D01*
X67000630Y-95189852D01*
X66957443Y-95183826D01*
X66914215Y-95163795D01*
X66909573Y-95160933D01*
X66865491Y-95124096D01*
X66832401Y-95078062D01*
X66813606Y-95028193D01*
X66810555Y-95000157D01*
X66819902Y-94949002D01*
X66845358Y-94900749D01*
X66883051Y-94859266D01*
X66929105Y-94828419D01*
X66979645Y-94812074D01*
X67000630Y-94810463D01*
X67051888Y-94819790D01*
G37*
G36*
X67051888Y-99221523D02*
G01*
X67100237Y-99246929D01*
X67141803Y-99284546D01*
X67172713Y-99330508D01*
X67189090Y-99380947D01*
X67190705Y-99401890D01*
X67181358Y-99453045D01*
X67155901Y-99501298D01*
X67118209Y-99542781D01*
X67072155Y-99573629D01*
X67021614Y-99589973D01*
X67000630Y-99591585D01*
X66957443Y-99585559D01*
X66914215Y-99565528D01*
X66909573Y-99562666D01*
X66865491Y-99525829D01*
X66832401Y-99479795D01*
X66813606Y-99429926D01*
X66810555Y-99401890D01*
X66819902Y-99350735D01*
X66845358Y-99302482D01*
X66883051Y-99260999D01*
X66929105Y-99230152D01*
X66979645Y-99213807D01*
X67000630Y-99212195D01*
X67051888Y-99221523D01*
G37*
G36*
X67852203Y-91218373D02*
G01*
X67900552Y-91243778D01*
X67942118Y-91281395D01*
X67973028Y-91327357D01*
X67989405Y-91377797D01*
X67991020Y-91398739D01*
X67981673Y-91449895D01*
X67956216Y-91498147D01*
X67918524Y-91539630D01*
X67872470Y-91570478D01*
X67821930Y-91586822D01*
X67800945Y-91588434D01*
X67757759Y-91582408D01*
X67714530Y-91562377D01*
X67709888Y-91559515D01*
X67665806Y-91522678D01*
X67632717Y-91476644D01*
X67613921Y-91426775D01*
X67610870Y-91398739D01*
X67620217Y-91347584D01*
X67645673Y-91299331D01*
X67683366Y-91257848D01*
X67729420Y-91227001D01*
X67779960Y-91210656D01*
X67800945Y-91209045D01*
X67852203Y-91218373D01*
G37*
G36*
X68652518Y-94019475D02*
G01*
X68700867Y-94044881D01*
X68742434Y-94082498D01*
X68773343Y-94128460D01*
X68789720Y-94178899D01*
X68791335Y-94199842D01*
X68781988Y-94250997D01*
X68756531Y-94299250D01*
X68718839Y-94340733D01*
X68672785Y-94371581D01*
X68622245Y-94387925D01*
X68601260Y-94389537D01*
X68558074Y-94383511D01*
X68514845Y-94363479D01*
X68510203Y-94360618D01*
X68466121Y-94323781D01*
X68433032Y-94277747D01*
X68414236Y-94227878D01*
X68411185Y-94199842D01*
X68420532Y-94148687D01*
X68445988Y-94100434D01*
X68483681Y-94058951D01*
X68529735Y-94028104D01*
X68580275Y-94011759D01*
X68601260Y-94010147D01*
X68652518Y-94019475D01*
G37*
G36*
X68652518Y-97620893D02*
G01*
X68700867Y-97646299D01*
X68742434Y-97683916D01*
X68773343Y-97729878D01*
X68789720Y-97780317D01*
X68791335Y-97801260D01*
X68781988Y-97852415D01*
X68756531Y-97900668D01*
X68718839Y-97942151D01*
X68672785Y-97972999D01*
X68622245Y-97989343D01*
X68601260Y-97990955D01*
X68558074Y-97984929D01*
X68514845Y-97964897D01*
X68510203Y-97962035D01*
X68466121Y-97925199D01*
X68433032Y-97879165D01*
X68414236Y-97829296D01*
X68411185Y-97801260D01*
X68420532Y-97750105D01*
X68445988Y-97701852D01*
X68483681Y-97660369D01*
X68529735Y-97629521D01*
X68580275Y-97613177D01*
X68601260Y-97611565D01*
X68652518Y-97620893D01*
G37*
G36*
X69052675Y-94419633D02*
G01*
X69101025Y-94445039D01*
X69142591Y-94482656D01*
X69173500Y-94528617D01*
X69189878Y-94579057D01*
X69191492Y-94600000D01*
X69182146Y-94651155D01*
X69156689Y-94699407D01*
X69118997Y-94740891D01*
X69072943Y-94771738D01*
X69022402Y-94788083D01*
X69001418Y-94789694D01*
X68958231Y-94783668D01*
X68915002Y-94763637D01*
X68910361Y-94760775D01*
X68866279Y-94723938D01*
X68833189Y-94677904D01*
X68814394Y-94628035D01*
X68811343Y-94600000D01*
X68820689Y-94548844D01*
X68846146Y-94500592D01*
X68883838Y-94459108D01*
X68929892Y-94428261D01*
X68980433Y-94411916D01*
X69001418Y-94410305D01*
X69052675Y-94419633D01*
G37*
G36*
X70253148Y-97220736D02*
G01*
X70301497Y-97246141D01*
X70343064Y-97283759D01*
X70373973Y-97329720D01*
X70390350Y-97380160D01*
X70391965Y-97401102D01*
X70382618Y-97452258D01*
X70357162Y-97500510D01*
X70319469Y-97541994D01*
X70273415Y-97572841D01*
X70222875Y-97589186D01*
X70201890Y-97590797D01*
X70158704Y-97584771D01*
X70115475Y-97564740D01*
X70110833Y-97561878D01*
X70066752Y-97525041D01*
X70033662Y-97479007D01*
X70014866Y-97429138D01*
X70011815Y-97401102D01*
X70021162Y-97349947D01*
X70046619Y-97301695D01*
X70084311Y-97260211D01*
X70130365Y-97229364D01*
X70180905Y-97213019D01*
X70201890Y-97211408D01*
X70253148Y-97220736D01*
G37*
G36*
X71053463Y-93219160D02*
G01*
X71101812Y-93244566D01*
X71143379Y-93282183D01*
X71174288Y-93328145D01*
X71190665Y-93378584D01*
X71192280Y-93399527D01*
X71182933Y-93450682D01*
X71157477Y-93498935D01*
X71119784Y-93540418D01*
X71073730Y-93571266D01*
X71023190Y-93587610D01*
X71002205Y-93589222D01*
X70959019Y-93583196D01*
X70915790Y-93563164D01*
X70911148Y-93560302D01*
X70867067Y-93523466D01*
X70833977Y-93477432D01*
X70815182Y-93427563D01*
X70812130Y-93399527D01*
X70821477Y-93348372D01*
X70846934Y-93300119D01*
X70884626Y-93258636D01*
X70930680Y-93227788D01*
X70981221Y-93211444D01*
X71002205Y-93209832D01*
X71053463Y-93219160D01*
G37*
G36*
X71053463Y-94019475D02*
G01*
X71101812Y-94044881D01*
X71143379Y-94082498D01*
X71174288Y-94128460D01*
X71190665Y-94178899D01*
X71192280Y-94199842D01*
X71182933Y-94250997D01*
X71157477Y-94299250D01*
X71119784Y-94340733D01*
X71073730Y-94371581D01*
X71023190Y-94387925D01*
X71002205Y-94389537D01*
X70959019Y-94383511D01*
X70915790Y-94363479D01*
X70911148Y-94360618D01*
X70867067Y-94323781D01*
X70833977Y-94277747D01*
X70815182Y-94227878D01*
X70812130Y-94199842D01*
X70821477Y-94148687D01*
X70846934Y-94100434D01*
X70884626Y-94058951D01*
X70930680Y-94028104D01*
X70981221Y-94011759D01*
X71002205Y-94010147D01*
X71053463Y-94019475D01*
G37*
G36*
X71053463Y-100021838D02*
G01*
X71101812Y-100047244D01*
X71143379Y-100084861D01*
X71174288Y-100130823D01*
X71190665Y-100181263D01*
X71192280Y-100202205D01*
X71182933Y-100253360D01*
X71157477Y-100301613D01*
X71119784Y-100343096D01*
X71073730Y-100373944D01*
X71023190Y-100390288D01*
X71002205Y-100391900D01*
X70959019Y-100385874D01*
X70915790Y-100365843D01*
X70911148Y-100362981D01*
X70867067Y-100326144D01*
X70833977Y-100280110D01*
X70815182Y-100230241D01*
X70812130Y-100202205D01*
X70821477Y-100151050D01*
X70846934Y-100102797D01*
X70884626Y-100061314D01*
X70930680Y-100030467D01*
X70981221Y-100014122D01*
X71002205Y-100012511D01*
X71053463Y-100021838D01*
G37*
G36*
X61485080Y-89634524D02*
G01*
X61523939Y-89664721D01*
X61556778Y-89703314D01*
X61559200Y-89707052D01*
X61588119Y-89753091D01*
X61588309Y-90196485D01*
X61588499Y-90639879D01*
X61562010Y-90685080D01*
X61531813Y-90723939D01*
X61493220Y-90756778D01*
X61489481Y-90759200D01*
X61443442Y-90788119D01*
X60998267Y-90788119D01*
X60553091Y-90788119D01*
X60507052Y-90759200D01*
X60468229Y-90727524D01*
X60436753Y-90688757D01*
X60434524Y-90685080D01*
X60408034Y-90639879D01*
X60408224Y-90196485D01*
X60408414Y-89753091D01*
X60437334Y-89707052D01*
X60469009Y-89668229D01*
X60507776Y-89636753D01*
X60511454Y-89634524D01*
X60556654Y-89608034D01*
X60998267Y-89608034D01*
X61439879Y-89608034D01*
X61485080Y-89634524D01*
G37*
G36*
X61485080Y-98437990D02*
G01*
X61523939Y-98468187D01*
X61556778Y-98506780D01*
X61559200Y-98510518D01*
X61588119Y-98556557D01*
X61588309Y-98999951D01*
X61588499Y-99443345D01*
X61562010Y-99488546D01*
X61531813Y-99527405D01*
X61493220Y-99560244D01*
X61489481Y-99562666D01*
X61443442Y-99591585D01*
X60998267Y-99591585D01*
X60553091Y-99591585D01*
X60507052Y-99562666D01*
X60468229Y-99530990D01*
X60436753Y-99492223D01*
X60434524Y-99488546D01*
X60408034Y-99443345D01*
X60408224Y-98999951D01*
X60408414Y-98556557D01*
X60437334Y-98510518D01*
X60469009Y-98471695D01*
X60507776Y-98440219D01*
X60511454Y-98437990D01*
X60556654Y-98411500D01*
X60998267Y-98411500D01*
X61439879Y-98411500D01*
X61485080Y-98437990D01*
G37*
G36*
X66402175Y-97611375D02*
G01*
X66645490Y-97611565D01*
X66691529Y-97640485D01*
X66730353Y-97672160D01*
X66761828Y-97710927D01*
X66764058Y-97714604D01*
X66790547Y-97759805D01*
X66790357Y-98003120D01*
X66790167Y-98246435D01*
X66761248Y-98292474D01*
X66729572Y-98331298D01*
X66690806Y-98362773D01*
X66687128Y-98365003D01*
X66641927Y-98391492D01*
X66398612Y-98391302D01*
X66155297Y-98391112D01*
X66109258Y-98362193D01*
X66070434Y-98330517D01*
X66038959Y-98291751D01*
X66036729Y-98288073D01*
X66010240Y-98242872D01*
X66010430Y-97999557D01*
X66010620Y-97756242D01*
X66039539Y-97710203D01*
X66071215Y-97671380D01*
X66109981Y-97639904D01*
X66113659Y-97637674D01*
X66158860Y-97611185D01*
X66402175Y-97611375D01*
G37*
G36*
X70288546Y-89634524D02*
G01*
X70327405Y-89664721D01*
X70360244Y-89703314D01*
X70362666Y-89707052D01*
X70391585Y-89753091D01*
X70391775Y-90196485D01*
X70391965Y-90639879D01*
X70365476Y-90685080D01*
X70335278Y-90723939D01*
X70296685Y-90756778D01*
X70292947Y-90759200D01*
X70246908Y-90788119D01*
X69801733Y-90788119D01*
X69356557Y-90788119D01*
X69310518Y-90759200D01*
X69271695Y-90727524D01*
X69240219Y-90688757D01*
X69237990Y-90685080D01*
X69211500Y-90639879D01*
X69211690Y-90196485D01*
X69211880Y-89753091D01*
X69240800Y-89707052D01*
X69272475Y-89668229D01*
X69311242Y-89636753D01*
X69314920Y-89634524D01*
X69360120Y-89608034D01*
X69801733Y-89608034D01*
X70243345Y-89608034D01*
X70288546Y-89634524D01*
G37*
G36*
X71055216Y-98020664D02*
G01*
X71105452Y-98046308D01*
X71147282Y-98084794D01*
X71165994Y-98112585D01*
X71192280Y-98161255D01*
X71192280Y-98601575D01*
X71192280Y-99041895D01*
X71165994Y-99090565D01*
X71129446Y-99138143D01*
X71080377Y-99171901D01*
X71022558Y-99189635D01*
X70992865Y-99191807D01*
X70963048Y-99189993D01*
X70942325Y-99185369D01*
X70937345Y-99182071D01*
X70924858Y-99171512D01*
X70902303Y-99158594D01*
X70899178Y-99157079D01*
X70873994Y-99138598D01*
X70848524Y-99109743D01*
X70839579Y-99096380D01*
X70812130Y-99050937D01*
X70812130Y-98601575D01*
X70812130Y-98152213D01*
X70838982Y-98107759D01*
X70873708Y-98066413D01*
X70919640Y-98034252D01*
X70970362Y-98015064D01*
X71002205Y-98011343D01*
X71055216Y-98020664D01*
G37*
G36*
X67036481Y-88809560D02*
G01*
X67058706Y-88813520D01*
X67065490Y-88817455D01*
X67077922Y-88827921D01*
X67100623Y-88840955D01*
X67104789Y-88842985D01*
X67136859Y-88867863D01*
X67164388Y-88907131D01*
X67190705Y-88955484D01*
X67190705Y-89201320D01*
X67190705Y-89447156D01*
X67163853Y-89491611D01*
X67125025Y-89538423D01*
X67076468Y-89569737D01*
X67021800Y-89584557D01*
X66964641Y-89581886D01*
X66909930Y-89561471D01*
X66864051Y-89525864D01*
X66837402Y-89491603D01*
X66810555Y-89447156D01*
X66810555Y-89197873D01*
X66810555Y-88948590D01*
X66838003Y-88903147D01*
X66861260Y-88872295D01*
X66887514Y-88848470D01*
X66897602Y-88842448D01*
X66920832Y-88829620D01*
X66935041Y-88818464D01*
X66935770Y-88817455D01*
X66948687Y-88811921D01*
X66974456Y-88808761D01*
X67006059Y-88807974D01*
X67036481Y-88809560D01*
G37*
G36*
X67094289Y-100038982D02*
G01*
X67135634Y-100073708D01*
X67167795Y-100119640D01*
X67186983Y-100170362D01*
X67190705Y-100202205D01*
X67181383Y-100255216D01*
X67155739Y-100305452D01*
X67117254Y-100347282D01*
X67089462Y-100365994D01*
X67040792Y-100392280D01*
X66791211Y-100392280D01*
X66712792Y-100391896D01*
X66646467Y-100390790D01*
X66594033Y-100389031D01*
X66557286Y-100386686D01*
X66538024Y-100383825D01*
X66535612Y-100382544D01*
X66523156Y-100372037D01*
X66500519Y-100359053D01*
X66496821Y-100357255D01*
X66467179Y-100334182D01*
X66440492Y-100297748D01*
X66420457Y-100254587D01*
X66410772Y-100211333D01*
X66410397Y-100202205D01*
X66419354Y-100151775D01*
X66443696Y-100102052D01*
X66479634Y-100059451D01*
X66506813Y-100038982D01*
X66551268Y-100012130D01*
X66800551Y-100012130D01*
X67049834Y-100012130D01*
X67094289Y-100038982D01*
G37*
G36*
X71095864Y-96837722D02*
G01*
X71137209Y-96872447D01*
X71169371Y-96918380D01*
X71188559Y-96969102D01*
X71192280Y-97000945D01*
X71185454Y-97043298D01*
X71167440Y-97087061D01*
X71141936Y-97125600D01*
X71112639Y-97152282D01*
X71105857Y-97155995D01*
X71082415Y-97168890D01*
X71067942Y-97180099D01*
X71067065Y-97181283D01*
X71055322Y-97184296D01*
X71025242Y-97186759D01*
X70978491Y-97188616D01*
X70916735Y-97189809D01*
X70841638Y-97190282D01*
X70804037Y-97190245D01*
X70547026Y-97189471D01*
X70505510Y-97163449D01*
X70462387Y-97125355D01*
X70430795Y-97074926D01*
X70413918Y-97018014D01*
X70411973Y-96991605D01*
X70413788Y-96961788D01*
X70418411Y-96941064D01*
X70421709Y-96936085D01*
X70432268Y-96923597D01*
X70445187Y-96901042D01*
X70446702Y-96897917D01*
X70465183Y-96872734D01*
X70494038Y-96847264D01*
X70507401Y-96838319D01*
X70552843Y-96810870D01*
X70802126Y-96810870D01*
X71051409Y-96810870D01*
X71095864Y-96837722D01*
G37*
G36*
X67837027Y-88809725D02*
G01*
X67859282Y-88813852D01*
X67866064Y-88817875D01*
X67878909Y-88828315D01*
X67901995Y-88840386D01*
X67905182Y-88841752D01*
X67938276Y-88865928D01*
X67964522Y-88902884D01*
X67991020Y-88950294D01*
X67991020Y-89194204D01*
X67991020Y-89438114D01*
X67964734Y-89486784D01*
X67928185Y-89534362D01*
X67879116Y-89568120D01*
X67821298Y-89585854D01*
X67791605Y-89588026D01*
X67761788Y-89586212D01*
X67741064Y-89581588D01*
X67736085Y-89578290D01*
X67723597Y-89567731D01*
X67701042Y-89554813D01*
X67697917Y-89553298D01*
X67672734Y-89534817D01*
X67647264Y-89505962D01*
X67638319Y-89492599D01*
X67610870Y-89447156D01*
X67610870Y-89197873D01*
X67610870Y-88948590D01*
X67638319Y-88903147D01*
X67661575Y-88872295D01*
X67687829Y-88848470D01*
X67697917Y-88842448D01*
X67721147Y-88829620D01*
X67735356Y-88818464D01*
X67736085Y-88817455D01*
X67749079Y-88811842D01*
X67774910Y-88808697D01*
X67806565Y-88807999D01*
X67837027Y-88809725D01*
G37*
G36*
X60082005Y-93209829D02*
G01*
X60149150Y-93210917D01*
X60202365Y-93212649D01*
X60239887Y-93214959D01*
X60259954Y-93217782D01*
X60262812Y-93219188D01*
X60275268Y-93229696D01*
X60297905Y-93242679D01*
X60301603Y-93244477D01*
X60331245Y-93267551D01*
X60357932Y-93303985D01*
X60377967Y-93347145D01*
X60387652Y-93390399D01*
X60388026Y-93399527D01*
X60378705Y-93452538D01*
X60353061Y-93502774D01*
X60314576Y-93544604D01*
X60286784Y-93563316D01*
X60238114Y-93589602D01*
X59995445Y-93589035D01*
X59919602Y-93588811D01*
X59860971Y-93588369D01*
X59816756Y-93587455D01*
X59784160Y-93585814D01*
X59760386Y-93583191D01*
X59742640Y-93579333D01*
X59728125Y-93573984D01*
X59714045Y-93566890D01*
X59706530Y-93562741D01*
X59660618Y-93526267D01*
X59627571Y-93477112D01*
X59609949Y-93419745D01*
X59607719Y-93390187D01*
X59609534Y-93360370D01*
X59614157Y-93339646D01*
X59617455Y-93334667D01*
X59628015Y-93322180D01*
X59640933Y-93299624D01*
X59642448Y-93296499D01*
X59660929Y-93271316D01*
X59689784Y-93245846D01*
X59703147Y-93236901D01*
X59748590Y-93209452D01*
X60002692Y-93209452D01*
X60082005Y-93209829D01*
G37*
G36*
X63449642Y-99620929D02*
G01*
X63499365Y-99645271D01*
X63541966Y-99681210D01*
X63562435Y-99708389D01*
X63574011Y-99728912D01*
X63581683Y-99748015D01*
X63586247Y-99770505D01*
X63588499Y-99801189D01*
X63589237Y-99844874D01*
X63589287Y-99870482D01*
X63590412Y-99932371D01*
X63593777Y-99974718D01*
X63599370Y-99997373D01*
X63601291Y-100000126D01*
X63618517Y-100006326D01*
X63655476Y-100010304D01*
X63712019Y-100012046D01*
X63730935Y-100012130D01*
X63782163Y-100012441D01*
X63818193Y-100013902D01*
X63843832Y-100017311D01*
X63863887Y-100023463D01*
X63883164Y-100033156D01*
X63893028Y-100038982D01*
X63934374Y-100073708D01*
X63966535Y-100119640D01*
X63985723Y-100170362D01*
X63989444Y-100202205D01*
X63980123Y-100255216D01*
X63954479Y-100305452D01*
X63915993Y-100347282D01*
X63888202Y-100365994D01*
X63839532Y-100392280D01*
X63596863Y-100392090D01*
X63354194Y-100391900D01*
X63308155Y-100362981D01*
X63269332Y-100331305D01*
X63237856Y-100292539D01*
X63235626Y-100288861D01*
X63209137Y-100243660D01*
X63209137Y-99998252D01*
X63209137Y-99752843D01*
X63235989Y-99708389D01*
X63270715Y-99667044D01*
X63316647Y-99634882D01*
X63367369Y-99615694D01*
X63399212Y-99611973D01*
X63449642Y-99620929D01*
G37*
G36*
X65517625Y-100012343D02*
G01*
X65616338Y-100012968D01*
X65699991Y-100013985D01*
X65767619Y-100015374D01*
X65818254Y-100017113D01*
X65850932Y-100019183D01*
X65864685Y-100021562D01*
X65865017Y-100021867D01*
X65877474Y-100032374D01*
X65900111Y-100045357D01*
X65903808Y-100047155D01*
X65933451Y-100070229D01*
X65960138Y-100106663D01*
X65980172Y-100149824D01*
X65989857Y-100193078D01*
X65990232Y-100202205D01*
X65980911Y-100255216D01*
X65955267Y-100305452D01*
X65916781Y-100347282D01*
X65888990Y-100365994D01*
X65840320Y-100392280D01*
X65390659Y-100392280D01*
X65278512Y-100392065D01*
X65180433Y-100391434D01*
X65097396Y-100390407D01*
X65030378Y-100389006D01*
X64980354Y-100387251D01*
X64948300Y-100385164D01*
X64935193Y-100382764D01*
X64934982Y-100382544D01*
X64922525Y-100372037D01*
X64899888Y-100359053D01*
X64896191Y-100357255D01*
X64864174Y-100332423D01*
X64837031Y-100293593D01*
X64817879Y-100246699D01*
X64809840Y-100197674D01*
X64809767Y-100192865D01*
X64811582Y-100163048D01*
X64816205Y-100142325D01*
X64819503Y-100137345D01*
X64830063Y-100124858D01*
X64842981Y-100102303D01*
X64844496Y-100099178D01*
X64862977Y-100073994D01*
X64891832Y-100048524D01*
X64905195Y-100039579D01*
X64950638Y-100012130D01*
X65404819Y-100012130D01*
X65517625Y-100012343D01*
G37*
G36*
X65839314Y-94411740D02*
G01*
X65860038Y-94416363D01*
X65865017Y-94419661D01*
X65877505Y-94430220D01*
X65900060Y-94443139D01*
X65903185Y-94444654D01*
X65928368Y-94463135D01*
X65953838Y-94491990D01*
X65962784Y-94505353D01*
X65974601Y-94526200D01*
X65982436Y-94545344D01*
X65987102Y-94567611D01*
X65989410Y-94597831D01*
X65990175Y-94640829D01*
X65990232Y-94668434D01*
X65991357Y-94730323D01*
X65994723Y-94772670D01*
X66000315Y-94795325D01*
X66002237Y-94798078D01*
X66019148Y-94804175D01*
X66055624Y-94808128D01*
X66111807Y-94809947D01*
X66136700Y-94810082D01*
X66185331Y-94810840D01*
X66225537Y-94812915D01*
X66253448Y-94816017D01*
X66265175Y-94819819D01*
X66277631Y-94830326D01*
X66300268Y-94843309D01*
X66303966Y-94845107D01*
X66333608Y-94868181D01*
X66360295Y-94904615D01*
X66380330Y-94947776D01*
X66390015Y-94991029D01*
X66390390Y-95000157D01*
X66381068Y-95053168D01*
X66355424Y-95103404D01*
X66316939Y-95145234D01*
X66289147Y-95163946D01*
X66240477Y-95190232D01*
X65997808Y-95190042D01*
X65755139Y-95189852D01*
X65709100Y-95160933D01*
X65670277Y-95129257D01*
X65638801Y-95090490D01*
X65636572Y-95086813D01*
X65610082Y-95041612D01*
X65610082Y-94800725D01*
X65610082Y-94559837D01*
X65636368Y-94511167D01*
X65672917Y-94463589D01*
X65721986Y-94429831D01*
X65779804Y-94412097D01*
X65809497Y-94409925D01*
X65839314Y-94411740D01*
G37*
G36*
X67456398Y-89617551D02*
G01*
X67509857Y-89644977D01*
X67553419Y-89688626D01*
X67564339Y-89704993D01*
X67575782Y-89725341D01*
X67583364Y-89744429D01*
X67587872Y-89767053D01*
X67590094Y-89798007D01*
X67590816Y-89842087D01*
X67590862Y-89866544D01*
X67591987Y-89928433D01*
X67595353Y-89970780D01*
X67600945Y-89993434D01*
X67602867Y-89996187D01*
X67620023Y-90002395D01*
X67656655Y-90006436D01*
X67712346Y-90008270D01*
X67730417Y-90008382D01*
X67780828Y-90008747D01*
X67816120Y-90010232D01*
X67841183Y-90013718D01*
X67860905Y-90020086D01*
X67880174Y-90030216D01*
X67892002Y-90037491D01*
X67930825Y-90069167D01*
X67962301Y-90107933D01*
X67964530Y-90111611D01*
X67991020Y-90156812D01*
X67990830Y-90400127D01*
X67990640Y-90643442D01*
X67961720Y-90689481D01*
X67930045Y-90728304D01*
X67891278Y-90759780D01*
X67887600Y-90762010D01*
X67842400Y-90788499D01*
X67599085Y-90788309D01*
X67355770Y-90788119D01*
X67309730Y-90759200D01*
X67270907Y-90727524D01*
X67239431Y-90688757D01*
X67237202Y-90685080D01*
X67210713Y-90639879D01*
X67210713Y-90194392D01*
X67210713Y-89748905D01*
X67238161Y-89703462D01*
X67261417Y-89672610D01*
X67287671Y-89648785D01*
X67297760Y-89642763D01*
X67320989Y-89629935D01*
X67335198Y-89618779D01*
X67335927Y-89617771D01*
X67348538Y-89612338D01*
X67374497Y-89608804D01*
X67395968Y-89608034D01*
X67456398Y-89617551D01*
G37*
G36*
X63286374Y-95610780D02*
G01*
X63352817Y-95611884D01*
X63405363Y-95613639D01*
X63442221Y-95615979D01*
X63461599Y-95618835D01*
X63464072Y-95620134D01*
X63476529Y-95630641D01*
X63499166Y-95643625D01*
X63502863Y-95645422D01*
X63532505Y-95668496D01*
X63559192Y-95704930D01*
X63579227Y-95748091D01*
X63588912Y-95791345D01*
X63589287Y-95800472D01*
X63579965Y-95853483D01*
X63554322Y-95903719D01*
X63515836Y-95945549D01*
X63488044Y-95964261D01*
X63464776Y-95975892D01*
X63443088Y-95983493D01*
X63417795Y-95987906D01*
X63383708Y-95989974D01*
X63335642Y-95990540D01*
X63326256Y-95990547D01*
X63266274Y-95991712D01*
X63225165Y-95995178D01*
X63203383Y-96000901D01*
X63201134Y-96002552D01*
X63194892Y-96019770D01*
X63190897Y-96056421D01*
X63189193Y-96112051D01*
X63189129Y-96127674D01*
X63188727Y-96178474D01*
X63186957Y-96214459D01*
X63182978Y-96240817D01*
X63175947Y-96262734D01*
X63165021Y-96285398D01*
X63162843Y-96289462D01*
X63126429Y-96337747D01*
X63079652Y-96370586D01*
X63026015Y-96386957D01*
X62969020Y-96385840D01*
X62912171Y-96366213D01*
X62907790Y-96363844D01*
X62866141Y-96332701D01*
X62835261Y-96289455D01*
X62808980Y-96240792D01*
X62809170Y-95998123D01*
X62809360Y-95755455D01*
X62838279Y-95709415D01*
X62869954Y-95670592D01*
X62908721Y-95639116D01*
X62912399Y-95636887D01*
X62957599Y-95610397D01*
X63207827Y-95610397D01*
X63286374Y-95610780D01*
G37*
G36*
X60630674Y-96412248D02*
G01*
X60654490Y-96416223D01*
X60662969Y-96420449D01*
X60675457Y-96431008D01*
X60698012Y-96443926D01*
X60701137Y-96445441D01*
X60726320Y-96463922D01*
X60751790Y-96492777D01*
X60760736Y-96506140D01*
X60788184Y-96551583D01*
X60787994Y-96798773D01*
X60787804Y-97045963D01*
X60758885Y-97092002D01*
X60727209Y-97130825D01*
X60688442Y-97162301D01*
X60684765Y-97164530D01*
X60639564Y-97191020D01*
X60389336Y-97191020D01*
X60310789Y-97190637D01*
X60244347Y-97189534D01*
X60191801Y-97187778D01*
X60154943Y-97185438D01*
X60135565Y-97182583D01*
X60133091Y-97181283D01*
X60120635Y-97170776D01*
X60097998Y-97157793D01*
X60094300Y-97155995D01*
X60062284Y-97131163D01*
X60035140Y-97092333D01*
X60015989Y-97045439D01*
X60007949Y-96996413D01*
X60007877Y-96991605D01*
X60009692Y-96961788D01*
X60014315Y-96941064D01*
X60017613Y-96936085D01*
X60028172Y-96923597D01*
X60041091Y-96901042D01*
X60042606Y-96897917D01*
X60061087Y-96872734D01*
X60089942Y-96847264D01*
X60103305Y-96838319D01*
X60124152Y-96826501D01*
X60143296Y-96818666D01*
X60165563Y-96814001D01*
X60195783Y-96811692D01*
X60238781Y-96810927D01*
X60266386Y-96810870D01*
X60328275Y-96809745D01*
X60370622Y-96806379D01*
X60393277Y-96800787D01*
X60396030Y-96798865D01*
X60402230Y-96781640D01*
X60406208Y-96744681D01*
X60407949Y-96688138D01*
X60408034Y-96669222D01*
X60408334Y-96618080D01*
X60409774Y-96582116D01*
X60413167Y-96556502D01*
X60419326Y-96536410D01*
X60429064Y-96517012D01*
X60435483Y-96506140D01*
X60458739Y-96475288D01*
X60484993Y-96451463D01*
X60495081Y-96445441D01*
X60518311Y-96432613D01*
X60532520Y-96421457D01*
X60533249Y-96420449D01*
X60545760Y-96415218D01*
X60571970Y-96411683D01*
X60598109Y-96410713D01*
X60630674Y-96412248D01*
G37*
G36*
X63449642Y-88816676D02*
G01*
X63499365Y-88841018D01*
X63541966Y-88876956D01*
X63562435Y-88904135D01*
X63589287Y-88948590D01*
X63589097Y-89195780D01*
X63588907Y-89442969D01*
X63559987Y-89489009D01*
X63528312Y-89527832D01*
X63489545Y-89559308D01*
X63485867Y-89561537D01*
X63464483Y-89573165D01*
X63444456Y-89580794D01*
X63420789Y-89585255D01*
X63388483Y-89587382D01*
X63342543Y-89588007D01*
X63326903Y-89588026D01*
X63266646Y-89589185D01*
X63225360Y-89592637D01*
X63203453Y-89598341D01*
X63201134Y-89600031D01*
X63194892Y-89617250D01*
X63190897Y-89653901D01*
X63189193Y-89709530D01*
X63189129Y-89725154D01*
X63188727Y-89775953D01*
X63186957Y-89811938D01*
X63182978Y-89838296D01*
X63175947Y-89860214D01*
X63165021Y-89882878D01*
X63162843Y-89886942D01*
X63126429Y-89935226D01*
X63079652Y-89968065D01*
X63026015Y-89984436D01*
X62969020Y-89983319D01*
X62912171Y-89963692D01*
X62907790Y-89961323D01*
X62866141Y-89930180D01*
X62835261Y-89886934D01*
X62808980Y-89838271D01*
X62809170Y-89595603D01*
X62809360Y-89352934D01*
X62838279Y-89306895D01*
X62869954Y-89268071D01*
X62908721Y-89236596D01*
X62912399Y-89234366D01*
X62933783Y-89222738D01*
X62953810Y-89215110D01*
X62977477Y-89210648D01*
X63009783Y-89208521D01*
X63055724Y-89207896D01*
X63071364Y-89207877D01*
X63131620Y-89206718D01*
X63172906Y-89203267D01*
X63194813Y-89197563D01*
X63197132Y-89195872D01*
X63203333Y-89178647D01*
X63207311Y-89141687D01*
X63209052Y-89085145D01*
X63209137Y-89066229D01*
X63209447Y-89015001D01*
X63210909Y-88978971D01*
X63214317Y-88953332D01*
X63220470Y-88933277D01*
X63230162Y-88913999D01*
X63235989Y-88904135D01*
X63270715Y-88862790D01*
X63316647Y-88830628D01*
X63367369Y-88811441D01*
X63399212Y-88807719D01*
X63449642Y-88816676D01*
G37*
G36*
X61048697Y-93618566D02*
G01*
X61098420Y-93642908D01*
X61141021Y-93678846D01*
X61161490Y-93706026D01*
X61188342Y-93750480D01*
X61188151Y-93997670D01*
X61187961Y-94244860D01*
X61159042Y-94290899D01*
X61127367Y-94329722D01*
X61088600Y-94361198D01*
X61084922Y-94363428D01*
X61063538Y-94375056D01*
X61043511Y-94382684D01*
X61019844Y-94387145D01*
X60987538Y-94389272D01*
X60941597Y-94389898D01*
X60925958Y-94389917D01*
X60865701Y-94391076D01*
X60824415Y-94394527D01*
X60802508Y-94400231D01*
X60800189Y-94401922D01*
X60793947Y-94419140D01*
X60789952Y-94455791D01*
X60788247Y-94511421D01*
X60788184Y-94527044D01*
X60787792Y-94577741D01*
X60786046Y-94613647D01*
X60782084Y-94639975D01*
X60775050Y-94661935D01*
X60764084Y-94684738D01*
X60761359Y-94689830D01*
X60732685Y-94731045D01*
X60701760Y-94755050D01*
X60678319Y-94767945D01*
X60663846Y-94779154D01*
X60662969Y-94780338D01*
X60647375Y-94788601D01*
X60618728Y-94790673D01*
X60582785Y-94787177D01*
X60545306Y-94778736D01*
X60512049Y-94765973D01*
X60507410Y-94763519D01*
X60461531Y-94727912D01*
X60434881Y-94693651D01*
X60408034Y-94649204D01*
X60408224Y-94402014D01*
X60408414Y-94154824D01*
X60437334Y-94108785D01*
X60469009Y-94069962D01*
X60507776Y-94038486D01*
X60511454Y-94036257D01*
X60532838Y-94024628D01*
X60552865Y-94017000D01*
X60576532Y-94012539D01*
X60608838Y-94010412D01*
X60654779Y-94009787D01*
X60670418Y-94009767D01*
X60730675Y-94008608D01*
X60771961Y-94005157D01*
X60793868Y-93999453D01*
X60796187Y-93997763D01*
X60802388Y-93980537D01*
X60806366Y-93943578D01*
X60808107Y-93887035D01*
X60808192Y-93868119D01*
X60808502Y-93816891D01*
X60809963Y-93780861D01*
X60813372Y-93755222D01*
X60819524Y-93735167D01*
X60829217Y-93715890D01*
X60835043Y-93706026D01*
X60869769Y-93664680D01*
X60915701Y-93632519D01*
X60966424Y-93613331D01*
X60998267Y-93609610D01*
X61048697Y-93618566D01*
G37*
G36*
X65088675Y-94836368D02*
G01*
X65133192Y-94870457D01*
X65166954Y-94916328D01*
X65186481Y-94968351D01*
X65189917Y-95000157D01*
X65180596Y-95053168D01*
X65154952Y-95103404D01*
X65116466Y-95145234D01*
X65088675Y-95163946D01*
X65040004Y-95190232D01*
X64726808Y-95190232D01*
X64631520Y-95190461D01*
X64554824Y-95191184D01*
X64495309Y-95192452D01*
X64451565Y-95194317D01*
X64422180Y-95196832D01*
X64405744Y-95200048D01*
X64401607Y-95202237D01*
X64395399Y-95219392D01*
X64391357Y-95256025D01*
X64389523Y-95311716D01*
X64389412Y-95329787D01*
X64389047Y-95380198D01*
X64387562Y-95415490D01*
X64384076Y-95440553D01*
X64377708Y-95460275D01*
X64367578Y-95479544D01*
X64360302Y-95491372D01*
X64328627Y-95530195D01*
X64289860Y-95561671D01*
X64286183Y-95563900D01*
X64240982Y-95590390D01*
X63997667Y-95589822D01*
X63921713Y-95589599D01*
X63862976Y-95589159D01*
X63818665Y-95588250D01*
X63785989Y-95586616D01*
X63762156Y-95584006D01*
X63744375Y-95580165D01*
X63729855Y-95574841D01*
X63715806Y-95567779D01*
X63708105Y-95563529D01*
X63662193Y-95527055D01*
X63629147Y-95477900D01*
X63611524Y-95420533D01*
X63609295Y-95390974D01*
X63611109Y-95361158D01*
X63615733Y-95340434D01*
X63619031Y-95335455D01*
X63629538Y-95322998D01*
X63642522Y-95300361D01*
X63644319Y-95296663D01*
X63669015Y-95265108D01*
X63709539Y-95237065D01*
X63733132Y-95225214D01*
X63754844Y-95217467D01*
X63779888Y-95212962D01*
X63813473Y-95210844D01*
X63860813Y-95210251D01*
X63872325Y-95210240D01*
X63932307Y-95209075D01*
X63973416Y-95205609D01*
X63995199Y-95199886D01*
X63997447Y-95198235D01*
X64003655Y-95181079D01*
X64007697Y-95144447D01*
X64009531Y-95088756D01*
X64009642Y-95070685D01*
X64010007Y-95020274D01*
X64011492Y-94984982D01*
X64014978Y-94959919D01*
X64021346Y-94940197D01*
X64031476Y-94920928D01*
X64038752Y-94909100D01*
X64070427Y-94870277D01*
X64109194Y-94838801D01*
X64112871Y-94836572D01*
X64158072Y-94810082D01*
X64599038Y-94810082D01*
X65040004Y-94810082D01*
X65088675Y-94836368D01*
G37*
G36*
X66289147Y-88834005D02*
G01*
X66333664Y-88868094D01*
X66367427Y-88913965D01*
X66386954Y-88965988D01*
X66390390Y-88997794D01*
X66383563Y-89040147D01*
X66365549Y-89083910D01*
X66340045Y-89122450D01*
X66310749Y-89149131D01*
X66303966Y-89152844D01*
X66280524Y-89165739D01*
X66266051Y-89176948D01*
X66265175Y-89178133D01*
X66253285Y-89181962D01*
X66225262Y-89185057D01*
X66184974Y-89187123D01*
X66136700Y-89187869D01*
X66073438Y-89188929D01*
X66029933Y-89192117D01*
X66006044Y-89197447D01*
X66002237Y-89199874D01*
X65995995Y-89217092D01*
X65992000Y-89253743D01*
X65990295Y-89309373D01*
X65990232Y-89324996D01*
X65989829Y-89375795D01*
X65988060Y-89411781D01*
X65984081Y-89438139D01*
X65977050Y-89460056D01*
X65966124Y-89482720D01*
X65963946Y-89486784D01*
X65927504Y-89535173D01*
X65880766Y-89567995D01*
X65827132Y-89584271D01*
X65770003Y-89583019D01*
X65712778Y-89563259D01*
X65707896Y-89560627D01*
X65670293Y-89533710D01*
X65646188Y-89503776D01*
X65645103Y-89501595D01*
X65632209Y-89478156D01*
X65621001Y-89463686D01*
X65619819Y-89462812D01*
X65615989Y-89450922D01*
X65612895Y-89422898D01*
X65610828Y-89382611D01*
X65610082Y-89334336D01*
X65609022Y-89271075D01*
X65605834Y-89227570D01*
X65600505Y-89203681D01*
X65598078Y-89199874D01*
X65588568Y-89196283D01*
X65567032Y-89193402D01*
X65532066Y-89191181D01*
X65482272Y-89189569D01*
X65416247Y-89188517D01*
X65332590Y-89187973D01*
X65263536Y-89187869D01*
X65171589Y-89187570D01*
X65092702Y-89186702D01*
X65028246Y-89185304D01*
X64979590Y-89183416D01*
X64948104Y-89181081D01*
X64935158Y-89178338D01*
X64934982Y-89178133D01*
X64922575Y-89167710D01*
X64899809Y-89154625D01*
X64895149Y-89152350D01*
X64864333Y-89129254D01*
X64845286Y-89102487D01*
X64832279Y-89078694D01*
X64820978Y-89063788D01*
X64819503Y-89062654D01*
X64813860Y-89049939D01*
X64810346Y-89024261D01*
X64809767Y-89007134D01*
X64816519Y-88958223D01*
X64834696Y-88910847D01*
X64861178Y-88870940D01*
X64892847Y-88844435D01*
X64896191Y-88842744D01*
X64919632Y-88829849D01*
X64934105Y-88818640D01*
X64934982Y-88817455D01*
X64946222Y-88815380D01*
X64976783Y-88813530D01*
X65025981Y-88811916D01*
X65093129Y-88810549D01*
X65177544Y-88809439D01*
X65278539Y-88808595D01*
X65395430Y-88808028D01*
X65527530Y-88807749D01*
X65590738Y-88807719D01*
X66240477Y-88807719D01*
X66289147Y-88834005D01*
G37*
G36*
X64635535Y-90810348D02*
G01*
X64657760Y-90814307D01*
X64664545Y-90818243D01*
X64677032Y-90828802D01*
X64699587Y-90841721D01*
X64702712Y-90843236D01*
X64727895Y-90861717D01*
X64753366Y-90890572D01*
X64762311Y-90903935D01*
X64789759Y-90949378D01*
X64789759Y-91267095D01*
X64789984Y-91363067D01*
X64790693Y-91440442D01*
X64791936Y-91500626D01*
X64793766Y-91545025D01*
X64796233Y-91575046D01*
X64799389Y-91592094D01*
X64801764Y-91596817D01*
X64818675Y-91602915D01*
X64855152Y-91606867D01*
X64911334Y-91608687D01*
X64936227Y-91608822D01*
X64984858Y-91609579D01*
X65025064Y-91611655D01*
X65052975Y-91614757D01*
X65064702Y-91618558D01*
X65077159Y-91629066D01*
X65099796Y-91642049D01*
X65103493Y-91643847D01*
X65133135Y-91666920D01*
X65159823Y-91703355D01*
X65179857Y-91746515D01*
X65189542Y-91789769D01*
X65189917Y-91798897D01*
X65180596Y-91851908D01*
X65154952Y-91902143D01*
X65116466Y-91943973D01*
X65088675Y-91962686D01*
X65040004Y-91988972D01*
X64726808Y-91988972D01*
X64631520Y-91989201D01*
X64554824Y-91989923D01*
X64495309Y-91991191D01*
X64451565Y-91993056D01*
X64422180Y-91995571D01*
X64405744Y-91998787D01*
X64401607Y-92000976D01*
X64395365Y-92018195D01*
X64391370Y-92054846D01*
X64389665Y-92110476D01*
X64389602Y-92126099D01*
X64389199Y-92176898D01*
X64387430Y-92212883D01*
X64383451Y-92239241D01*
X64376420Y-92261159D01*
X64365494Y-92283823D01*
X64363316Y-92287887D01*
X64326902Y-92336171D01*
X64280125Y-92369010D01*
X64226488Y-92385382D01*
X64169493Y-92384265D01*
X64112643Y-92364637D01*
X64108263Y-92362268D01*
X64066614Y-92331125D01*
X64035734Y-92287879D01*
X64009452Y-92239217D01*
X64009642Y-91996548D01*
X64009832Y-91753879D01*
X64038752Y-91707840D01*
X64070427Y-91669017D01*
X64109194Y-91637541D01*
X64112871Y-91635311D01*
X64134255Y-91623683D01*
X64154283Y-91616055D01*
X64177950Y-91611594D01*
X64210256Y-91609467D01*
X64256196Y-91608841D01*
X64271836Y-91608822D01*
X64332093Y-91607663D01*
X64373379Y-91604212D01*
X64395286Y-91598508D01*
X64397605Y-91596817D01*
X64401223Y-91587249D01*
X64404120Y-91565598D01*
X64406347Y-91530458D01*
X64407955Y-91480423D01*
X64408996Y-91414086D01*
X64409521Y-91330041D01*
X64409610Y-91267095D01*
X64409610Y-90949378D01*
X64437058Y-90903935D01*
X64460314Y-90873082D01*
X64486568Y-90849258D01*
X64496657Y-90843236D01*
X64519886Y-90830407D01*
X64534096Y-90819252D01*
X64534824Y-90818243D01*
X64547742Y-90812709D01*
X64573510Y-90809549D01*
X64605113Y-90808761D01*
X64635535Y-90810348D01*
G37*
G36*
X70693105Y-92038279D02*
G01*
X70731928Y-92069954D01*
X70763404Y-92108721D01*
X70765633Y-92112399D01*
X70792123Y-92157599D01*
X70791932Y-92600993D01*
X70791742Y-93044387D01*
X70762823Y-93090426D01*
X70731148Y-93129250D01*
X70692381Y-93160725D01*
X70688703Y-93162955D01*
X70667319Y-93174583D01*
X70647292Y-93182211D01*
X70623625Y-93186673D01*
X70591319Y-93188800D01*
X70545378Y-93189425D01*
X70529739Y-93189444D01*
X70469482Y-93190603D01*
X70428196Y-93194054D01*
X70406289Y-93199758D01*
X70403970Y-93201449D01*
X70400326Y-93211074D01*
X70397414Y-93232835D01*
X70395182Y-93268145D01*
X70393576Y-93318412D01*
X70392546Y-93385050D01*
X70392040Y-93469467D01*
X70391965Y-93526650D01*
X70391965Y-93839847D01*
X70365679Y-93888517D01*
X70329336Y-93936689D01*
X70282615Y-93969525D01*
X70229062Y-93985986D01*
X70172225Y-93985029D01*
X70115651Y-93965614D01*
X70111191Y-93963204D01*
X70065312Y-93927597D01*
X70038662Y-93893336D01*
X70011815Y-93848889D01*
X70011815Y-93331092D01*
X70011695Y-93208096D01*
X70011318Y-93103910D01*
X70010655Y-93017339D01*
X70009680Y-92947187D01*
X70008365Y-92892258D01*
X70006685Y-92851357D01*
X70004611Y-92823288D01*
X70002116Y-92806854D01*
X69999811Y-92801291D01*
X69990243Y-92797674D01*
X69968591Y-92794777D01*
X69933451Y-92792550D01*
X69883416Y-92790941D01*
X69817079Y-92789900D01*
X69733035Y-92789375D01*
X69670088Y-92789287D01*
X69352371Y-92789287D01*
X69306928Y-92761838D01*
X69276076Y-92738582D01*
X69252251Y-92712328D01*
X69246229Y-92702240D01*
X69233401Y-92679010D01*
X69222245Y-92664801D01*
X69221236Y-92664072D01*
X69215702Y-92651154D01*
X69212542Y-92625386D01*
X69211755Y-92593783D01*
X69213341Y-92563361D01*
X69217301Y-92541136D01*
X69221236Y-92534352D01*
X69231796Y-92521865D01*
X69244714Y-92499309D01*
X69246229Y-92496184D01*
X69264710Y-92471001D01*
X69293565Y-92445531D01*
X69306928Y-92436586D01*
X69352371Y-92409137D01*
X69670088Y-92409137D01*
X69766060Y-92408912D01*
X69843435Y-92408204D01*
X69903619Y-92406960D01*
X69948019Y-92405130D01*
X69978039Y-92402663D01*
X69995088Y-92399507D01*
X69999811Y-92397132D01*
X70006047Y-92379912D01*
X70010039Y-92343216D01*
X70011749Y-92287450D01*
X70011815Y-92271364D01*
X70012174Y-92220811D01*
X70013807Y-92185264D01*
X70017545Y-92159726D01*
X70024222Y-92139198D01*
X70034671Y-92118683D01*
X70038305Y-92112399D01*
X70068502Y-92073539D01*
X70107095Y-92040700D01*
X70110833Y-92038279D01*
X70156872Y-92009360D01*
X70401969Y-92009360D01*
X70647065Y-92009360D01*
X70693105Y-92038279D01*
G37*
G36*
X66402821Y-95610588D02*
G01*
X67045648Y-95610778D01*
X67091687Y-95639697D01*
X67130510Y-95671372D01*
X67161986Y-95710139D01*
X67164215Y-95713817D01*
X67175843Y-95735201D01*
X67183472Y-95755228D01*
X67187933Y-95778895D01*
X67190060Y-95811201D01*
X67190685Y-95857142D01*
X67190705Y-95872781D01*
X67191864Y-95933038D01*
X67195315Y-95974324D01*
X67201019Y-95996231D01*
X67202709Y-95998550D01*
X67219865Y-96004758D01*
X67256497Y-96008799D01*
X67312188Y-96010634D01*
X67330260Y-96010745D01*
X67380670Y-96011110D01*
X67415963Y-96012595D01*
X67441026Y-96016081D01*
X67460747Y-96022449D01*
X67480016Y-96032579D01*
X67491844Y-96039854D01*
X67530668Y-96071530D01*
X67562143Y-96110297D01*
X67564373Y-96113974D01*
X67590862Y-96159175D01*
X67590862Y-96400709D01*
X67590862Y-96642242D01*
X67564373Y-96687443D01*
X67534176Y-96726302D01*
X67495583Y-96759142D01*
X67491844Y-96761563D01*
X67445805Y-96790482D01*
X67130181Y-96790672D01*
X67034463Y-96790958D01*
X66957348Y-96791722D01*
X66897436Y-96793017D01*
X66853324Y-96794896D01*
X66823614Y-96797410D01*
X66806904Y-96800611D01*
X66802552Y-96802867D01*
X66796310Y-96820085D01*
X66792315Y-96856736D01*
X66790611Y-96912366D01*
X66790547Y-96927989D01*
X66790145Y-96978789D01*
X66788375Y-97014774D01*
X66784396Y-97041132D01*
X66777365Y-97063049D01*
X66766439Y-97085714D01*
X66764261Y-97089777D01*
X66727847Y-97138062D01*
X66681070Y-97170901D01*
X66627433Y-97187272D01*
X66570438Y-97186155D01*
X66513588Y-97166528D01*
X66509208Y-97164159D01*
X66467559Y-97133016D01*
X66436679Y-97089770D01*
X66410397Y-97041107D01*
X66410588Y-96798438D01*
X66410778Y-96555770D01*
X66439697Y-96509730D01*
X66471372Y-96470907D01*
X66510139Y-96439431D01*
X66513817Y-96437202D01*
X66535201Y-96425574D01*
X66555228Y-96417945D01*
X66578895Y-96413484D01*
X66611201Y-96411357D01*
X66657142Y-96410732D01*
X66672781Y-96410713D01*
X66733038Y-96409553D01*
X66774324Y-96406102D01*
X66796231Y-96400398D01*
X66798550Y-96398708D01*
X66803046Y-96384385D01*
X66806563Y-96354002D01*
X66809100Y-96311486D01*
X66810659Y-96260760D01*
X66811238Y-96205749D01*
X66810838Y-96150379D01*
X66809459Y-96098574D01*
X66807101Y-96054259D01*
X66803764Y-96021358D01*
X66799448Y-96003797D01*
X66798550Y-96002552D01*
X66790506Y-95999691D01*
X66771759Y-95997276D01*
X66741109Y-95995279D01*
X66697358Y-95993674D01*
X66639303Y-95992432D01*
X66565746Y-95991527D01*
X66475487Y-95990930D01*
X66367325Y-95990615D01*
X66273270Y-95990547D01*
X65759995Y-95990547D01*
X65711325Y-95964261D01*
X65666808Y-95930172D01*
X65633045Y-95884301D01*
X65613518Y-95832279D01*
X65610082Y-95800472D01*
X65619404Y-95747462D01*
X65645048Y-95697226D01*
X65683533Y-95655396D01*
X65711325Y-95636683D01*
X65759995Y-95610397D01*
X66402821Y-95610588D01*
G37*
G36*
X60684765Y-95236729D02*
G01*
X60723624Y-95266926D01*
X60756463Y-95305519D01*
X60758885Y-95309258D01*
X60771391Y-95330293D01*
X60779663Y-95349165D01*
X60784583Y-95370760D01*
X60787030Y-95399968D01*
X60787885Y-95441677D01*
X60787994Y-95470842D01*
X60789231Y-95531560D01*
X60792686Y-95573330D01*
X60798318Y-95595736D01*
X60800189Y-95598393D01*
X60814512Y-95602889D01*
X60844894Y-95606405D01*
X60887411Y-95608943D01*
X60938136Y-95610501D01*
X60993147Y-95611080D01*
X61048517Y-95610681D01*
X61100322Y-95609302D01*
X61144638Y-95606944D01*
X61177538Y-95603606D01*
X61195099Y-95599290D01*
X61196345Y-95598393D01*
X61202442Y-95581482D01*
X61206395Y-95545005D01*
X61208214Y-95488823D01*
X61208349Y-95463930D01*
X61209107Y-95415299D01*
X61211183Y-95375093D01*
X61214284Y-95347182D01*
X61218086Y-95335455D01*
X61228509Y-95323048D01*
X61241593Y-95300282D01*
X61243868Y-95295621D01*
X61266964Y-95264806D01*
X61293731Y-95245759D01*
X61317524Y-95232751D01*
X61332430Y-95221451D01*
X61333564Y-95219976D01*
X61346482Y-95214442D01*
X61372250Y-95211282D01*
X61403853Y-95210494D01*
X61434275Y-95212081D01*
X61456500Y-95216040D01*
X61463284Y-95219976D01*
X61475772Y-95230535D01*
X61498327Y-95243454D01*
X61501452Y-95244969D01*
X61526635Y-95263450D01*
X61552105Y-95292305D01*
X61561051Y-95305668D01*
X61588499Y-95351111D01*
X61588499Y-95668828D01*
X61588724Y-95764800D01*
X61589432Y-95842175D01*
X61590676Y-95902359D01*
X61592506Y-95946758D01*
X61594973Y-95976779D01*
X61598129Y-95993827D01*
X61600504Y-95998550D01*
X61610129Y-96002194D01*
X61631890Y-96005106D01*
X61667199Y-96007338D01*
X61717467Y-96008944D01*
X61784104Y-96009974D01*
X61868522Y-96010480D01*
X61925705Y-96010555D01*
X62238902Y-96010555D01*
X62287572Y-96036841D01*
X62332089Y-96070930D01*
X62365851Y-96116801D01*
X62385379Y-96168823D01*
X62388814Y-96200630D01*
X62379493Y-96253640D01*
X62353849Y-96303876D01*
X62315363Y-96345706D01*
X62287572Y-96364419D01*
X62238902Y-96390705D01*
X61796154Y-96390515D01*
X61353406Y-96390324D01*
X61307367Y-96361405D01*
X61268544Y-96329730D01*
X61237068Y-96290963D01*
X61234839Y-96287285D01*
X61223211Y-96265901D01*
X61215582Y-96245874D01*
X61211121Y-96222207D01*
X61208994Y-96189901D01*
X61208369Y-96143960D01*
X61208349Y-96128321D01*
X61207190Y-96068064D01*
X61203739Y-96026778D01*
X61198035Y-96004871D01*
X61196345Y-96002552D01*
X61188304Y-95999693D01*
X61169563Y-95997279D01*
X61138922Y-95995283D01*
X61095184Y-95993678D01*
X61037147Y-95992436D01*
X60963613Y-95991530D01*
X60873383Y-95990933D01*
X60765256Y-95990616D01*
X60670418Y-95990547D01*
X60156497Y-95990547D01*
X60111296Y-95964058D01*
X60072437Y-95933861D01*
X60039597Y-95895268D01*
X60037176Y-95891529D01*
X60008257Y-95845490D01*
X60008257Y-95600393D01*
X60008257Y-95355297D01*
X60037176Y-95309258D01*
X60068852Y-95270434D01*
X60107618Y-95238959D01*
X60111296Y-95236729D01*
X60156497Y-95210240D01*
X60398030Y-95210240D01*
X60639564Y-95210240D01*
X60684765Y-95236729D01*
G37*
G36*
X65891214Y-96440012D02*
G01*
X65930037Y-96471687D01*
X65961513Y-96510454D01*
X65963743Y-96514132D01*
X65990232Y-96559332D01*
X65990042Y-97002726D01*
X65989852Y-97446120D01*
X65960933Y-97492159D01*
X65929257Y-97530983D01*
X65890490Y-97562458D01*
X65886813Y-97564688D01*
X65865429Y-97576316D01*
X65845402Y-97583944D01*
X65821734Y-97588406D01*
X65789429Y-97590533D01*
X65743488Y-97591158D01*
X65727848Y-97591177D01*
X65667591Y-97592336D01*
X65626305Y-97595787D01*
X65604398Y-97601491D01*
X65602079Y-97603182D01*
X65595871Y-97620338D01*
X65591830Y-97656970D01*
X65589996Y-97712661D01*
X65589884Y-97730732D01*
X65589520Y-97781143D01*
X65588035Y-97816435D01*
X65584549Y-97841498D01*
X65578181Y-97861220D01*
X65568051Y-97880489D01*
X65560775Y-97892317D01*
X65529100Y-97931140D01*
X65490333Y-97962616D01*
X65486655Y-97964845D01*
X65441455Y-97991335D01*
X64792980Y-97990560D01*
X64144505Y-97989786D01*
X64102989Y-97963764D01*
X64059866Y-97925670D01*
X64028274Y-97875241D01*
X64011398Y-97818329D01*
X64009452Y-97791920D01*
X64011267Y-97762103D01*
X64015890Y-97741379D01*
X64019188Y-97736400D01*
X64029612Y-97723993D01*
X64042696Y-97701227D01*
X64044971Y-97696567D01*
X64068067Y-97665751D01*
X64094834Y-97646704D01*
X64118627Y-97633696D01*
X64133533Y-97622396D01*
X64134667Y-97620921D01*
X64146557Y-97617092D01*
X64174580Y-97613997D01*
X64214868Y-97611931D01*
X64263142Y-97611185D01*
X64326403Y-97610125D01*
X64369909Y-97606937D01*
X64393798Y-97601607D01*
X64397605Y-97599180D01*
X64400464Y-97591139D01*
X64402878Y-97572398D01*
X64404874Y-97541758D01*
X64406479Y-97498020D01*
X64407721Y-97439983D01*
X64408200Y-97401102D01*
X64789759Y-97401102D01*
X64790255Y-97475434D01*
X64791797Y-97531146D01*
X64794468Y-97569605D01*
X64798351Y-97592174D01*
X64801764Y-97599180D01*
X64814210Y-97603944D01*
X64841607Y-97607439D01*
X64885320Y-97609748D01*
X64946714Y-97610953D01*
X64999842Y-97611185D01*
X65074174Y-97610690D01*
X65129886Y-97609147D01*
X65168344Y-97606476D01*
X65190914Y-97602593D01*
X65197920Y-97599180D01*
X65202684Y-97586735D01*
X65206179Y-97559338D01*
X65208487Y-97515625D01*
X65209693Y-97454230D01*
X65209925Y-97401102D01*
X65209429Y-97326771D01*
X65207887Y-97271058D01*
X65205216Y-97232600D01*
X65201333Y-97210031D01*
X65197920Y-97203024D01*
X65185474Y-97198261D01*
X65158077Y-97194766D01*
X65114364Y-97192457D01*
X65052970Y-97191252D01*
X64999842Y-97191020D01*
X64925510Y-97191515D01*
X64869798Y-97193057D01*
X64831340Y-97195729D01*
X64808770Y-97199612D01*
X64801764Y-97203024D01*
X64797000Y-97215470D01*
X64793506Y-97242867D01*
X64791197Y-97286580D01*
X64789991Y-97347975D01*
X64789759Y-97401102D01*
X64408200Y-97401102D01*
X64408627Y-97366449D01*
X64409224Y-97276219D01*
X64409540Y-97168092D01*
X64409610Y-97073254D01*
X64409610Y-96559332D01*
X64436099Y-96514132D01*
X64466296Y-96475272D01*
X64504889Y-96442433D01*
X64508628Y-96440012D01*
X64554667Y-96411093D01*
X65199921Y-96411093D01*
X65845175Y-96411093D01*
X65891214Y-96440012D01*
G37*
G36*
X61037424Y-92010794D02*
G01*
X61058147Y-92015418D01*
X61063127Y-92018716D01*
X61075614Y-92029275D01*
X61098169Y-92042193D01*
X61101294Y-92043708D01*
X61126477Y-92062189D01*
X61151948Y-92091044D01*
X61160893Y-92104407D01*
X61172710Y-92125255D01*
X61180545Y-92144399D01*
X61185211Y-92166666D01*
X61187520Y-92196885D01*
X61188284Y-92239884D01*
X61188342Y-92267489D01*
X61189467Y-92329378D01*
X61192832Y-92371725D01*
X61198425Y-92394380D01*
X61200346Y-92397132D01*
X61217257Y-92403230D01*
X61253734Y-92407182D01*
X61309916Y-92409002D01*
X61334809Y-92409137D01*
X61383440Y-92409894D01*
X61423646Y-92411970D01*
X61451557Y-92415072D01*
X61463284Y-92418873D01*
X61475741Y-92429381D01*
X61498378Y-92442364D01*
X61502076Y-92444162D01*
X61531718Y-92467235D01*
X61558405Y-92503670D01*
X61578439Y-92546830D01*
X61588124Y-92590084D01*
X61588499Y-92599212D01*
X61579178Y-92652223D01*
X61553534Y-92702458D01*
X61515048Y-92744289D01*
X61487257Y-92763001D01*
X61463988Y-92774632D01*
X61442301Y-92782233D01*
X61417007Y-92786646D01*
X61382920Y-92788714D01*
X61334854Y-92789279D01*
X61325469Y-92789287D01*
X61265487Y-92790452D01*
X61224377Y-92793917D01*
X61202595Y-92799640D01*
X61200346Y-92801291D01*
X61194104Y-92818510D01*
X61190109Y-92855161D01*
X61188405Y-92910791D01*
X61188342Y-92926414D01*
X61187939Y-92977213D01*
X61186170Y-93013198D01*
X61182191Y-93039556D01*
X61175159Y-93061474D01*
X61164233Y-93084138D01*
X61162055Y-93088202D01*
X61125613Y-93136591D01*
X61078875Y-93169413D01*
X61025242Y-93185688D01*
X60968113Y-93184437D01*
X60910888Y-93164677D01*
X60906005Y-93162044D01*
X60868402Y-93135127D01*
X60844298Y-93105194D01*
X60843213Y-93103013D01*
X60830319Y-93079574D01*
X60819110Y-93065104D01*
X60817928Y-93064230D01*
X60814099Y-93052340D01*
X60811004Y-93024316D01*
X60808937Y-92984029D01*
X60808192Y-92935754D01*
X60807132Y-92872493D01*
X60803943Y-92828988D01*
X60798614Y-92805099D01*
X60796187Y-92801291D01*
X60778962Y-92795091D01*
X60742002Y-92791113D01*
X60685460Y-92789372D01*
X60666544Y-92789287D01*
X60615316Y-92788977D01*
X60579286Y-92787515D01*
X60553647Y-92784107D01*
X60533592Y-92777954D01*
X60514314Y-92768262D01*
X60504450Y-92762435D01*
X60463105Y-92727709D01*
X60430944Y-92681777D01*
X60411756Y-92631055D01*
X60408034Y-92599212D01*
X60414861Y-92556859D01*
X60432875Y-92513096D01*
X60458379Y-92474556D01*
X60487675Y-92447875D01*
X60494458Y-92444162D01*
X60517899Y-92431267D01*
X60532372Y-92420058D01*
X60533249Y-92418873D01*
X60545139Y-92415044D01*
X60573162Y-92411949D01*
X60613450Y-92409883D01*
X60661724Y-92409137D01*
X60724985Y-92408077D01*
X60768491Y-92404889D01*
X60792380Y-92399559D01*
X60796187Y-92397132D01*
X60802429Y-92379914D01*
X60806424Y-92343263D01*
X60808128Y-92287633D01*
X60808192Y-92272010D01*
X60808594Y-92221211D01*
X60810364Y-92185225D01*
X60814343Y-92158867D01*
X60821374Y-92136950D01*
X60832300Y-92114286D01*
X60834478Y-92110222D01*
X60871026Y-92062644D01*
X60920095Y-92028886D01*
X60977914Y-92011152D01*
X61007607Y-92008980D01*
X61037424Y-92010794D01*
G37*
G36*
X63886025Y-96437202D02*
G01*
X63924884Y-96467399D01*
X63957724Y-96505992D01*
X63960145Y-96509730D01*
X63989064Y-96555770D01*
X63989254Y-96998517D01*
X63989444Y-97441265D01*
X63963158Y-97489935D01*
X63926744Y-97538219D01*
X63879967Y-97571058D01*
X63826330Y-97587430D01*
X63769335Y-97586313D01*
X63712486Y-97566685D01*
X63708105Y-97564316D01*
X63666456Y-97533173D01*
X63635577Y-97489927D01*
X63623947Y-97466661D01*
X63616347Y-97444974D01*
X63611935Y-97419678D01*
X63609867Y-97385588D01*
X63609302Y-97337515D01*
X63609295Y-97328147D01*
X63608130Y-97268165D01*
X63604664Y-97227056D01*
X63598941Y-97205273D01*
X63597290Y-97203024D01*
X63590451Y-97200864D01*
X63573890Y-97198955D01*
X63546672Y-97197285D01*
X63507863Y-97195841D01*
X63456528Y-97194613D01*
X63391732Y-97193588D01*
X63312541Y-97192753D01*
X63218019Y-97192097D01*
X63107232Y-97191608D01*
X62979245Y-97191273D01*
X62833123Y-97191081D01*
X62667931Y-97191020D01*
X62667331Y-97191020D01*
X61749378Y-97191020D01*
X61703935Y-97163571D01*
X61673082Y-97140315D01*
X61649258Y-97114061D01*
X61643236Y-97103973D01*
X61630407Y-97080743D01*
X61619252Y-97066534D01*
X61618243Y-97065805D01*
X61612811Y-97053195D01*
X61609277Y-97027236D01*
X61608507Y-97005764D01*
X61618024Y-96945334D01*
X61645450Y-96891875D01*
X61689099Y-96848313D01*
X61705466Y-96837394D01*
X61749378Y-96810870D01*
X62067095Y-96810870D01*
X62163067Y-96810645D01*
X62240442Y-96809937D01*
X62300626Y-96808693D01*
X62345025Y-96806863D01*
X62375046Y-96804396D01*
X62392094Y-96801240D01*
X62396817Y-96798865D01*
X62403018Y-96781640D01*
X62406996Y-96744681D01*
X62408737Y-96688138D01*
X62408822Y-96669222D01*
X62409121Y-96618080D01*
X62410562Y-96582116D01*
X62413955Y-96556502D01*
X62420114Y-96536410D01*
X62429851Y-96517012D01*
X62436270Y-96506140D01*
X62459527Y-96475288D01*
X62485781Y-96451463D01*
X62495869Y-96445441D01*
X62519099Y-96432613D01*
X62533308Y-96421457D01*
X62534037Y-96420449D01*
X62546752Y-96414805D01*
X62572430Y-96411291D01*
X62589557Y-96410713D01*
X62649094Y-96420099D01*
X62703525Y-96446386D01*
X62747819Y-96486762D01*
X62762120Y-96507128D01*
X62773696Y-96527652D01*
X62781368Y-96546755D01*
X62785932Y-96569245D01*
X62788184Y-96599929D01*
X62788922Y-96643613D01*
X62788972Y-96669222D01*
X62790097Y-96731111D01*
X62793462Y-96773458D01*
X62799055Y-96796113D01*
X62800976Y-96798865D01*
X62815300Y-96803361D01*
X62845682Y-96806878D01*
X62888198Y-96809415D01*
X62938924Y-96810974D01*
X62993935Y-96811553D01*
X63049305Y-96811153D01*
X63101110Y-96809774D01*
X63145425Y-96807416D01*
X63178326Y-96804079D01*
X63195887Y-96799763D01*
X63197132Y-96798865D01*
X63203340Y-96781710D01*
X63207381Y-96745077D01*
X63209216Y-96689387D01*
X63209327Y-96671315D01*
X63209692Y-96620905D01*
X63211177Y-96585612D01*
X63214663Y-96560549D01*
X63221031Y-96540827D01*
X63231161Y-96521558D01*
X63238437Y-96509730D01*
X63270112Y-96470907D01*
X63308879Y-96439431D01*
X63312556Y-96437202D01*
X63357757Y-96410713D01*
X63599291Y-96410713D01*
X63840824Y-96410713D01*
X63886025Y-96437202D01*
G37*
G36*
X63490269Y-97640485D02*
G01*
X63529092Y-97672160D01*
X63560568Y-97710927D01*
X63562797Y-97714604D01*
X63574426Y-97735988D01*
X63582054Y-97756015D01*
X63586515Y-97779683D01*
X63588642Y-97811989D01*
X63589267Y-97857929D01*
X63589287Y-97873569D01*
X63590446Y-97933826D01*
X63593897Y-97975112D01*
X63599601Y-97997019D01*
X63601291Y-97999338D01*
X63618447Y-98005546D01*
X63655079Y-98009587D01*
X63710770Y-98011421D01*
X63728842Y-98011533D01*
X63779252Y-98011897D01*
X63814545Y-98013383D01*
X63839608Y-98016869D01*
X63859329Y-98023236D01*
X63878598Y-98033366D01*
X63890426Y-98040642D01*
X63929250Y-98072318D01*
X63960725Y-98111084D01*
X63962955Y-98114762D01*
X63974583Y-98136146D01*
X63982211Y-98156173D01*
X63986673Y-98179841D01*
X63988800Y-98212146D01*
X63989425Y-98258087D01*
X63989444Y-98273727D01*
X63990603Y-98333983D01*
X63994054Y-98375270D01*
X63999758Y-98397176D01*
X64001449Y-98399495D01*
X64018669Y-98405732D01*
X64055366Y-98409724D01*
X64111131Y-98411434D01*
X64127218Y-98411500D01*
X64177770Y-98411859D01*
X64213317Y-98413492D01*
X64238856Y-98417230D01*
X64259384Y-98423907D01*
X64279898Y-98434356D01*
X64286183Y-98437990D01*
X64325042Y-98468187D01*
X64357881Y-98506780D01*
X64360302Y-98510518D01*
X64372809Y-98531554D01*
X64381081Y-98550425D01*
X64386001Y-98572020D01*
X64388447Y-98601228D01*
X64389302Y-98642937D01*
X64389412Y-98672103D01*
X64390649Y-98732820D01*
X64394104Y-98774591D01*
X64399736Y-98796996D01*
X64401607Y-98799653D01*
X64408880Y-98802078D01*
X64426216Y-98804185D01*
X64454653Y-98805990D01*
X64495233Y-98807512D01*
X64548995Y-98808767D01*
X64616980Y-98809772D01*
X64700227Y-98810544D01*
X64799778Y-98811100D01*
X64916672Y-98811458D01*
X65051949Y-98811633D01*
X65136306Y-98811658D01*
X65283494Y-98811792D01*
X65415578Y-98812189D01*
X65531936Y-98812841D01*
X65631947Y-98813739D01*
X65714989Y-98814874D01*
X65780441Y-98816240D01*
X65827680Y-98817827D01*
X65856085Y-98819627D01*
X65865017Y-98821394D01*
X65877474Y-98831901D01*
X65900111Y-98844885D01*
X65903808Y-98846682D01*
X65933451Y-98869756D01*
X65960138Y-98906190D01*
X65980172Y-98949351D01*
X65989857Y-98992605D01*
X65990232Y-99001733D01*
X65980911Y-99054743D01*
X65955267Y-99104979D01*
X65916781Y-99146809D01*
X65888990Y-99165521D01*
X65865721Y-99177153D01*
X65844034Y-99184754D01*
X65818740Y-99189167D01*
X65784653Y-99191235D01*
X65736587Y-99191800D01*
X65727202Y-99191807D01*
X65667220Y-99192972D01*
X65626110Y-99196438D01*
X65604328Y-99202161D01*
X65602079Y-99203812D01*
X65595837Y-99221031D01*
X65591842Y-99257682D01*
X65590138Y-99313311D01*
X65590074Y-99328935D01*
X65589672Y-99379734D01*
X65587903Y-99415719D01*
X65583924Y-99442077D01*
X65576892Y-99463995D01*
X65565966Y-99486659D01*
X65563788Y-99490723D01*
X65527240Y-99538300D01*
X65478171Y-99572059D01*
X65420353Y-99589792D01*
X65390659Y-99591965D01*
X65360843Y-99590150D01*
X65340119Y-99585527D01*
X65335139Y-99582229D01*
X65322683Y-99571721D01*
X65300046Y-99558738D01*
X65296348Y-99556940D01*
X65264793Y-99532245D01*
X65236750Y-99491720D01*
X65224899Y-99468128D01*
X65217151Y-99446415D01*
X65212647Y-99421372D01*
X65210528Y-99387786D01*
X65209936Y-99340446D01*
X65209925Y-99328935D01*
X65208760Y-99268953D01*
X65205294Y-99227843D01*
X65199571Y-99206061D01*
X65197920Y-99203812D01*
X65185470Y-99201157D01*
X65155174Y-99198804D01*
X65109192Y-99196755D01*
X65049683Y-99195008D01*
X64978808Y-99193565D01*
X64898724Y-99192425D01*
X64811593Y-99191587D01*
X64719574Y-99191053D01*
X64624826Y-99190821D01*
X64529510Y-99190893D01*
X64435784Y-99191268D01*
X64345808Y-99191946D01*
X64261742Y-99192926D01*
X64185747Y-99194210D01*
X64119980Y-99195797D01*
X64066602Y-99197687D01*
X64027773Y-99199880D01*
X64005652Y-99202375D01*
X64001449Y-99203812D01*
X63995207Y-99221031D01*
X63991212Y-99257682D01*
X63989508Y-99313311D01*
X63989444Y-99328935D01*
X63989042Y-99379734D01*
X63987272Y-99415719D01*
X63983293Y-99442077D01*
X63976262Y-99463995D01*
X63965336Y-99486659D01*
X63963158Y-99490723D01*
X63926610Y-99538300D01*
X63877541Y-99572059D01*
X63819723Y-99589792D01*
X63790029Y-99591965D01*
X63760212Y-99590150D01*
X63739489Y-99585527D01*
X63734509Y-99582229D01*
X63722053Y-99571721D01*
X63699416Y-99558738D01*
X63695718Y-99556940D01*
X63664163Y-99532245D01*
X63636119Y-99491720D01*
X63624269Y-99468128D01*
X63616521Y-99446415D01*
X63612017Y-99421372D01*
X63609898Y-99387786D01*
X63609306Y-99340446D01*
X63609295Y-99328935D01*
X63608130Y-99268953D01*
X63604664Y-99227843D01*
X63598941Y-99206061D01*
X63597290Y-99203812D01*
X63587781Y-99200221D01*
X63566244Y-99197341D01*
X63531279Y-99195119D01*
X63481484Y-99193508D01*
X63415459Y-99192455D01*
X63331802Y-99191912D01*
X63262748Y-99191807D01*
X63170801Y-99191509D01*
X63091914Y-99190640D01*
X63027458Y-99189242D01*
X62978803Y-99187355D01*
X62947317Y-99185020D01*
X62934370Y-99182277D01*
X62934194Y-99182071D01*
X62921738Y-99171564D01*
X62899101Y-99158580D01*
X62895403Y-99156783D01*
X62863386Y-99131950D01*
X62836243Y-99093121D01*
X62817092Y-99046226D01*
X62809052Y-98997201D01*
X62808980Y-98992392D01*
X62810794Y-98962576D01*
X62815418Y-98941852D01*
X62818716Y-98936872D01*
X62829139Y-98924466D01*
X62842223Y-98901700D01*
X62844499Y-98897039D01*
X62867594Y-98866224D01*
X62894361Y-98847177D01*
X62918154Y-98834169D01*
X62933060Y-98822869D01*
X62934194Y-98821394D01*
X62945797Y-98818624D01*
X62976035Y-98816259D01*
X63023538Y-98814339D01*
X63086936Y-98812906D01*
X63164861Y-98811999D01*
X63255942Y-98811659D01*
X63262748Y-98811658D01*
X63359445Y-98811437D01*
X63437540Y-98810743D01*
X63498433Y-98809524D01*
X63543526Y-98807731D01*
X63574219Y-98805313D01*
X63591915Y-98802219D01*
X63597290Y-98799653D01*
X63601786Y-98785330D01*
X63605302Y-98754948D01*
X63607840Y-98712431D01*
X63609398Y-98661705D01*
X63609978Y-98606695D01*
X63609578Y-98551325D01*
X63608199Y-98499519D01*
X63605841Y-98455204D01*
X63602504Y-98422304D01*
X63598187Y-98404743D01*
X63597290Y-98403497D01*
X63587673Y-98399857D01*
X63565928Y-98396947D01*
X63530643Y-98394716D01*
X63480409Y-98393110D01*
X63413815Y-98392078D01*
X63329451Y-98391569D01*
X63271442Y-98391492D01*
X62957599Y-98391492D01*
X62912399Y-98365003D01*
X62873539Y-98334806D01*
X62840700Y-98296213D01*
X62838279Y-98292474D01*
X62809360Y-98246435D01*
X62809170Y-98003120D01*
X62808980Y-97759805D01*
X62835469Y-97714604D01*
X62865666Y-97675745D01*
X62904259Y-97642906D01*
X62907997Y-97640485D01*
X62954037Y-97611565D01*
X63199133Y-97611565D01*
X63444230Y-97611565D01*
X63490269Y-97640485D01*
G37*
G36*
X69916199Y-88808231D02*
G01*
X70012539Y-88808398D01*
X70092632Y-88808754D01*
X70158360Y-88809363D01*
X70211604Y-88810290D01*
X70254244Y-88811600D01*
X70288162Y-88813355D01*
X70315237Y-88815620D01*
X70337352Y-88818460D01*
X70356386Y-88821939D01*
X70374220Y-88826120D01*
X70381284Y-88827963D01*
X70420043Y-88837564D01*
X70453478Y-88844593D01*
X70475043Y-88847692D01*
X70476597Y-88847735D01*
X70501722Y-88853418D01*
X70517289Y-88861463D01*
X70540880Y-88873097D01*
X70570802Y-88882358D01*
X70572036Y-88882626D01*
X70598393Y-88889812D01*
X70616215Y-88897479D01*
X70617282Y-88898249D01*
X70631061Y-88906963D01*
X70656717Y-88921474D01*
X70684324Y-88936320D01*
X70744415Y-88973221D01*
X70809830Y-89022324D01*
X70875106Y-89078980D01*
X70934779Y-89138542D01*
X70970568Y-89179821D01*
X70999893Y-89219128D01*
X71030412Y-89264793D01*
X71059874Y-89312866D01*
X71086033Y-89359398D01*
X71106638Y-89400440D01*
X71119443Y-89432043D01*
X71122571Y-89446792D01*
X71128607Y-89467289D01*
X71137577Y-89482396D01*
X71149384Y-89506665D01*
X71152264Y-89523088D01*
X71154770Y-89542847D01*
X71161382Y-89575273D01*
X71170739Y-89613789D01*
X71172037Y-89618715D01*
X71176511Y-89636592D01*
X71180257Y-89654933D01*
X71183339Y-89675617D01*
X71185822Y-89700526D01*
X71187769Y-89731541D01*
X71189245Y-89770542D01*
X71190314Y-89819411D01*
X71191041Y-89880027D01*
X71191488Y-89954272D01*
X71191721Y-90044027D01*
X71191804Y-90151173D01*
X71191809Y-90198267D01*
X71191768Y-90312733D01*
X71191601Y-90409073D01*
X71191246Y-90489166D01*
X71190636Y-90554894D01*
X71189709Y-90608138D01*
X71188400Y-90650778D01*
X71186644Y-90684696D01*
X71184379Y-90711771D01*
X71181539Y-90733886D01*
X71178060Y-90752920D01*
X71173879Y-90770754D01*
X71172037Y-90777819D01*
X71162432Y-90816634D01*
X71155402Y-90850184D01*
X71152307Y-90871889D01*
X71152264Y-90873445D01*
X71146287Y-90898450D01*
X71137577Y-90914137D01*
X71125812Y-90935594D01*
X71122571Y-90949038D01*
X71117879Y-90965086D01*
X71105611Y-90993970D01*
X71087974Y-91031076D01*
X71067179Y-91071791D01*
X71045435Y-91111500D01*
X71041530Y-91118290D01*
X70997331Y-91183259D01*
X70939788Y-91251174D01*
X70873361Y-91317874D01*
X70802512Y-91379203D01*
X70731701Y-91431001D01*
X70665389Y-91469109D01*
X70664987Y-91469301D01*
X70638744Y-91483005D01*
X70621018Y-91494507D01*
X70617578Y-91497929D01*
X70605086Y-91505222D01*
X70581001Y-91512289D01*
X70575158Y-91513477D01*
X70544565Y-91521990D01*
X70519575Y-91533439D01*
X70517800Y-91534619D01*
X70493184Y-91545963D01*
X70476597Y-91548798D01*
X70457004Y-91551302D01*
X70424710Y-91557909D01*
X70386264Y-91567259D01*
X70381284Y-91568571D01*
X70363542Y-91573020D01*
X70345411Y-91576744D01*
X70325023Y-91579803D01*
X70300508Y-91582259D01*
X70269997Y-91584171D01*
X70231623Y-91585601D01*
X70183516Y-91586608D01*
X70123807Y-91587255D01*
X70050628Y-91587600D01*
X69962109Y-91587706D01*
X69856382Y-91587633D01*
X69796731Y-91587549D01*
X69681104Y-91587317D01*
X69583655Y-91586973D01*
X69502554Y-91586455D01*
X69435971Y-91585703D01*
X69382075Y-91584656D01*
X69339036Y-91583252D01*
X69305025Y-91581432D01*
X69278211Y-91579135D01*
X69256764Y-91576299D01*
X69238854Y-91572864D01*
X69222651Y-91568770D01*
X69221504Y-91568449D01*
X69184573Y-91558877D01*
X69152531Y-91552008D01*
X69133933Y-91549471D01*
X69110778Y-91544368D01*
X69081431Y-91532541D01*
X69074058Y-91528790D01*
X69047084Y-91516016D01*
X69025631Y-91508713D01*
X69021574Y-91508118D01*
X69005042Y-91502931D01*
X68978309Y-91490251D01*
X68956400Y-91478143D01*
X68923921Y-91459519D01*
X68894601Y-91443385D01*
X68881370Y-91436521D01*
X68840269Y-91411157D01*
X68791434Y-91372923D01*
X68738501Y-91325407D01*
X68685109Y-91272201D01*
X68634894Y-91216895D01*
X68591496Y-91163078D01*
X68563966Y-91123250D01*
X68549415Y-91097776D01*
X68531922Y-91063989D01*
X68513908Y-91027007D01*
X68497792Y-90991951D01*
X68485994Y-90963940D01*
X68480936Y-90948094D01*
X68480895Y-90947512D01*
X68474948Y-90928966D01*
X68465889Y-90914137D01*
X68454081Y-90889869D01*
X68451201Y-90873445D01*
X68448695Y-90853687D01*
X68442083Y-90821260D01*
X68432726Y-90782744D01*
X68431428Y-90777819D01*
X68426979Y-90760037D01*
X68423248Y-90741769D01*
X68420171Y-90721147D01*
X68417684Y-90696307D01*
X68415724Y-90665382D01*
X68414227Y-90626506D01*
X68413129Y-90577813D01*
X68412366Y-90517437D01*
X68411875Y-90443512D01*
X68411592Y-90354172D01*
X68411454Y-90247551D01*
X68411421Y-90192021D01*
X68411425Y-90177519D01*
X68792015Y-90177519D01*
X68792097Y-90267964D01*
X68792442Y-90356536D01*
X68793050Y-90440803D01*
X68793922Y-90518337D01*
X68795057Y-90586708D01*
X68796455Y-90643486D01*
X68798114Y-90686241D01*
X68800036Y-90712544D01*
X68801014Y-90718471D01*
X68815121Y-90767038D01*
X68830492Y-90811653D01*
X68845209Y-90847231D01*
X68857354Y-90868685D01*
X68857879Y-90869318D01*
X68869040Y-90887028D01*
X68871366Y-90895652D01*
X68878593Y-90914122D01*
X68898118Y-90941972D01*
X68926708Y-90975967D01*
X68961130Y-91012876D01*
X68998149Y-91049464D01*
X69034533Y-91082497D01*
X69067048Y-91108744D01*
X69092461Y-91124969D01*
X69104348Y-91128633D01*
X69120022Y-91134571D01*
X69130681Y-91142120D01*
X69150975Y-91153927D01*
X69185773Y-91168610D01*
X69230146Y-91184272D01*
X69276526Y-91198286D01*
X69293592Y-91200240D01*
X69328258Y-91201956D01*
X69378116Y-91203434D01*
X69440760Y-91204672D01*
X69513782Y-91205667D01*
X69594776Y-91206419D01*
X69681335Y-91206926D01*
X69771052Y-91207185D01*
X69861520Y-91207197D01*
X69950331Y-91206958D01*
X70035079Y-91206468D01*
X70113358Y-91205724D01*
X70182759Y-91204725D01*
X70240876Y-91203470D01*
X70285302Y-91201957D01*
X70313631Y-91200184D01*
X70321937Y-91198986D01*
X70370504Y-91184878D01*
X70415119Y-91169507D01*
X70450697Y-91154790D01*
X70472151Y-91142645D01*
X70472784Y-91142120D01*
X70490494Y-91130960D01*
X70499118Y-91128633D01*
X70518019Y-91121351D01*
X70546165Y-91101673D01*
X70580333Y-91072850D01*
X70617299Y-91038135D01*
X70653840Y-91000780D01*
X70686732Y-90964036D01*
X70712754Y-90931154D01*
X70728680Y-90905388D01*
X70732099Y-90893588D01*
X70739104Y-90877059D01*
X70746840Y-90868750D01*
X70758463Y-90851110D01*
X70767545Y-90823996D01*
X70768357Y-90820007D01*
X70777526Y-90787860D01*
X70790452Y-90760006D01*
X70791131Y-90758941D01*
X70794786Y-90751428D01*
X70797881Y-90739924D01*
X70800476Y-90722766D01*
X70802629Y-90698291D01*
X70804400Y-90664838D01*
X70805848Y-90620744D01*
X70807034Y-90564346D01*
X70808016Y-90493981D01*
X70808853Y-90407988D01*
X70809606Y-90304704D01*
X70810067Y-90229488D01*
X70810704Y-90109675D01*
X70811014Y-90007952D01*
X70810858Y-89922401D01*
X70810096Y-89851107D01*
X70808588Y-89792152D01*
X70806195Y-89743618D01*
X70802777Y-89703590D01*
X70798195Y-89670149D01*
X70792308Y-89641379D01*
X70784978Y-89615363D01*
X70776065Y-89590184D01*
X70765428Y-89563925D01*
X70760798Y-89553013D01*
X70736135Y-89505488D01*
X70701769Y-89452482D01*
X70663043Y-89401702D01*
X70632327Y-89367673D01*
X70589404Y-89329222D01*
X70540252Y-89292253D01*
X70490230Y-89260272D01*
X70444699Y-89236791D01*
X70417561Y-89227079D01*
X70387664Y-89218190D01*
X70353165Y-89206321D01*
X70346947Y-89203993D01*
X70335119Y-89200446D01*
X70318715Y-89197476D01*
X70296029Y-89195032D01*
X70265358Y-89193066D01*
X70224996Y-89191529D01*
X70173239Y-89190371D01*
X70108381Y-89189543D01*
X70028719Y-89188997D01*
X69932546Y-89188682D01*
X69818159Y-89188549D01*
X69811737Y-89188547D01*
X69712878Y-89188687D01*
X69619187Y-89189168D01*
X69532751Y-89189953D01*
X69455655Y-89191007D01*
X69389989Y-89192297D01*
X69337838Y-89193786D01*
X69301291Y-89195440D01*
X69282434Y-89197224D01*
X69281528Y-89197427D01*
X69167783Y-89235771D01*
X69068314Y-89288133D01*
X68983061Y-89354572D01*
X68911963Y-89435147D01*
X68854963Y-89529919D01*
X68812000Y-89638946D01*
X68800893Y-89678062D01*
X68798854Y-89696028D01*
X68797081Y-89731559D01*
X68795574Y-89782224D01*
X68794333Y-89845593D01*
X68793356Y-89919236D01*
X68792645Y-90000725D01*
X68792198Y-90087629D01*
X68792015Y-90177519D01*
X68411425Y-90177519D01*
X68411456Y-90073148D01*
X68411706Y-89972670D01*
X68412213Y-89888975D01*
X68413018Y-89820453D01*
X68414161Y-89765491D01*
X68415683Y-89722478D01*
X68417627Y-89689801D01*
X68420031Y-89665850D01*
X68422938Y-89649012D01*
X68425453Y-89640138D01*
X68435898Y-89603795D01*
X68444479Y-89562663D01*
X68446203Y-89551346D01*
X68449249Y-89530570D01*
X68453094Y-89512424D01*
X68459193Y-89493055D01*
X68469004Y-89468615D01*
X68483983Y-89435252D01*
X68505588Y-89389116D01*
X68515599Y-89367940D01*
X68534475Y-89328444D01*
X68549696Y-89298640D01*
X68564495Y-89273452D01*
X68582105Y-89247805D01*
X68605762Y-89216624D01*
X68638328Y-89175298D01*
X68675717Y-89132216D01*
X68721361Y-89085559D01*
X68767237Y-89043384D01*
X68781814Y-89031212D01*
X68821603Y-89001402D01*
X68867657Y-88970542D01*
X68916070Y-88940849D01*
X68962937Y-88914541D01*
X69004353Y-88893835D01*
X69036414Y-88880947D01*
X69052082Y-88877747D01*
X69072469Y-88870558D01*
X69081449Y-88862741D01*
X69100372Y-88851346D01*
X69120865Y-88847735D01*
X69143640Y-88845188D01*
X69178485Y-88838477D01*
X69218252Y-88828998D01*
X69222181Y-88827963D01*
X69240058Y-88823489D01*
X69258399Y-88819743D01*
X69279083Y-88816660D01*
X69303992Y-88814178D01*
X69335007Y-88812230D01*
X69374008Y-88810754D01*
X69422876Y-88809685D01*
X69483493Y-88808959D01*
X69557738Y-88808511D01*
X69647493Y-88808278D01*
X69754639Y-88808195D01*
X69801733Y-88808190D01*
X69916199Y-88808231D01*
G37*
G36*
X66286970Y-92835784D02*
G01*
X66325830Y-92865981D01*
X66358669Y-92904574D01*
X66361090Y-92908313D01*
X66373596Y-92929348D01*
X66381869Y-92948219D01*
X66386788Y-92969815D01*
X66389235Y-92999023D01*
X66390090Y-93040731D01*
X66390199Y-93069897D01*
X66391437Y-93130615D01*
X66394892Y-93172385D01*
X66400524Y-93194791D01*
X66402394Y-93197447D01*
X66412022Y-93201083D01*
X66433816Y-93204000D01*
X66469176Y-93206251D01*
X66519502Y-93207888D01*
X66586196Y-93208962D01*
X66670658Y-93209527D01*
X66730023Y-93209642D01*
X67045648Y-93209832D01*
X67091687Y-93238752D01*
X67130510Y-93270427D01*
X67161986Y-93309194D01*
X67164215Y-93312871D01*
X67175843Y-93334255D01*
X67183472Y-93354283D01*
X67187933Y-93377950D01*
X67190060Y-93410256D01*
X67190685Y-93456196D01*
X67190705Y-93471836D01*
X67191864Y-93532093D01*
X67195315Y-93573379D01*
X67201019Y-93595286D01*
X67202709Y-93597605D01*
X67217033Y-93602101D01*
X67247415Y-93605617D01*
X67289931Y-93608155D01*
X67340657Y-93609713D01*
X67395668Y-93610293D01*
X67451038Y-93609893D01*
X67502843Y-93608514D01*
X67547158Y-93606156D01*
X67580059Y-93602819D01*
X67597620Y-93598502D01*
X67598865Y-93597605D01*
X67605066Y-93580380D01*
X67609044Y-93543420D01*
X67610785Y-93486878D01*
X67610870Y-93467962D01*
X67611170Y-93416820D01*
X67612610Y-93380856D01*
X67616003Y-93355242D01*
X67622162Y-93335149D01*
X67631900Y-93315752D01*
X67638319Y-93304880D01*
X67661575Y-93274027D01*
X67687829Y-93250203D01*
X67697917Y-93244181D01*
X67721147Y-93231353D01*
X67735356Y-93220197D01*
X67736085Y-93219188D01*
X67749002Y-93213654D01*
X67774771Y-93210494D01*
X67806374Y-93209707D01*
X67836796Y-93211293D01*
X67859021Y-93215253D01*
X67865805Y-93219188D01*
X67878292Y-93229748D01*
X67900847Y-93242666D01*
X67903973Y-93244181D01*
X67929156Y-93262662D01*
X67954626Y-93291517D01*
X67963571Y-93304880D01*
X67975388Y-93325728D01*
X67983224Y-93344871D01*
X67987889Y-93367139D01*
X67990198Y-93397358D01*
X67990963Y-93440356D01*
X67991020Y-93467962D01*
X67992145Y-93529850D01*
X67995510Y-93572198D01*
X68001103Y-93594852D01*
X68003024Y-93597605D01*
X68019935Y-93603703D01*
X68056412Y-93607655D01*
X68112594Y-93609474D01*
X68137487Y-93609610D01*
X68186118Y-93610367D01*
X68226324Y-93612443D01*
X68254235Y-93615544D01*
X68265963Y-93619346D01*
X68278419Y-93629853D01*
X68301056Y-93642837D01*
X68304754Y-93644634D01*
X68334396Y-93667708D01*
X68361083Y-93704142D01*
X68381118Y-93747303D01*
X68390802Y-93790557D01*
X68391177Y-93799685D01*
X68381856Y-93852695D01*
X68356212Y-93902931D01*
X68317726Y-93944761D01*
X68289935Y-93963473D01*
X68266667Y-93975105D01*
X68244979Y-93982706D01*
X68219685Y-93987119D01*
X68185599Y-93989187D01*
X68137532Y-93989752D01*
X68128147Y-93989759D01*
X68068165Y-93990924D01*
X68027056Y-93994390D01*
X68005273Y-94000113D01*
X68003024Y-94001764D01*
X67998261Y-94014210D01*
X67994766Y-94041607D01*
X67992457Y-94085320D01*
X67991252Y-94146714D01*
X67991020Y-94199842D01*
X67991515Y-94274174D01*
X67993057Y-94329886D01*
X67995729Y-94368344D01*
X67999612Y-94390914D01*
X68003024Y-94397920D01*
X68020244Y-94404156D01*
X68056941Y-94408149D01*
X68112706Y-94409858D01*
X68128793Y-94409925D01*
X68179346Y-94410284D01*
X68214892Y-94411916D01*
X68240431Y-94415654D01*
X68260959Y-94422332D01*
X68281474Y-94432780D01*
X68287758Y-94436414D01*
X68326617Y-94466611D01*
X68359457Y-94505204D01*
X68361878Y-94508943D01*
X68374384Y-94529978D01*
X68382657Y-94548850D01*
X68387576Y-94570445D01*
X68390023Y-94599653D01*
X68390878Y-94641362D01*
X68390987Y-94670527D01*
X68392224Y-94731245D01*
X68395679Y-94773015D01*
X68401312Y-94795421D01*
X68403182Y-94798078D01*
X68420407Y-94804278D01*
X68457367Y-94808256D01*
X68513909Y-94809998D01*
X68532825Y-94810082D01*
X68584053Y-94810392D01*
X68620083Y-94811854D01*
X68645722Y-94815263D01*
X68665777Y-94821415D01*
X68685055Y-94831107D01*
X68694919Y-94836934D01*
X68736264Y-94871660D01*
X68768426Y-94917592D01*
X68787613Y-94968314D01*
X68791335Y-95000157D01*
X68782013Y-95053168D01*
X68756370Y-95103404D01*
X68717884Y-95145234D01*
X68690093Y-95163946D01*
X68666824Y-95175577D01*
X68645136Y-95183178D01*
X68619843Y-95187591D01*
X68585756Y-95189659D01*
X68537690Y-95190225D01*
X68528305Y-95190232D01*
X68468322Y-95191397D01*
X68427213Y-95194863D01*
X68405431Y-95200585D01*
X68403182Y-95202237D01*
X68396974Y-95219392D01*
X68392933Y-95256025D01*
X68391099Y-95311716D01*
X68390987Y-95329787D01*
X68390622Y-95380198D01*
X68389137Y-95415490D01*
X68385651Y-95440553D01*
X68379284Y-95460275D01*
X68369153Y-95479544D01*
X68361878Y-95491372D01*
X68330202Y-95530195D01*
X68291436Y-95561671D01*
X68287758Y-95563900D01*
X68242557Y-95590390D01*
X67999242Y-95590199D01*
X67755927Y-95590009D01*
X67709888Y-95561090D01*
X67671065Y-95529415D01*
X67639589Y-95490648D01*
X67637359Y-95486970D01*
X67610870Y-95441770D01*
X67610870Y-95127927D01*
X67610641Y-95032541D01*
X67609921Y-94955747D01*
X67608657Y-94896137D01*
X67606797Y-94852299D01*
X67604289Y-94822823D01*
X67601081Y-94806299D01*
X67598865Y-94802079D01*
X67581647Y-94795837D01*
X67544996Y-94791842D01*
X67489366Y-94790138D01*
X67473743Y-94790074D01*
X67422944Y-94789672D01*
X67386958Y-94787903D01*
X67360600Y-94783924D01*
X67338683Y-94776892D01*
X67316019Y-94765966D01*
X67311955Y-94763788D01*
X67267438Y-94729700D01*
X67233675Y-94683829D01*
X67214148Y-94631806D01*
X67210713Y-94600000D01*
X67219669Y-94549570D01*
X67244011Y-94499846D01*
X67279949Y-94457245D01*
X67307128Y-94436776D01*
X67327652Y-94425201D01*
X67346755Y-94417529D01*
X67369245Y-94412965D01*
X67399929Y-94410712D01*
X67443613Y-94409975D01*
X67469222Y-94409925D01*
X67531111Y-94408800D01*
X67573458Y-94405434D01*
X67596113Y-94399842D01*
X67598865Y-94397920D01*
X67603629Y-94385474D01*
X67607124Y-94358077D01*
X67609433Y-94314364D01*
X67610638Y-94252970D01*
X67610870Y-94199842D01*
X67610374Y-94125510D01*
X67608832Y-94069798D01*
X67606161Y-94031340D01*
X67602278Y-94008770D01*
X67598865Y-94001764D01*
X67589237Y-93998129D01*
X67567444Y-93995211D01*
X67532084Y-93992961D01*
X67481757Y-93991324D01*
X67415063Y-93990249D01*
X67330601Y-93989685D01*
X67271236Y-93989569D01*
X66955612Y-93989379D01*
X66909573Y-93960460D01*
X66870750Y-93928784D01*
X66839274Y-93890018D01*
X66837044Y-93886340D01*
X66825416Y-93864956D01*
X66817788Y-93844929D01*
X66813327Y-93821261D01*
X66811200Y-93788956D01*
X66810574Y-93743015D01*
X66810555Y-93727375D01*
X66809396Y-93667119D01*
X66805945Y-93625832D01*
X66800241Y-93603926D01*
X66798550Y-93601607D01*
X66786100Y-93598951D01*
X66755805Y-93596599D01*
X66709822Y-93594549D01*
X66650314Y-93592803D01*
X66579438Y-93591359D01*
X66499354Y-93590219D01*
X66412223Y-93589382D01*
X66320204Y-93588847D01*
X66225456Y-93588616D01*
X66130140Y-93588688D01*
X66036414Y-93589062D01*
X65946438Y-93589740D01*
X65862373Y-93590721D01*
X65786377Y-93592004D01*
X65720610Y-93593591D01*
X65667232Y-93595481D01*
X65628403Y-93597674D01*
X65606282Y-93600170D01*
X65602079Y-93601607D01*
X65598436Y-93611231D01*
X65595524Y-93632993D01*
X65593291Y-93668302D01*
X65591686Y-93718570D01*
X65590656Y-93785207D01*
X65590149Y-93869625D01*
X65590074Y-93926808D01*
X65590074Y-94240004D01*
X65563788Y-94288675D01*
X65529700Y-94333192D01*
X65483829Y-94366954D01*
X65431806Y-94386481D01*
X65400000Y-94389917D01*
X65346989Y-94380596D01*
X65296753Y-94354952D01*
X65254923Y-94316466D01*
X65236211Y-94288675D01*
X65209925Y-94240004D01*
X65209925Y-93926808D01*
X65209696Y-93831520D01*
X65208973Y-93754824D01*
X65207705Y-93695309D01*
X65205840Y-93651565D01*
X65203325Y-93622180D01*
X65200109Y-93605744D01*
X65197920Y-93601607D01*
X65188295Y-93597963D01*
X65166534Y-93595051D01*
X65131224Y-93592818D01*
X65080957Y-93591213D01*
X65014319Y-93590183D01*
X64929902Y-93589677D01*
X64872719Y-93589602D01*
X64559522Y-93589602D01*
X64510852Y-93563316D01*
X64466335Y-93529227D01*
X64432572Y-93483356D01*
X64413045Y-93431333D01*
X64409610Y-93399527D01*
X64416436Y-93357174D01*
X64434450Y-93313411D01*
X64459954Y-93274872D01*
X64489251Y-93248190D01*
X64496033Y-93244477D01*
X64519475Y-93231582D01*
X64533948Y-93220373D01*
X64534824Y-93219188D01*
X64546714Y-93215359D01*
X64574738Y-93212264D01*
X64615025Y-93210198D01*
X64663300Y-93209452D01*
X64726561Y-93208392D01*
X64770066Y-93205204D01*
X64793955Y-93199874D01*
X64797763Y-93197447D01*
X64804005Y-93180229D01*
X64808000Y-93143578D01*
X64809704Y-93087948D01*
X64809767Y-93072325D01*
X64810170Y-93021526D01*
X64811939Y-92985540D01*
X64815918Y-92959183D01*
X64822949Y-92937265D01*
X64833876Y-92914601D01*
X64836053Y-92910537D01*
X64870142Y-92866020D01*
X64916013Y-92832257D01*
X64968036Y-92812730D01*
X64999842Y-92809295D01*
X65050272Y-92818251D01*
X65099995Y-92842593D01*
X65142596Y-92878531D01*
X65163065Y-92905711D01*
X65174641Y-92926234D01*
X65182313Y-92945337D01*
X65186877Y-92967827D01*
X65189130Y-92998511D01*
X65189867Y-93042195D01*
X65189917Y-93067804D01*
X65191042Y-93129693D01*
X65194408Y-93172040D01*
X65200000Y-93194695D01*
X65201922Y-93197447D01*
X65214368Y-93202211D01*
X65241764Y-93205706D01*
X65285477Y-93208015D01*
X65346872Y-93209220D01*
X65400000Y-93209452D01*
X65474331Y-93208957D01*
X65530044Y-93207414D01*
X65568502Y-93204743D01*
X65591071Y-93200860D01*
X65598078Y-93197447D01*
X65604286Y-93180292D01*
X65608327Y-93143660D01*
X65610161Y-93087969D01*
X65610272Y-93069897D01*
X65610637Y-93019487D01*
X65612122Y-92984194D01*
X65615608Y-92959131D01*
X65621976Y-92939409D01*
X65632106Y-92920141D01*
X65639382Y-92908313D01*
X65671057Y-92869489D01*
X65709824Y-92838014D01*
X65713502Y-92835784D01*
X65758702Y-92809295D01*
X66000236Y-92809295D01*
X66241770Y-92809295D01*
X66286970Y-92835784D01*
G37*
G36*
X61112733Y-88808231D02*
G01*
X61209073Y-88808398D01*
X61289166Y-88808754D01*
X61354894Y-88809363D01*
X61408138Y-88810290D01*
X61450778Y-88811600D01*
X61484696Y-88813355D01*
X61511771Y-88815620D01*
X61533886Y-88818460D01*
X61552920Y-88821939D01*
X61570754Y-88826120D01*
X61577819Y-88827963D01*
X61616577Y-88837564D01*
X61650012Y-88844593D01*
X61671577Y-88847692D01*
X61673131Y-88847735D01*
X61698256Y-88853418D01*
X61713823Y-88861463D01*
X61737414Y-88873097D01*
X61767336Y-88882358D01*
X61768570Y-88882626D01*
X61794927Y-88889812D01*
X61812749Y-88897479D01*
X61813816Y-88898249D01*
X61827595Y-88906963D01*
X61853251Y-88921474D01*
X61880858Y-88936320D01*
X61965078Y-88989183D01*
X62048781Y-89057467D01*
X62127916Y-89136904D01*
X62198432Y-89223222D01*
X62256277Y-89312150D01*
X62279150Y-89356189D01*
X62298796Y-89397571D01*
X62316822Y-89435172D01*
X62330433Y-89463177D01*
X62334470Y-89471291D01*
X62344898Y-89498971D01*
X62348798Y-89521987D01*
X62351312Y-89542326D01*
X62357943Y-89575219D01*
X62367323Y-89613980D01*
X62368571Y-89618715D01*
X62373045Y-89636592D01*
X62376791Y-89654933D01*
X62379873Y-89675617D01*
X62382356Y-89700526D01*
X62384303Y-89731541D01*
X62385779Y-89770542D01*
X62386848Y-89819411D01*
X62387575Y-89880027D01*
X62388022Y-89954272D01*
X62388255Y-90044027D01*
X62388338Y-90151173D01*
X62388343Y-90198267D01*
X62388302Y-90312733D01*
X62388136Y-90409073D01*
X62387780Y-90489166D01*
X62387170Y-90554894D01*
X62386243Y-90608138D01*
X62384934Y-90650778D01*
X62383178Y-90684696D01*
X62380913Y-90711771D01*
X62378073Y-90733886D01*
X62374594Y-90752920D01*
X62370413Y-90770754D01*
X62368571Y-90777819D01*
X62358966Y-90816634D01*
X62351936Y-90850184D01*
X62348841Y-90871889D01*
X62348798Y-90873445D01*
X62342821Y-90898450D01*
X62334111Y-90914137D01*
X62322394Y-90934877D01*
X62319105Y-90947512D01*
X62314681Y-90962180D01*
X62303328Y-90989416D01*
X62287464Y-91024103D01*
X62269512Y-91061118D01*
X62251890Y-91095344D01*
X62237018Y-91121660D01*
X62236033Y-91123250D01*
X62185976Y-91193252D01*
X62124080Y-91264158D01*
X62054677Y-91331967D01*
X61982097Y-91392677D01*
X61910670Y-91442287D01*
X61861521Y-91469301D01*
X61835278Y-91483005D01*
X61817552Y-91494507D01*
X61814113Y-91497929D01*
X61801620Y-91505222D01*
X61777535Y-91512289D01*
X61771692Y-91513477D01*
X61741099Y-91521990D01*
X61716109Y-91533439D01*
X61714334Y-91534619D01*
X61689718Y-91545963D01*
X61673131Y-91548798D01*
X61653538Y-91551302D01*
X61621244Y-91557909D01*
X61582798Y-91567259D01*
X61577819Y-91568571D01*
X61559975Y-91573042D01*
X61541723Y-91576782D01*
X61521181Y-91579853D01*
X61496469Y-91582318D01*
X61465707Y-91584239D01*
X61427012Y-91585678D01*
X61378505Y-91586698D01*
X61318304Y-91587361D01*
X61244530Y-91587729D01*
X61155300Y-91587864D01*
X61048735Y-91587830D01*
X60998267Y-91587779D01*
X60883356Y-91587602D01*
X60786571Y-91587306D01*
X60706029Y-91586829D01*
X60639849Y-91586105D01*
X60586147Y-91585072D01*
X60543042Y-91583665D01*
X60508651Y-91581823D01*
X60481092Y-91579480D01*
X60458483Y-91576573D01*
X60438942Y-91573038D01*
X60420585Y-91568813D01*
X60418038Y-91568172D01*
X60380265Y-91559010D01*
X60349051Y-91552212D01*
X60330294Y-91549048D01*
X60328788Y-91548963D01*
X60312763Y-91545336D01*
X60284429Y-91535985D01*
X60249953Y-91522949D01*
X60162202Y-91483474D01*
X60077526Y-91437200D01*
X60000645Y-91387075D01*
X59936278Y-91336046D01*
X59909331Y-91310146D01*
X59886160Y-91284323D01*
X59856581Y-91249141D01*
X59824757Y-91209805D01*
X59794848Y-91171521D01*
X59771016Y-91139492D01*
X59760209Y-91123631D01*
X59745706Y-91098264D01*
X59728260Y-91064493D01*
X59710293Y-91027462D01*
X59694224Y-90992317D01*
X59682475Y-90964200D01*
X59677465Y-90948257D01*
X59677429Y-90947706D01*
X59671474Y-90928991D01*
X59662423Y-90914137D01*
X59650615Y-90889869D01*
X59647735Y-90873445D01*
X59645229Y-90853687D01*
X59638617Y-90821260D01*
X59629260Y-90782744D01*
X59627963Y-90777819D01*
X59623489Y-90759941D01*
X59619743Y-90741601D01*
X59616660Y-90720916D01*
X59614178Y-90696007D01*
X59612230Y-90664992D01*
X59610754Y-90625991D01*
X59609685Y-90577123D01*
X59608959Y-90516506D01*
X59608511Y-90442261D01*
X59608278Y-90352506D01*
X59608195Y-90245360D01*
X59608190Y-90198267D01*
X59608197Y-90177417D01*
X59988553Y-90177417D01*
X59988625Y-90267877D01*
X59988962Y-90356466D01*
X59989566Y-90440752D01*
X59990435Y-90518304D01*
X59991570Y-90586692D01*
X59992970Y-90643486D01*
X59994637Y-90686253D01*
X59996569Y-90712563D01*
X59997548Y-90718471D01*
X60011655Y-90767038D01*
X60027026Y-90811653D01*
X60041743Y-90847231D01*
X60053888Y-90868685D01*
X60054413Y-90869318D01*
X60065574Y-90887028D01*
X60067900Y-90895652D01*
X60075127Y-90914122D01*
X60094652Y-90941972D01*
X60123242Y-90975967D01*
X60157664Y-91012876D01*
X60194683Y-91049464D01*
X60231067Y-91082497D01*
X60263582Y-91108744D01*
X60288995Y-91124969D01*
X60300882Y-91128633D01*
X60316557Y-91134571D01*
X60327215Y-91142120D01*
X60347510Y-91153927D01*
X60382307Y-91168610D01*
X60426680Y-91184272D01*
X60473060Y-91198286D01*
X60490126Y-91200240D01*
X60524792Y-91201956D01*
X60574650Y-91203434D01*
X60637294Y-91204672D01*
X60710316Y-91205667D01*
X60791311Y-91206419D01*
X60877869Y-91206926D01*
X60967586Y-91207185D01*
X61058054Y-91207197D01*
X61146865Y-91206958D01*
X61231613Y-91206468D01*
X61309892Y-91205724D01*
X61379293Y-91204725D01*
X61437410Y-91203470D01*
X61481836Y-91201957D01*
X61510165Y-91200184D01*
X61518471Y-91198986D01*
X61567038Y-91184878D01*
X61611653Y-91169507D01*
X61647231Y-91154790D01*
X61668685Y-91142645D01*
X61669318Y-91142120D01*
X61687028Y-91130960D01*
X61695652Y-91128633D01*
X61714122Y-91121406D01*
X61741972Y-91101881D01*
X61775967Y-91073291D01*
X61812876Y-91038870D01*
X61849464Y-91001850D01*
X61882497Y-90965466D01*
X61908744Y-90932951D01*
X61924969Y-90907538D01*
X61928633Y-90895652D01*
X61934571Y-90879977D01*
X61942120Y-90869318D01*
X61954079Y-90848737D01*
X61968710Y-90813768D01*
X61984094Y-90769497D01*
X61998314Y-90721011D01*
X61998986Y-90718471D01*
X62001040Y-90700549D01*
X62002829Y-90665052D01*
X62004352Y-90614410D01*
X62005609Y-90551055D01*
X62006601Y-90477417D01*
X62007327Y-90395927D01*
X62007786Y-90309017D01*
X62007981Y-90219116D01*
X62007909Y-90128656D01*
X62007571Y-90040068D01*
X62006968Y-89955782D01*
X62006099Y-89878229D01*
X62004964Y-89809841D01*
X62003563Y-89753048D01*
X62001896Y-89710280D01*
X61999964Y-89683970D01*
X61998986Y-89678062D01*
X61984878Y-89629495D01*
X61969507Y-89584880D01*
X61954790Y-89549302D01*
X61942645Y-89527849D01*
X61942120Y-89527215D01*
X61930915Y-89510163D01*
X61928451Y-89502205D01*
X61921959Y-89485563D01*
X61905127Y-89458897D01*
X61881319Y-89426759D01*
X61853902Y-89393702D01*
X61827151Y-89365171D01*
X61785208Y-89328150D01*
X61736843Y-89292177D01*
X61687467Y-89260759D01*
X61642490Y-89237404D01*
X61614095Y-89227079D01*
X61584198Y-89218190D01*
X61549699Y-89206321D01*
X61543481Y-89203993D01*
X61531653Y-89200446D01*
X61515249Y-89197476D01*
X61492563Y-89195032D01*
X61461892Y-89193066D01*
X61421530Y-89191529D01*
X61369773Y-89190371D01*
X61304915Y-89189543D01*
X61225253Y-89188997D01*
X61129080Y-89188682D01*
X61014693Y-89188549D01*
X61008271Y-89188547D01*
X60909412Y-89188690D01*
X60815721Y-89189177D01*
X60729285Y-89189973D01*
X60652189Y-89191042D01*
X60586523Y-89192349D01*
X60534372Y-89193858D01*
X60497825Y-89195534D01*
X60478968Y-89197342D01*
X60478062Y-89197548D01*
X60429495Y-89211655D01*
X60384880Y-89227026D01*
X60349302Y-89241743D01*
X60327849Y-89253888D01*
X60327215Y-89254413D01*
X60309894Y-89265551D01*
X60301648Y-89267900D01*
X60287824Y-89273394D01*
X60266174Y-89286953D01*
X60261374Y-89290409D01*
X60232162Y-89311906D01*
X60204019Y-89332526D01*
X60203471Y-89332926D01*
X60185376Y-89349293D01*
X60161216Y-89375252D01*
X60134385Y-89406603D01*
X60108276Y-89439144D01*
X60086283Y-89468675D01*
X60071800Y-89490995D01*
X60067900Y-89500727D01*
X60061956Y-89516542D01*
X60054413Y-89527215D01*
X60042454Y-89547796D01*
X60027824Y-89582765D01*
X60012440Y-89627036D01*
X59998219Y-89675523D01*
X59997548Y-89678062D01*
X59995493Y-89695984D01*
X59993704Y-89731481D01*
X59992181Y-89782123D01*
X59990924Y-89845478D01*
X59989932Y-89919116D01*
X59989207Y-90000606D01*
X59988747Y-90087517D01*
X59988553Y-90177417D01*
X59608197Y-90177417D01*
X59608231Y-90083800D01*
X59608398Y-89987461D01*
X59608754Y-89907367D01*
X59609363Y-89841639D01*
X59610290Y-89788395D01*
X59611600Y-89745755D01*
X59613355Y-89711838D01*
X59615620Y-89684762D01*
X59618460Y-89662648D01*
X59621939Y-89643614D01*
X59626120Y-89625779D01*
X59627963Y-89618715D01*
X59637581Y-89579699D01*
X59644615Y-89545747D01*
X59647696Y-89523546D01*
X59647735Y-89521987D01*
X59652285Y-89496783D01*
X59662161Y-89471291D01*
X59672815Y-89449780D01*
X59689235Y-89415952D01*
X59708629Y-89375573D01*
X59718171Y-89355566D01*
X59739533Y-89312966D01*
X59761320Y-89273317D01*
X59780006Y-89242908D01*
X59786278Y-89234149D01*
X59806998Y-89206731D01*
X59824845Y-89181749D01*
X59827806Y-89177346D01*
X59860443Y-89136637D01*
X59906378Y-89091358D01*
X59961691Y-89044339D01*
X60022462Y-88998405D01*
X60084770Y-88956385D01*
X60144696Y-88921107D01*
X60198318Y-88895397D01*
X60235502Y-88883290D01*
X60261353Y-88874055D01*
X60278517Y-88862098D01*
X60296987Y-88851207D01*
X60317399Y-88847735D01*
X60340174Y-88845188D01*
X60375019Y-88838477D01*
X60414786Y-88828998D01*
X60418715Y-88827963D01*
X60436592Y-88823489D01*
X60454933Y-88819743D01*
X60475617Y-88816660D01*
X60500526Y-88814178D01*
X60531541Y-88812230D01*
X60570542Y-88810754D01*
X60619411Y-88809685D01*
X60680027Y-88808959D01*
X60754272Y-88808511D01*
X60844027Y-88808278D01*
X60951173Y-88808195D01*
X60998267Y-88808190D01*
X61112733Y-88808231D01*
G37*
G36*
X61112733Y-97611697D02*
G01*
X61209073Y-97611864D01*
X61289166Y-97612220D01*
X61354894Y-97612829D01*
X61408138Y-97613756D01*
X61450778Y-97615066D01*
X61484696Y-97616821D01*
X61511771Y-97619086D01*
X61533886Y-97621926D01*
X61552920Y-97625405D01*
X61570754Y-97629586D01*
X61577819Y-97631428D01*
X61616577Y-97641029D01*
X61650012Y-97648059D01*
X61671577Y-97651158D01*
X61673131Y-97651201D01*
X61698256Y-97656884D01*
X61713823Y-97664929D01*
X61737414Y-97676563D01*
X61767336Y-97685824D01*
X61768570Y-97686092D01*
X61794927Y-97693278D01*
X61812749Y-97700944D01*
X61813816Y-97701715D01*
X61827572Y-97710410D01*
X61853245Y-97724930D01*
X61881403Y-97740073D01*
X61944215Y-97778661D01*
X62011738Y-97829610D01*
X62078348Y-97888149D01*
X62138425Y-97949505D01*
X62165309Y-97981056D01*
X62194201Y-98019797D01*
X62224515Y-98065135D01*
X62254010Y-98113137D01*
X62280445Y-98159871D01*
X62301577Y-98201407D01*
X62315165Y-98233811D01*
X62319105Y-98250806D01*
X62325119Y-98270822D01*
X62334111Y-98285862D01*
X62345918Y-98310131D01*
X62348798Y-98326554D01*
X62351305Y-98346313D01*
X62357916Y-98378739D01*
X62367273Y-98417255D01*
X62368571Y-98422181D01*
X62373089Y-98440256D01*
X62376866Y-98458816D01*
X62379970Y-98479766D01*
X62382466Y-98505012D01*
X62384421Y-98536460D01*
X62385904Y-98576015D01*
X62386981Y-98625582D01*
X62387718Y-98687068D01*
X62388182Y-98762378D01*
X62388442Y-98853418D01*
X62388563Y-98962093D01*
X62388579Y-98991626D01*
X62388590Y-99105024D01*
X62388461Y-99200417D01*
X62388121Y-99279808D01*
X62387501Y-99345201D01*
X62386533Y-99398598D01*
X62385145Y-99442003D01*
X62383269Y-99477418D01*
X62380835Y-99506847D01*
X62377774Y-99532292D01*
X62374016Y-99555757D01*
X62369491Y-99579245D01*
X62367919Y-99586860D01*
X62357588Y-99632548D01*
X62346861Y-99673678D01*
X62337328Y-99704418D01*
X62332905Y-99715324D01*
X62322883Y-99739048D01*
X62318787Y-99755816D01*
X62314344Y-99770023D01*
X62302541Y-99797056D01*
X62285664Y-99832216D01*
X62266000Y-99870799D01*
X62245836Y-99908106D01*
X62238064Y-99921755D01*
X62193865Y-99986725D01*
X62136322Y-100054640D01*
X62069896Y-100121340D01*
X61999046Y-100182669D01*
X61928235Y-100234467D01*
X61861923Y-100272575D01*
X61861521Y-100272767D01*
X61835278Y-100286471D01*
X61817552Y-100297973D01*
X61814113Y-100301395D01*
X61801635Y-100308650D01*
X61777490Y-100315728D01*
X61771181Y-100317012D01*
X61743443Y-100324076D01*
X61723725Y-100332390D01*
X61721762Y-100333787D01*
X61707309Y-100340184D01*
X61678280Y-100349290D01*
X61639662Y-100359617D01*
X61616720Y-100365144D01*
X61595107Y-100369963D01*
X61574079Y-100374019D01*
X61551726Y-100377385D01*
X61526139Y-100380135D01*
X61495409Y-100382340D01*
X61457628Y-100384075D01*
X61410885Y-100385411D01*
X61353272Y-100386422D01*
X61282880Y-100387180D01*
X61197799Y-100387760D01*
X61096121Y-100388232D01*
X61003269Y-100388577D01*
X60886770Y-100388940D01*
X60788468Y-100389112D01*
X60706551Y-100389041D01*
X60639208Y-100388676D01*
X60584629Y-100387966D01*
X60541002Y-100386859D01*
X60506516Y-100385304D01*
X60479361Y-100383251D01*
X60457725Y-100380647D01*
X60439796Y-100377441D01*
X60423765Y-100373583D01*
X60418038Y-100372004D01*
X60381115Y-100362388D01*
X60349076Y-100355487D01*
X60330468Y-100352937D01*
X60307312Y-100347834D01*
X60277965Y-100336007D01*
X60270592Y-100332256D01*
X60243618Y-100319482D01*
X60222165Y-100312179D01*
X60218108Y-100311584D01*
X60201576Y-100306397D01*
X60174843Y-100293717D01*
X60152934Y-100281609D01*
X60120455Y-100262985D01*
X60091135Y-100246851D01*
X60077904Y-100239987D01*
X60036307Y-100214325D01*
X59987024Y-100175693D01*
X59933653Y-100127640D01*
X59879795Y-100073716D01*
X59829051Y-100017471D01*
X59785020Y-99962456D01*
X59760209Y-99926716D01*
X59746071Y-99902244D01*
X59728819Y-99869012D01*
X59710895Y-99832197D01*
X59694739Y-99796977D01*
X59682794Y-99768527D01*
X59677500Y-99752024D01*
X59677429Y-99751172D01*
X59671474Y-99732457D01*
X59662423Y-99717603D01*
X59650615Y-99693335D01*
X59647735Y-99676911D01*
X59645229Y-99657152D01*
X59638617Y-99624726D01*
X59629260Y-99586210D01*
X59627963Y-99581284D01*
X59623489Y-99563407D01*
X59619743Y-99545066D01*
X59616660Y-99524382D01*
X59614178Y-99499473D01*
X59612230Y-99468458D01*
X59610754Y-99429457D01*
X59609685Y-99380589D01*
X59608959Y-99319972D01*
X59608511Y-99245727D01*
X59608278Y-99155972D01*
X59608195Y-99048826D01*
X59608190Y-99001733D01*
X59608231Y-98887266D01*
X59608283Y-98857159D01*
X59989390Y-98857159D01*
X59989615Y-98968074D01*
X59989932Y-99032954D01*
X59990662Y-99148065D01*
X59991439Y-99244831D01*
X59992323Y-99324913D01*
X59993373Y-99389976D01*
X59994647Y-99441680D01*
X59996207Y-99481689D01*
X59998111Y-99511664D01*
X60000418Y-99533269D01*
X60003189Y-99548166D01*
X60006482Y-99558018D01*
X60008868Y-99562407D01*
X60021839Y-99589626D01*
X60031343Y-99621916D01*
X60031642Y-99623473D01*
X60039994Y-99651083D01*
X60051538Y-99670693D01*
X60053159Y-99672216D01*
X60065692Y-99688607D01*
X60067900Y-99697054D01*
X60075118Y-99716122D01*
X60094624Y-99744518D01*
X60123193Y-99778988D01*
X60157603Y-99816282D01*
X60194631Y-99853146D01*
X60231053Y-99886331D01*
X60263645Y-99912582D01*
X60289185Y-99928650D01*
X60300882Y-99932099D01*
X60316557Y-99938037D01*
X60327215Y-99945586D01*
X60347510Y-99957393D01*
X60382307Y-99972076D01*
X60426680Y-99987738D01*
X60473060Y-100001752D01*
X60490126Y-100003706D01*
X60524792Y-100005422D01*
X60574650Y-100006900D01*
X60637294Y-100008138D01*
X60710316Y-100009133D01*
X60791311Y-100009885D01*
X60877869Y-100010391D01*
X60967586Y-100010651D01*
X61058054Y-100010663D01*
X61146865Y-100010424D01*
X61231613Y-100009934D01*
X61309892Y-100009190D01*
X61379293Y-100008191D01*
X61437410Y-100006936D01*
X61481836Y-100005423D01*
X61510165Y-100003650D01*
X61518471Y-100002451D01*
X61567038Y-99988344D01*
X61611653Y-99972973D01*
X61647231Y-99958256D01*
X61668685Y-99946111D01*
X61669318Y-99945586D01*
X61687028Y-99934425D01*
X61695652Y-99932099D01*
X61712340Y-99925308D01*
X61738944Y-99907078D01*
X61771757Y-99880623D01*
X61807070Y-99849159D01*
X61841177Y-99815900D01*
X61870371Y-99784062D01*
X61879998Y-99772243D01*
X61902924Y-99741489D01*
X61920032Y-99716151D01*
X61928300Y-99700779D01*
X61928633Y-99699118D01*
X61934571Y-99683443D01*
X61942120Y-99672784D01*
X61954079Y-99652203D01*
X61968710Y-99617234D01*
X61984094Y-99572963D01*
X61998314Y-99524477D01*
X61998986Y-99521937D01*
X62001040Y-99504015D01*
X62002829Y-99468518D01*
X62004352Y-99417876D01*
X62005609Y-99354521D01*
X62006601Y-99280883D01*
X62007327Y-99199393D01*
X62007786Y-99112483D01*
X62007981Y-99022582D01*
X62007909Y-98932122D01*
X62007571Y-98843533D01*
X62006968Y-98759248D01*
X62006099Y-98681695D01*
X62004964Y-98613307D01*
X62003563Y-98556514D01*
X62001896Y-98513746D01*
X61999964Y-98487436D01*
X61998986Y-98481528D01*
X61984878Y-98432961D01*
X61969507Y-98388346D01*
X61954790Y-98352768D01*
X61942645Y-98331315D01*
X61942120Y-98330681D01*
X61930915Y-98313629D01*
X61928451Y-98305671D01*
X61921959Y-98289029D01*
X61905127Y-98262363D01*
X61881319Y-98230225D01*
X61853902Y-98197167D01*
X61827151Y-98168637D01*
X61785208Y-98131616D01*
X61736843Y-98095643D01*
X61687467Y-98064225D01*
X61642490Y-98040870D01*
X61614095Y-98030544D01*
X61584198Y-98021656D01*
X61549699Y-98009786D01*
X61543481Y-98007459D01*
X61531653Y-98003912D01*
X61515249Y-98000942D01*
X61492563Y-97998498D01*
X61461892Y-97996532D01*
X61421530Y-97994995D01*
X61369773Y-97993837D01*
X61304915Y-97993009D01*
X61225253Y-97992463D01*
X61129080Y-97992148D01*
X61014693Y-97992015D01*
X61008271Y-97992013D01*
X60909412Y-97992153D01*
X60815721Y-97992634D01*
X60729285Y-97993419D01*
X60652189Y-97994473D01*
X60586523Y-97995763D01*
X60534372Y-97997252D01*
X60497825Y-97998906D01*
X60478968Y-98000690D01*
X60478062Y-98000893D01*
X60365058Y-98038999D01*
X60265777Y-98091034D01*
X60180808Y-98156677D01*
X60166554Y-98170438D01*
X60140382Y-98198927D01*
X60114040Y-98231375D01*
X60090936Y-98263098D01*
X60074481Y-98289414D01*
X60068083Y-98305641D01*
X60068082Y-98305671D01*
X60062045Y-98320168D01*
X60054413Y-98330681D01*
X60042118Y-98351788D01*
X60027463Y-98387034D01*
X60012430Y-98431027D01*
X59999003Y-98478376D01*
X59996802Y-98487285D01*
X59994610Y-98506898D01*
X59992777Y-98545148D01*
X59991321Y-98600667D01*
X59990260Y-98672087D01*
X59989610Y-98758040D01*
X59989390Y-98857159D01*
X59608283Y-98857159D01*
X59608398Y-98790926D01*
X59608754Y-98710833D01*
X59609363Y-98645105D01*
X59610290Y-98591861D01*
X59611600Y-98549221D01*
X59613355Y-98515304D01*
X59615620Y-98488228D01*
X59618460Y-98466114D01*
X59621939Y-98447080D01*
X59626120Y-98429245D01*
X59627963Y-98422181D01*
X59637581Y-98383165D01*
X59644615Y-98349213D01*
X59647696Y-98327012D01*
X59647735Y-98325453D01*
X59652321Y-98300291D01*
X59662316Y-98274757D01*
X59673537Y-98252194D01*
X59690028Y-98218130D01*
X59708589Y-98179190D01*
X59712265Y-98171406D01*
X59731043Y-98131971D01*
X59746199Y-98102204D01*
X59760958Y-98077037D01*
X59778543Y-98051405D01*
X59802180Y-98020239D01*
X59834862Y-97978764D01*
X59875130Y-97933035D01*
X59925898Y-97882819D01*
X59981210Y-97833481D01*
X60035113Y-97790385D01*
X60073283Y-97763966D01*
X60098757Y-97749415D01*
X60132545Y-97731922D01*
X60169526Y-97713908D01*
X60204583Y-97697792D01*
X60232593Y-97685994D01*
X60248439Y-97680936D01*
X60249021Y-97680895D01*
X60267567Y-97674948D01*
X60282396Y-97665889D01*
X60306665Y-97654081D01*
X60323088Y-97651201D01*
X60342847Y-97648695D01*
X60375273Y-97642083D01*
X60413789Y-97632726D01*
X60418715Y-97631428D01*
X60436592Y-97626955D01*
X60454933Y-97623209D01*
X60475617Y-97620126D01*
X60500526Y-97617643D01*
X60531541Y-97615696D01*
X60570542Y-97614220D01*
X60619411Y-97613151D01*
X60680027Y-97612425D01*
X60754272Y-97611977D01*
X60844027Y-97611744D01*
X60951173Y-97611661D01*
X60998267Y-97611656D01*
X61112733Y-97611697D01*
G37*
G36*
X62685552Y-92035469D02*
G01*
X62724412Y-92065666D01*
X62757251Y-92104259D01*
X62759672Y-92107997D01*
X62772179Y-92129033D01*
X62780451Y-92147904D01*
X62785370Y-92169500D01*
X62787817Y-92198708D01*
X62788672Y-92240416D01*
X62788782Y-92269582D01*
X62790019Y-92330299D01*
X62793474Y-92372070D01*
X62799106Y-92394476D01*
X62800976Y-92397132D01*
X62815300Y-92401628D01*
X62845682Y-92405145D01*
X62888198Y-92407682D01*
X62938924Y-92409241D01*
X62993935Y-92409820D01*
X63049305Y-92409420D01*
X63101110Y-92408041D01*
X63145425Y-92405683D01*
X63178326Y-92402346D01*
X63195887Y-92398030D01*
X63197132Y-92397132D01*
X63203374Y-92379914D01*
X63207369Y-92343263D01*
X63209074Y-92287633D01*
X63209137Y-92272010D01*
X63209540Y-92221211D01*
X63211309Y-92185225D01*
X63215288Y-92158867D01*
X63222319Y-92136950D01*
X63233245Y-92114286D01*
X63235423Y-92110222D01*
X63269512Y-92065705D01*
X63315383Y-92031942D01*
X63367406Y-92012415D01*
X63399212Y-92008980D01*
X63449642Y-92017936D01*
X63499365Y-92042278D01*
X63541966Y-92078216D01*
X63562435Y-92105395D01*
X63589287Y-92149850D01*
X63589287Y-92667646D01*
X63589407Y-92790643D01*
X63589785Y-92894829D01*
X63590447Y-92981400D01*
X63591422Y-93051552D01*
X63592737Y-93106480D01*
X63594417Y-93147382D01*
X63596491Y-93175451D01*
X63598986Y-93191885D01*
X63601291Y-93197447D01*
X63618447Y-93203655D01*
X63655079Y-93207697D01*
X63710770Y-93209531D01*
X63728842Y-93209642D01*
X63779252Y-93210007D01*
X63814545Y-93211492D01*
X63839608Y-93214978D01*
X63859329Y-93221346D01*
X63878598Y-93231476D01*
X63890426Y-93238752D01*
X63929250Y-93270427D01*
X63960725Y-93309194D01*
X63962955Y-93312871D01*
X63989444Y-93358072D01*
X63989254Y-93601387D01*
X63989064Y-93844702D01*
X63960145Y-93890742D01*
X63928469Y-93929565D01*
X63889703Y-93961040D01*
X63886025Y-93963270D01*
X63864641Y-93974898D01*
X63844614Y-93982527D01*
X63820946Y-93986988D01*
X63788641Y-93989115D01*
X63742700Y-93989740D01*
X63727060Y-93989759D01*
X63666804Y-93990918D01*
X63625517Y-93994369D01*
X63603611Y-94000074D01*
X63601291Y-94001764D01*
X63597656Y-94011392D01*
X63594739Y-94033186D01*
X63592488Y-94068546D01*
X63590851Y-94118872D01*
X63589777Y-94185566D01*
X63589212Y-94270028D01*
X63589097Y-94329393D01*
X63588907Y-94645017D01*
X63559987Y-94691057D01*
X63528312Y-94729880D01*
X63489545Y-94761356D01*
X63485867Y-94763585D01*
X63440667Y-94790074D01*
X63126824Y-94790074D01*
X63031438Y-94790303D01*
X62954645Y-94791024D01*
X62895034Y-94792288D01*
X62851196Y-94794148D01*
X62821720Y-94796656D01*
X62805196Y-94799863D01*
X62800976Y-94802079D01*
X62797341Y-94811707D01*
X62794424Y-94833501D01*
X62792173Y-94868861D01*
X62790536Y-94919187D01*
X62789462Y-94985881D01*
X62788897Y-95070343D01*
X62788782Y-95129708D01*
X62788592Y-95445332D01*
X62759672Y-95491372D01*
X62727997Y-95530195D01*
X62689230Y-95561671D01*
X62685552Y-95563900D01*
X62640352Y-95590390D01*
X62392035Y-95589615D01*
X62143718Y-95588840D01*
X62101210Y-95562223D01*
X62072400Y-95539552D01*
X62049395Y-95513470D01*
X62043420Y-95503399D01*
X62030585Y-95480150D01*
X62019425Y-95465917D01*
X62018401Y-95465175D01*
X62013169Y-95452664D01*
X62009635Y-95426454D01*
X62008664Y-95400315D01*
X62010200Y-95367750D01*
X62014175Y-95343934D01*
X62018401Y-95335455D01*
X62028960Y-95322967D01*
X62041878Y-95300412D01*
X62043393Y-95297287D01*
X62061874Y-95272104D01*
X62090729Y-95246633D01*
X62104092Y-95237688D01*
X62124940Y-95225871D01*
X62144084Y-95218036D01*
X62166351Y-95213370D01*
X62196570Y-95211062D01*
X62239569Y-95210297D01*
X62267174Y-95210240D01*
X62329063Y-95209115D01*
X62371410Y-95205749D01*
X62394065Y-95200157D01*
X62396817Y-95198235D01*
X62401313Y-95183912D01*
X62404830Y-95153530D01*
X62407367Y-95111013D01*
X62408926Y-95060287D01*
X62409505Y-95005277D01*
X62409105Y-94949907D01*
X62407726Y-94898101D01*
X62405368Y-94853786D01*
X62402031Y-94820886D01*
X62397715Y-94803325D01*
X62396817Y-94802079D01*
X62388819Y-94799243D01*
X62370157Y-94796845D01*
X62339641Y-94794858D01*
X62296079Y-94793256D01*
X62238279Y-94792012D01*
X62165050Y-94791099D01*
X62075201Y-94790490D01*
X61967540Y-94790158D01*
X61862197Y-94790074D01*
X61739798Y-94789889D01*
X61631840Y-94789344D01*
X61539166Y-94788454D01*
X61462618Y-94787234D01*
X61403037Y-94785702D01*
X61361266Y-94783871D01*
X61338147Y-94781757D01*
X61333564Y-94780338D01*
X61321157Y-94769915D01*
X61298391Y-94756831D01*
X61293731Y-94754555D01*
X61262916Y-94731460D01*
X61243868Y-94704693D01*
X61230861Y-94680900D01*
X61219561Y-94665994D01*
X61218086Y-94664860D01*
X61212552Y-94651942D01*
X61209391Y-94626174D01*
X61208604Y-94594571D01*
X61210190Y-94564149D01*
X61214150Y-94541924D01*
X61218086Y-94535139D01*
X61228645Y-94522652D01*
X61241563Y-94500097D01*
X61243078Y-94496972D01*
X61261559Y-94471789D01*
X61290414Y-94446318D01*
X61303777Y-94437373D01*
X61349220Y-94409925D01*
X61867016Y-94409925D01*
X61990013Y-94409805D01*
X62094199Y-94409427D01*
X62180770Y-94408764D01*
X62250922Y-94407789D01*
X62305850Y-94406475D01*
X62346752Y-94404794D01*
X62374821Y-94402720D01*
X62391255Y-94400226D01*
X62396817Y-94397920D01*
X62401581Y-94385474D01*
X62405076Y-94358077D01*
X62407385Y-94314364D01*
X62408590Y-94252970D01*
X62408822Y-94199842D01*
X62408788Y-94194722D01*
X62788289Y-94194722D01*
X62788688Y-94250093D01*
X62790067Y-94301898D01*
X62792425Y-94346213D01*
X62795763Y-94379113D01*
X62800079Y-94396674D01*
X62800976Y-94397920D01*
X62813422Y-94402684D01*
X62840819Y-94406179D01*
X62884532Y-94408487D01*
X62945926Y-94409693D01*
X62999054Y-94409925D01*
X63073386Y-94409429D01*
X63129098Y-94407887D01*
X63167557Y-94405216D01*
X63190126Y-94401333D01*
X63197132Y-94397920D01*
X63201628Y-94383597D01*
X63205145Y-94353215D01*
X63207682Y-94310698D01*
X63209241Y-94259972D01*
X63209820Y-94204962D01*
X63209420Y-94149592D01*
X63208041Y-94097786D01*
X63205683Y-94053471D01*
X63202346Y-94020571D01*
X63198030Y-94003010D01*
X63197132Y-94001764D01*
X63184686Y-93997000D01*
X63157290Y-93993506D01*
X63113577Y-93991197D01*
X63052182Y-93989991D01*
X62999054Y-93989759D01*
X62924723Y-93990255D01*
X62869010Y-93991797D01*
X62830552Y-93994468D01*
X62807983Y-93998351D01*
X62800976Y-94001764D01*
X62796481Y-94016087D01*
X62792964Y-94046470D01*
X62790426Y-94088986D01*
X62788868Y-94139712D01*
X62788289Y-94194722D01*
X62408788Y-94194722D01*
X62408326Y-94125510D01*
X62406784Y-94069798D01*
X62404113Y-94031340D01*
X62400230Y-94008770D01*
X62396817Y-94001764D01*
X62379599Y-93995522D01*
X62342948Y-93991527D01*
X62287318Y-93989823D01*
X62271695Y-93989759D01*
X62220895Y-93989357D01*
X62184910Y-93987588D01*
X62158552Y-93983609D01*
X62136635Y-93976577D01*
X62113971Y-93965651D01*
X62109907Y-93963473D01*
X62062329Y-93926925D01*
X62028571Y-93877856D01*
X62010837Y-93820038D01*
X62008664Y-93790344D01*
X62010479Y-93760528D01*
X62015103Y-93739804D01*
X62018401Y-93734824D01*
X62028960Y-93722337D01*
X62041878Y-93699782D01*
X62043393Y-93696657D01*
X62061874Y-93671474D01*
X62090729Y-93646003D01*
X62104092Y-93637058D01*
X62124940Y-93625241D01*
X62144084Y-93617406D01*
X62166351Y-93612740D01*
X62196570Y-93610431D01*
X62239569Y-93609667D01*
X62267174Y-93609610D01*
X62329063Y-93608485D01*
X62371410Y-93605119D01*
X62394065Y-93599527D01*
X62396817Y-93597605D01*
X62401313Y-93583282D01*
X62404830Y-93552900D01*
X62407367Y-93510383D01*
X62408926Y-93459657D01*
X62409505Y-93404647D01*
X62409105Y-93349276D01*
X62407726Y-93297471D01*
X62405368Y-93253156D01*
X62402031Y-93220256D01*
X62397715Y-93202695D01*
X62396817Y-93201449D01*
X62382494Y-93196953D01*
X62352112Y-93193437D01*
X62309595Y-93190899D01*
X62258869Y-93189341D01*
X62203859Y-93188761D01*
X62148489Y-93189161D01*
X62096684Y-93190540D01*
X62052368Y-93192898D01*
X62019468Y-93196235D01*
X62001907Y-93200552D01*
X62000661Y-93201449D01*
X61994425Y-93218669D01*
X61990433Y-93255366D01*
X61988723Y-93311131D01*
X61988657Y-93327218D01*
X61988298Y-93377770D01*
X61986665Y-93413317D01*
X61982927Y-93438856D01*
X61976250Y-93459384D01*
X61965801Y-93479898D01*
X61962167Y-93486183D01*
X61931970Y-93525042D01*
X61893377Y-93557881D01*
X61889639Y-93560302D01*
X61843599Y-93589222D01*
X61596410Y-93589412D01*
X61349220Y-93589602D01*
X61304765Y-93562750D01*
X61259337Y-93524180D01*
X61226823Y-93473371D01*
X61210035Y-93415355D01*
X61208349Y-93390187D01*
X61210164Y-93360370D01*
X61214787Y-93339646D01*
X61218086Y-93334667D01*
X61228645Y-93322180D01*
X61241563Y-93299624D01*
X61243078Y-93296499D01*
X61261559Y-93271316D01*
X61290414Y-93245846D01*
X61303777Y-93236901D01*
X61324625Y-93225084D01*
X61343768Y-93217248D01*
X61366036Y-93212583D01*
X61396255Y-93210274D01*
X61439254Y-93209509D01*
X61466859Y-93209452D01*
X61528748Y-93208327D01*
X61571095Y-93204961D01*
X61593749Y-93199369D01*
X61596502Y-93197447D01*
X61602710Y-93180292D01*
X61604667Y-93162548D01*
X62788101Y-93162548D01*
X62788114Y-93240630D01*
X62788590Y-93317299D01*
X62789528Y-93389880D01*
X62790930Y-93455696D01*
X62792795Y-93512069D01*
X62795123Y-93556322D01*
X62797914Y-93585780D01*
X62800976Y-93597605D01*
X62815300Y-93602101D01*
X62845682Y-93605617D01*
X62888198Y-93608155D01*
X62938924Y-93609713D01*
X62993935Y-93610293D01*
X63049305Y-93609893D01*
X63101110Y-93608514D01*
X63145425Y-93606156D01*
X63178326Y-93602819D01*
X63195887Y-93598502D01*
X63197132Y-93597605D01*
X63200361Y-93584590D01*
X63203126Y-93554249D01*
X63205428Y-93509260D01*
X63207268Y-93452298D01*
X63208644Y-93386041D01*
X63209557Y-93313166D01*
X63210008Y-93236349D01*
X63209995Y-93158267D01*
X63209519Y-93081597D01*
X63208580Y-93009016D01*
X63207179Y-92943201D01*
X63205314Y-92886828D01*
X63202986Y-92842574D01*
X63200195Y-92813116D01*
X63197132Y-92801291D01*
X63182809Y-92796796D01*
X63152427Y-92793279D01*
X63109910Y-92790741D01*
X63059185Y-92789183D01*
X63004174Y-92788604D01*
X62948804Y-92789004D01*
X62896999Y-92790382D01*
X62852683Y-92792741D01*
X62819783Y-92796078D01*
X62802222Y-92800394D01*
X62800976Y-92801291D01*
X62797748Y-92814306D01*
X62794983Y-92844647D01*
X62792680Y-92889637D01*
X62790841Y-92946598D01*
X62789465Y-93012855D01*
X62788551Y-93085731D01*
X62788101Y-93162548D01*
X61604667Y-93162548D01*
X61606751Y-93143660D01*
X61608586Y-93087969D01*
X61608697Y-93069897D01*
X61609062Y-93019487D01*
X61610547Y-92984194D01*
X61614033Y-92959131D01*
X61620401Y-92939409D01*
X61630531Y-92920141D01*
X61637806Y-92908313D01*
X61669482Y-92869489D01*
X61708248Y-92838014D01*
X61711926Y-92835784D01*
X61757127Y-92809295D01*
X62070970Y-92809295D01*
X62166356Y-92809066D01*
X62243149Y-92808346D01*
X62302760Y-92807081D01*
X62346598Y-92805221D01*
X62376074Y-92802713D01*
X62392598Y-92799506D01*
X62396817Y-92797290D01*
X62401313Y-92782967D01*
X62404830Y-92752584D01*
X62407367Y-92710068D01*
X62408926Y-92659342D01*
X62409505Y-92604332D01*
X62409105Y-92548961D01*
X62407726Y-92497156D01*
X62405368Y-92452841D01*
X62402031Y-92419941D01*
X62397715Y-92402380D01*
X62396817Y-92401134D01*
X62387192Y-92397490D01*
X62365431Y-92394578D01*
X62330122Y-92392346D01*
X62279854Y-92390741D01*
X62213217Y-92389711D01*
X62128799Y-92389204D01*
X62071616Y-92389129D01*
X61758419Y-92389129D01*
X61709749Y-92362843D01*
X61662172Y-92326295D01*
X61628413Y-92277226D01*
X61610680Y-92219408D01*
X61608507Y-92189714D01*
X61610322Y-92159897D01*
X61614945Y-92139174D01*
X61618243Y-92134194D01*
X61628802Y-92121707D01*
X61641721Y-92099152D01*
X61643236Y-92096027D01*
X61661717Y-92070844D01*
X61690572Y-92045373D01*
X61703935Y-92036428D01*
X61749378Y-92008980D01*
X62194865Y-92008980D01*
X62640352Y-92008980D01*
X62685552Y-92035469D01*
G37*
G36*
X64235378Y-89209718D02*
G01*
X64257603Y-89213677D01*
X64264387Y-89217613D01*
X64276874Y-89228172D01*
X64299430Y-89241091D01*
X64302555Y-89242606D01*
X64327738Y-89261087D01*
X64353208Y-89289942D01*
X64362153Y-89303305D01*
X64373970Y-89324152D01*
X64381806Y-89343296D01*
X64386471Y-89365563D01*
X64388780Y-89395783D01*
X64389545Y-89438781D01*
X64389602Y-89466386D01*
X64390727Y-89528275D01*
X64394093Y-89570622D01*
X64399685Y-89593277D01*
X64401607Y-89596030D01*
X64411235Y-89599665D01*
X64433028Y-89602582D01*
X64468388Y-89604833D01*
X64518715Y-89606470D01*
X64585409Y-89607544D01*
X64669871Y-89608109D01*
X64729236Y-89608224D01*
X65044860Y-89608414D01*
X65090899Y-89637334D01*
X65129722Y-89669009D01*
X65161198Y-89707776D01*
X65163428Y-89711454D01*
X65175056Y-89732838D01*
X65182684Y-89752865D01*
X65187145Y-89776532D01*
X65189272Y-89808838D01*
X65189898Y-89854779D01*
X65189917Y-89870418D01*
X65191076Y-89930675D01*
X65194527Y-89971961D01*
X65200231Y-89993868D01*
X65201922Y-89996187D01*
X65209963Y-89999046D01*
X65228704Y-90001460D01*
X65259344Y-90003456D01*
X65303082Y-90005061D01*
X65361119Y-90006303D01*
X65434653Y-90007209D01*
X65524883Y-90007806D01*
X65633010Y-90008123D01*
X65727848Y-90008192D01*
X66241770Y-90008192D01*
X66286970Y-90034681D01*
X66325830Y-90064878D01*
X66358669Y-90103471D01*
X66361090Y-90107210D01*
X66373596Y-90128245D01*
X66381869Y-90147117D01*
X66386788Y-90168712D01*
X66389235Y-90197920D01*
X66390090Y-90239629D01*
X66390199Y-90268794D01*
X66391437Y-90329512D01*
X66394892Y-90371282D01*
X66400524Y-90393688D01*
X66402394Y-90396345D01*
X66419305Y-90402442D01*
X66455782Y-90406395D01*
X66511964Y-90408214D01*
X66536857Y-90408349D01*
X66585488Y-90409107D01*
X66625694Y-90411183D01*
X66653605Y-90414284D01*
X66665332Y-90418086D01*
X66677789Y-90428593D01*
X66700426Y-90441576D01*
X66704124Y-90443374D01*
X66733766Y-90466448D01*
X66760453Y-90502882D01*
X66780488Y-90546043D01*
X66790172Y-90589297D01*
X66790547Y-90598424D01*
X66781226Y-90651435D01*
X66755582Y-90701671D01*
X66717096Y-90743501D01*
X66689305Y-90762213D01*
X66666036Y-90773844D01*
X66644349Y-90781445D01*
X66619055Y-90785858D01*
X66584968Y-90787926D01*
X66536902Y-90788492D01*
X66527517Y-90788499D01*
X66467535Y-90789664D01*
X66426425Y-90793130D01*
X66404643Y-90798852D01*
X66402394Y-90800504D01*
X66399166Y-90813519D01*
X66396401Y-90843859D01*
X66394098Y-90888849D01*
X66392259Y-90945811D01*
X66390883Y-91012068D01*
X66389969Y-91084943D01*
X66389519Y-91161760D01*
X66389532Y-91239842D01*
X66390007Y-91316512D01*
X66390946Y-91389093D01*
X66392348Y-91454908D01*
X66394213Y-91511281D01*
X66396541Y-91555535D01*
X66399331Y-91584992D01*
X66402394Y-91596817D01*
X66416717Y-91601313D01*
X66447100Y-91604830D01*
X66489616Y-91607367D01*
X66540342Y-91608926D01*
X66595353Y-91609505D01*
X66650723Y-91609105D01*
X66702528Y-91607726D01*
X66746843Y-91605368D01*
X66779744Y-91602031D01*
X66797305Y-91597715D01*
X66798550Y-91596817D01*
X66804792Y-91579599D01*
X66808787Y-91542948D01*
X66810492Y-91487318D01*
X66810555Y-91471695D01*
X66810957Y-91420895D01*
X66812727Y-91384910D01*
X66816706Y-91358552D01*
X66823737Y-91336635D01*
X66834663Y-91313971D01*
X66836841Y-91309907D01*
X66873389Y-91262329D01*
X66922458Y-91228571D01*
X66980277Y-91210837D01*
X67009970Y-91208664D01*
X67039787Y-91210479D01*
X67060510Y-91215103D01*
X67065490Y-91218401D01*
X67077977Y-91228960D01*
X67100532Y-91241878D01*
X67103658Y-91243393D01*
X67128841Y-91261874D01*
X67154311Y-91290729D01*
X67163256Y-91304092D01*
X67175073Y-91324940D01*
X67182908Y-91344084D01*
X67187574Y-91366351D01*
X67189883Y-91396570D01*
X67190648Y-91439569D01*
X67190705Y-91467174D01*
X67191830Y-91529063D01*
X67195195Y-91571410D01*
X67200788Y-91594065D01*
X67202709Y-91596817D01*
X67219865Y-91603025D01*
X67256497Y-91607066D01*
X67312188Y-91608901D01*
X67330260Y-91609012D01*
X67380670Y-91609377D01*
X67415963Y-91610862D01*
X67441026Y-91614348D01*
X67460747Y-91620716D01*
X67480016Y-91630846D01*
X67491844Y-91638121D01*
X67530668Y-91669797D01*
X67562143Y-91708564D01*
X67564373Y-91712241D01*
X67576001Y-91733625D01*
X67583629Y-91753652D01*
X67588091Y-91777320D01*
X67590217Y-91809625D01*
X67590843Y-91855566D01*
X67590862Y-91871206D01*
X67592021Y-91931463D01*
X67595472Y-91972749D01*
X67601176Y-91994656D01*
X67602867Y-91996975D01*
X67612483Y-92000615D01*
X67634229Y-92003525D01*
X67669514Y-92005756D01*
X67719748Y-92007362D01*
X67786342Y-92008394D01*
X67870705Y-92008903D01*
X67928714Y-92008980D01*
X68242557Y-92008980D01*
X68287758Y-92035469D01*
X68326617Y-92065666D01*
X68359457Y-92104259D01*
X68361878Y-92107997D01*
X68374384Y-92129033D01*
X68382657Y-92147904D01*
X68387576Y-92169500D01*
X68390023Y-92198708D01*
X68390878Y-92240416D01*
X68390987Y-92269582D01*
X68392224Y-92330299D01*
X68395679Y-92372070D01*
X68401312Y-92394476D01*
X68403182Y-92397132D01*
X68420338Y-92403340D01*
X68456970Y-92407381D01*
X68512661Y-92409216D01*
X68530732Y-92409327D01*
X68581143Y-92409692D01*
X68616435Y-92411177D01*
X68641498Y-92414663D01*
X68661220Y-92421031D01*
X68680489Y-92431161D01*
X68692317Y-92438437D01*
X68731140Y-92470112D01*
X68762616Y-92508879D01*
X68764845Y-92512556D01*
X68776474Y-92533940D01*
X68784102Y-92553967D01*
X68788563Y-92577635D01*
X68790690Y-92609940D01*
X68791315Y-92655881D01*
X68791335Y-92671521D01*
X68792494Y-92731778D01*
X68795945Y-92773064D01*
X68801649Y-92794971D01*
X68803340Y-92797290D01*
X68820565Y-92803491D01*
X68857524Y-92807469D01*
X68914067Y-92809210D01*
X68932983Y-92809295D01*
X68984211Y-92809605D01*
X69020241Y-92811066D01*
X69045880Y-92814475D01*
X69065935Y-92820627D01*
X69085212Y-92830320D01*
X69095076Y-92836146D01*
X69136422Y-92870872D01*
X69168583Y-92916804D01*
X69187771Y-92967527D01*
X69191492Y-92999369D01*
X69182536Y-93049799D01*
X69158194Y-93099523D01*
X69122256Y-93142124D01*
X69095076Y-93162593D01*
X69050622Y-93189444D01*
X68603353Y-93189254D01*
X68156085Y-93189064D01*
X68110045Y-93160145D01*
X68071222Y-93128469D01*
X68039746Y-93089703D01*
X68037517Y-93086025D01*
X68025889Y-93064641D01*
X68018260Y-93044614D01*
X68013799Y-93020946D01*
X68011672Y-92988641D01*
X68011047Y-92942700D01*
X68011028Y-92927060D01*
X68009869Y-92866804D01*
X68006417Y-92825517D01*
X68000713Y-92803611D01*
X67999023Y-92801291D01*
X67991725Y-92798853D01*
X67974347Y-92796735D01*
X67945841Y-92794923D01*
X67905163Y-92793397D01*
X67851267Y-92792142D01*
X67783106Y-92791138D01*
X67699637Y-92790371D01*
X67599811Y-92789821D01*
X67482585Y-92789472D01*
X67346912Y-92789306D01*
X67273018Y-92789287D01*
X66559017Y-92789287D01*
X66513817Y-92762797D01*
X66474957Y-92732600D01*
X66442118Y-92694007D01*
X66439697Y-92690269D01*
X66410778Y-92644230D01*
X66410588Y-92328605D01*
X66410302Y-92232888D01*
X66409538Y-92155773D01*
X66408242Y-92095860D01*
X66406364Y-92051749D01*
X66403850Y-92022039D01*
X66400649Y-92005329D01*
X66398393Y-92000976D01*
X66385947Y-91996213D01*
X66358550Y-91992718D01*
X66314837Y-91990409D01*
X66253443Y-91989204D01*
X66200315Y-91988972D01*
X66125983Y-91989467D01*
X66070271Y-91991009D01*
X66031813Y-91993681D01*
X66009243Y-91997564D01*
X66002237Y-92000976D01*
X65995995Y-92018195D01*
X65992000Y-92054846D01*
X65990295Y-92110476D01*
X65990232Y-92126099D01*
X65989829Y-92176898D01*
X65988060Y-92212883D01*
X65984081Y-92239241D01*
X65977050Y-92261159D01*
X65966124Y-92283823D01*
X65963946Y-92287887D01*
X65929857Y-92332404D01*
X65883986Y-92366166D01*
X65831964Y-92385694D01*
X65800157Y-92389129D01*
X65747147Y-92379808D01*
X65696911Y-92354164D01*
X65655081Y-92315678D01*
X65636368Y-92287887D01*
X65610082Y-92239217D01*
X65610272Y-91996548D01*
X65610463Y-91753879D01*
X65639382Y-91707840D01*
X65671057Y-91669017D01*
X65709824Y-91637541D01*
X65713502Y-91635311D01*
X65734886Y-91623683D01*
X65754913Y-91616055D01*
X65778580Y-91611594D01*
X65810886Y-91609467D01*
X65856827Y-91608841D01*
X65872466Y-91608822D01*
X65932723Y-91607663D01*
X65974009Y-91604212D01*
X65995916Y-91598508D01*
X65998235Y-91596817D01*
X66002731Y-91582494D01*
X66006248Y-91552112D01*
X66008785Y-91509595D01*
X66010344Y-91458869D01*
X66010923Y-91403859D01*
X66010523Y-91348489D01*
X66009144Y-91296684D01*
X66006786Y-91252368D01*
X66003449Y-91219468D01*
X65999133Y-91201907D01*
X65998235Y-91200661D01*
X65985789Y-91195898D01*
X65958392Y-91192403D01*
X65914680Y-91190094D01*
X65853285Y-91188888D01*
X65800157Y-91188657D01*
X65725826Y-91189152D01*
X65670113Y-91190694D01*
X65631655Y-91193366D01*
X65609085Y-91197249D01*
X65602079Y-91200661D01*
X65595837Y-91217880D01*
X65591842Y-91254531D01*
X65590138Y-91310160D01*
X65590074Y-91325784D01*
X65589672Y-91376583D01*
X65587903Y-91412568D01*
X65583924Y-91438926D01*
X65576892Y-91460844D01*
X65565966Y-91483508D01*
X65563788Y-91487572D01*
X65529700Y-91532089D01*
X65483829Y-91565851D01*
X65431806Y-91585379D01*
X65400000Y-91588814D01*
X65346989Y-91579493D01*
X65296753Y-91553849D01*
X65254923Y-91515363D01*
X65236211Y-91487572D01*
X65209925Y-91438902D01*
X65209925Y-91125705D01*
X65209696Y-91030417D01*
X65208973Y-90953721D01*
X65207705Y-90894206D01*
X65205840Y-90850462D01*
X65203325Y-90821077D01*
X65200109Y-90804641D01*
X65197920Y-90800504D01*
X65180764Y-90794296D01*
X65144132Y-90790255D01*
X65088441Y-90788420D01*
X65070370Y-90788309D01*
X65019959Y-90787944D01*
X64984667Y-90786459D01*
X64959604Y-90782973D01*
X64939882Y-90776605D01*
X64920613Y-90766475D01*
X64908785Y-90759200D01*
X64869962Y-90727524D01*
X64838486Y-90688757D01*
X64836257Y-90685080D01*
X64824628Y-90663696D01*
X64817000Y-90643669D01*
X64812539Y-90620001D01*
X64810412Y-90587696D01*
X64809787Y-90541755D01*
X64809767Y-90526115D01*
X64808608Y-90465858D01*
X64805157Y-90424572D01*
X64799453Y-90402665D01*
X64797763Y-90400346D01*
X64780607Y-90394138D01*
X64743975Y-90390097D01*
X64688284Y-90388263D01*
X64670212Y-90388151D01*
X64619802Y-90387787D01*
X64584509Y-90386302D01*
X64559446Y-90382816D01*
X64539725Y-90376448D01*
X64520456Y-90366318D01*
X64508628Y-90359042D01*
X64469804Y-90327367D01*
X64438329Y-90288600D01*
X64436099Y-90284922D01*
X64424471Y-90263538D01*
X64416843Y-90243511D01*
X64412381Y-90219844D01*
X64410254Y-90187538D01*
X64409629Y-90141597D01*
X64409610Y-90125958D01*
X64408451Y-90065701D01*
X64405000Y-90024415D01*
X64399296Y-90002508D01*
X64397605Y-90000189D01*
X64383282Y-89995693D01*
X64352900Y-89992176D01*
X64310383Y-89989639D01*
X64259657Y-89988080D01*
X64204647Y-89987501D01*
X64149276Y-89987901D01*
X64097471Y-89989280D01*
X64053156Y-89991638D01*
X64020256Y-89994975D01*
X64002695Y-89999291D01*
X64001449Y-90000189D01*
X63997809Y-90009805D01*
X63994899Y-90031551D01*
X63992668Y-90066836D01*
X63991062Y-90117070D01*
X63990030Y-90183664D01*
X63989521Y-90268027D01*
X63989444Y-90326036D01*
X63989444Y-90639879D01*
X63962955Y-90685080D01*
X63932758Y-90723939D01*
X63894165Y-90756778D01*
X63890426Y-90759200D01*
X63869391Y-90771706D01*
X63850519Y-90779978D01*
X63828924Y-90784898D01*
X63799716Y-90787345D01*
X63758008Y-90788200D01*
X63728842Y-90788309D01*
X63668124Y-90789546D01*
X63626354Y-90793001D01*
X63603948Y-90798633D01*
X63601291Y-90800504D01*
X63595049Y-90817722D01*
X63591054Y-90854373D01*
X63589350Y-90910003D01*
X63589287Y-90925626D01*
X63588884Y-90976426D01*
X63587115Y-91012411D01*
X63583136Y-91038769D01*
X63576105Y-91060686D01*
X63565178Y-91083350D01*
X63563001Y-91087414D01*
X63528912Y-91131931D01*
X63483041Y-91165694D01*
X63431018Y-91185221D01*
X63399212Y-91188657D01*
X63346201Y-91179335D01*
X63295965Y-91153691D01*
X63254135Y-91115206D01*
X63235423Y-91087414D01*
X63209137Y-91038744D01*
X63209137Y-90797857D01*
X63209137Y-90556969D01*
X63235626Y-90511769D01*
X63265824Y-90472909D01*
X63304417Y-90440070D01*
X63308155Y-90437649D01*
X63329191Y-90425143D01*
X63348062Y-90416870D01*
X63369657Y-90411951D01*
X63398865Y-90409504D01*
X63440574Y-90408649D01*
X63469740Y-90408539D01*
X63530457Y-90407302D01*
X63572227Y-90403847D01*
X63594633Y-90398215D01*
X63597290Y-90396345D01*
X63600930Y-90386728D01*
X63603840Y-90364982D01*
X63606071Y-90329698D01*
X63607677Y-90279463D01*
X63608709Y-90212870D01*
X63609218Y-90128506D01*
X63609295Y-90070497D01*
X63609295Y-89756654D01*
X63635784Y-89711454D01*
X63665981Y-89672594D01*
X63704574Y-89639755D01*
X63708313Y-89637334D01*
X63729348Y-89624827D01*
X63748219Y-89616555D01*
X63769815Y-89611636D01*
X63799023Y-89609189D01*
X63840731Y-89608334D01*
X63869897Y-89608224D01*
X63930615Y-89606987D01*
X63972385Y-89603532D01*
X63994791Y-89597900D01*
X63997447Y-89596030D01*
X64003648Y-89578804D01*
X64007626Y-89541845D01*
X64009367Y-89485302D01*
X64009452Y-89466386D01*
X64009752Y-89415245D01*
X64011192Y-89379280D01*
X64014585Y-89353666D01*
X64020744Y-89333574D01*
X64030482Y-89314176D01*
X64036901Y-89303305D01*
X64060157Y-89272452D01*
X64086411Y-89248628D01*
X64096499Y-89242606D01*
X64119729Y-89229777D01*
X64133938Y-89218622D01*
X64134667Y-89217613D01*
X64147584Y-89212079D01*
X64173353Y-89208918D01*
X64204956Y-89208131D01*
X64235378Y-89209718D01*
G37*
G36*
X69437426Y-93211293D02*
G01*
X69459651Y-93215253D01*
X69466435Y-93219188D01*
X69478892Y-93229696D01*
X69501529Y-93242679D01*
X69505226Y-93244477D01*
X69536782Y-93269172D01*
X69564825Y-93309697D01*
X69591650Y-93359365D01*
X69591650Y-93672561D01*
X69591879Y-93767849D01*
X69592602Y-93844545D01*
X69593869Y-93904060D01*
X69595735Y-93947804D01*
X69598249Y-93977189D01*
X69601466Y-93993625D01*
X69603655Y-93997763D01*
X69620810Y-94003970D01*
X69657443Y-94008012D01*
X69713133Y-94009846D01*
X69731205Y-94009957D01*
X69781615Y-94010322D01*
X69816908Y-94011807D01*
X69841971Y-94015293D01*
X69861693Y-94021661D01*
X69880962Y-94031791D01*
X69892790Y-94039067D01*
X69931613Y-94070742D01*
X69963089Y-94109509D01*
X69965318Y-94113187D01*
X69976946Y-94134571D01*
X69984575Y-94154598D01*
X69989036Y-94178265D01*
X69991163Y-94210571D01*
X69991788Y-94256511D01*
X69991807Y-94272151D01*
X69992966Y-94332408D01*
X69996418Y-94373694D01*
X70002122Y-94395601D01*
X70003812Y-94397920D01*
X70013440Y-94401556D01*
X70035234Y-94404473D01*
X70070594Y-94406724D01*
X70120920Y-94408360D01*
X70187614Y-94409435D01*
X70272076Y-94409999D01*
X70331441Y-94410115D01*
X70647065Y-94410305D01*
X70693105Y-94439224D01*
X70731928Y-94470900D01*
X70763404Y-94509666D01*
X70765633Y-94513344D01*
X70792123Y-94558545D01*
X70792123Y-94872388D01*
X70792351Y-94967774D01*
X70793072Y-95044567D01*
X70794336Y-95104177D01*
X70796196Y-95148016D01*
X70798704Y-95177492D01*
X70801911Y-95194016D01*
X70804127Y-95198235D01*
X70821352Y-95204436D01*
X70858312Y-95208414D01*
X70914855Y-95210155D01*
X70933771Y-95210240D01*
X70984998Y-95210550D01*
X71021028Y-95212011D01*
X71046667Y-95215420D01*
X71066722Y-95221573D01*
X71086000Y-95231265D01*
X71095864Y-95237092D01*
X71137209Y-95271817D01*
X71169371Y-95317749D01*
X71188559Y-95368472D01*
X71192280Y-95400315D01*
X71185454Y-95442668D01*
X71167440Y-95486431D01*
X71141936Y-95524970D01*
X71112639Y-95551652D01*
X71105857Y-95555365D01*
X71082415Y-95568260D01*
X71067942Y-95579469D01*
X71067065Y-95580653D01*
X71055879Y-95582635D01*
X71025307Y-95584411D01*
X70975972Y-95585973D01*
X70908495Y-95587313D01*
X70823497Y-95588423D01*
X70721602Y-95589293D01*
X70603429Y-95589916D01*
X70469602Y-95590284D01*
X70338354Y-95590390D01*
X70192305Y-95590470D01*
X70065222Y-95590723D01*
X69956067Y-95591165D01*
X69863799Y-95591814D01*
X69787377Y-95592686D01*
X69725761Y-95593799D01*
X69677912Y-95595169D01*
X69642789Y-95596813D01*
X69619351Y-95598749D01*
X69606559Y-95600993D01*
X69603655Y-95602394D01*
X69599159Y-95616717D01*
X69595642Y-95647100D01*
X69593105Y-95689616D01*
X69591546Y-95740342D01*
X69590967Y-95795353D01*
X69591367Y-95850723D01*
X69592746Y-95902528D01*
X69595104Y-95946843D01*
X69598441Y-95979744D01*
X69602757Y-95997305D01*
X69603655Y-95998550D01*
X69610941Y-96000983D01*
X69628301Y-96003095D01*
X69656776Y-96004905D01*
X69697410Y-96006429D01*
X69751246Y-96007684D01*
X69819328Y-96008688D01*
X69902698Y-96009458D01*
X70002400Y-96010010D01*
X70119477Y-96010363D01*
X70254973Y-96010533D01*
X70333534Y-96010555D01*
X71051409Y-96010555D01*
X71095864Y-96037407D01*
X71137209Y-96072132D01*
X71169371Y-96118065D01*
X71188559Y-96168787D01*
X71192280Y-96200630D01*
X71185454Y-96242983D01*
X71167440Y-96286746D01*
X71141936Y-96325285D01*
X71112639Y-96351967D01*
X71105857Y-96355680D01*
X71082415Y-96368575D01*
X71067942Y-96379784D01*
X71067065Y-96380968D01*
X71055713Y-96383247D01*
X71025197Y-96385251D01*
X70976359Y-96386968D01*
X70910040Y-96388380D01*
X70827083Y-96389472D01*
X70728330Y-96390229D01*
X70614622Y-96390636D01*
X70538432Y-96390705D01*
X70414849Y-96390823D01*
X70310081Y-96391197D01*
X70222937Y-96391852D01*
X70152224Y-96392816D01*
X70096753Y-96394115D01*
X70055331Y-96395776D01*
X70026766Y-96397826D01*
X70009868Y-96400292D01*
X70003812Y-96402709D01*
X70000177Y-96412337D01*
X69997260Y-96434131D01*
X69995009Y-96469491D01*
X69993372Y-96519818D01*
X69992298Y-96586512D01*
X69991733Y-96670974D01*
X69991617Y-96730338D01*
X69991427Y-97045963D01*
X69962508Y-97092002D01*
X69930833Y-97130825D01*
X69892066Y-97162301D01*
X69888388Y-97164530D01*
X69867004Y-97176159D01*
X69846977Y-97183787D01*
X69823310Y-97188248D01*
X69791004Y-97190375D01*
X69745063Y-97191000D01*
X69729423Y-97191020D01*
X69669167Y-97192179D01*
X69627880Y-97195630D01*
X69605974Y-97201334D01*
X69603655Y-97203024D01*
X69600368Y-97211893D01*
X69597674Y-97232195D01*
X69595532Y-97265260D01*
X69593903Y-97312418D01*
X69592744Y-97375000D01*
X69592018Y-97454335D01*
X69591683Y-97551755D01*
X69591650Y-97601181D01*
X69591823Y-97707061D01*
X69592371Y-97794266D01*
X69593332Y-97864126D01*
X69594748Y-97917972D01*
X69596657Y-97957133D01*
X69599101Y-97982941D01*
X69602119Y-97996724D01*
X69603655Y-97999338D01*
X69620810Y-98005546D01*
X69657443Y-98009587D01*
X69713133Y-98011421D01*
X69731205Y-98011533D01*
X69781615Y-98011897D01*
X69816908Y-98013383D01*
X69841971Y-98016869D01*
X69861693Y-98023236D01*
X69880962Y-98033366D01*
X69892790Y-98040642D01*
X69931613Y-98072318D01*
X69963089Y-98111084D01*
X69965318Y-98114762D01*
X69976946Y-98136146D01*
X69984575Y-98156173D01*
X69989036Y-98179841D01*
X69991163Y-98212146D01*
X69991788Y-98258087D01*
X69991807Y-98273727D01*
X69992966Y-98333983D01*
X69996418Y-98375270D01*
X70002122Y-98397176D01*
X70003812Y-98399495D01*
X70020968Y-98405703D01*
X70057600Y-98409745D01*
X70113291Y-98411579D01*
X70131362Y-98411690D01*
X70181773Y-98412055D01*
X70217065Y-98413540D01*
X70242128Y-98417026D01*
X70261850Y-98423394D01*
X70281119Y-98433524D01*
X70292947Y-98440800D01*
X70331770Y-98472475D01*
X70363246Y-98511242D01*
X70365476Y-98514920D01*
X70391965Y-98560120D01*
X70391775Y-98803435D01*
X70391585Y-99046750D01*
X70362666Y-99092790D01*
X70330990Y-99131613D01*
X70292223Y-99163089D01*
X70288546Y-99165318D01*
X70243345Y-99191807D01*
X70001811Y-99191807D01*
X69760278Y-99191807D01*
X69715077Y-99165318D01*
X69676218Y-99135121D01*
X69643378Y-99096528D01*
X69640957Y-99092790D01*
X69628451Y-99071754D01*
X69620178Y-99052883D01*
X69615259Y-99031287D01*
X69612812Y-99002079D01*
X69611957Y-98960371D01*
X69611848Y-98931205D01*
X69610611Y-98870487D01*
X69607156Y-98828717D01*
X69601523Y-98806311D01*
X69599653Y-98803655D01*
X69587207Y-98798891D01*
X69559810Y-98795396D01*
X69516097Y-98793087D01*
X69454703Y-98791882D01*
X69401575Y-98791650D01*
X69327243Y-98792146D01*
X69271531Y-98793688D01*
X69233073Y-98796359D01*
X69210503Y-98800242D01*
X69203497Y-98803655D01*
X69197289Y-98820810D01*
X69193248Y-98857443D01*
X69191414Y-98913133D01*
X69191302Y-98931205D01*
X69190938Y-98981615D01*
X69189453Y-99016908D01*
X69185966Y-99041971D01*
X69179599Y-99061693D01*
X69169469Y-99080962D01*
X69162193Y-99092790D01*
X69130517Y-99131613D01*
X69091751Y-99163089D01*
X69088073Y-99165318D01*
X69066689Y-99176946D01*
X69046662Y-99184575D01*
X69022994Y-99189036D01*
X68990689Y-99191163D01*
X68944748Y-99191788D01*
X68929108Y-99191807D01*
X68868852Y-99192966D01*
X68827565Y-99196418D01*
X68805659Y-99202122D01*
X68803340Y-99203812D01*
X68798844Y-99218135D01*
X68795327Y-99248518D01*
X68792790Y-99291034D01*
X68791231Y-99341760D01*
X68790652Y-99396770D01*
X68791052Y-99452141D01*
X68792431Y-99503946D01*
X68794789Y-99548261D01*
X68798126Y-99581162D01*
X68802442Y-99598722D01*
X68803340Y-99599968D01*
X68810637Y-99602407D01*
X68828016Y-99604524D01*
X68856521Y-99606337D01*
X68897199Y-99607862D01*
X68951096Y-99609118D01*
X69019256Y-99610121D01*
X69102726Y-99610889D01*
X69202551Y-99611439D01*
X69319777Y-99611788D01*
X69455450Y-99611953D01*
X69529345Y-99611973D01*
X70243345Y-99611973D01*
X70288546Y-99638462D01*
X70327405Y-99668659D01*
X70360244Y-99707252D01*
X70362666Y-99710991D01*
X70391585Y-99757030D01*
X70391775Y-99999699D01*
X70391965Y-100242368D01*
X70365679Y-100291038D01*
X70331590Y-100335555D01*
X70285719Y-100369317D01*
X70233697Y-100388845D01*
X70201890Y-100392280D01*
X70151460Y-100383324D01*
X70101737Y-100358982D01*
X70059136Y-100323043D01*
X70038667Y-100295864D01*
X70027091Y-100275341D01*
X70019419Y-100256238D01*
X70014855Y-100233748D01*
X70012603Y-100203064D01*
X70011865Y-100159379D01*
X70011815Y-100133771D01*
X70010690Y-100071882D01*
X70007325Y-100029534D01*
X70001732Y-100006880D01*
X69999811Y-100004127D01*
X69985487Y-99999631D01*
X69955105Y-99996115D01*
X69912589Y-99993577D01*
X69861863Y-99992019D01*
X69806852Y-99991439D01*
X69751482Y-99991839D01*
X69699677Y-99993218D01*
X69655362Y-99995576D01*
X69622461Y-99998913D01*
X69604900Y-100003230D01*
X69603655Y-100004127D01*
X69597413Y-100021346D01*
X69593418Y-100057997D01*
X69591713Y-100113626D01*
X69591650Y-100129250D01*
X69591247Y-100180049D01*
X69589478Y-100216034D01*
X69585499Y-100242392D01*
X69578468Y-100264310D01*
X69567542Y-100286974D01*
X69565364Y-100291038D01*
X69531275Y-100335555D01*
X69485404Y-100369317D01*
X69433381Y-100388845D01*
X69401575Y-100392280D01*
X69351145Y-100383324D01*
X69301422Y-100358982D01*
X69258821Y-100323043D01*
X69238352Y-100295864D01*
X69226776Y-100275341D01*
X69219104Y-100256238D01*
X69214540Y-100233748D01*
X69212288Y-100203064D01*
X69211550Y-100159379D01*
X69211500Y-100133771D01*
X69210375Y-100071882D01*
X69207010Y-100029534D01*
X69201417Y-100006880D01*
X69199495Y-100004127D01*
X69185172Y-99999631D01*
X69154790Y-99996115D01*
X69112274Y-99993577D01*
X69061548Y-99992019D01*
X69006537Y-99991439D01*
X68951167Y-99991839D01*
X68899362Y-99993218D01*
X68855047Y-99995576D01*
X68822146Y-99998913D01*
X68804585Y-100003230D01*
X68803340Y-100004127D01*
X68797132Y-100021283D01*
X68793090Y-100057915D01*
X68791256Y-100113606D01*
X68791145Y-100131677D01*
X68790780Y-100182088D01*
X68789295Y-100217381D01*
X68785809Y-100242443D01*
X68779441Y-100262165D01*
X68769311Y-100281434D01*
X68762035Y-100293262D01*
X68730360Y-100332085D01*
X68691593Y-100363561D01*
X68687916Y-100365791D01*
X68642715Y-100392280D01*
X68399400Y-100391713D01*
X68323446Y-100391490D01*
X68264709Y-100391050D01*
X68220398Y-100390140D01*
X68187722Y-100388507D01*
X68163888Y-100385897D01*
X68146108Y-100382056D01*
X68131588Y-100376731D01*
X68117539Y-100369670D01*
X68109838Y-100365419D01*
X68067134Y-100331639D01*
X68034177Y-100285959D01*
X68014699Y-100234542D01*
X68011028Y-100202205D01*
X68017854Y-100159852D01*
X68035868Y-100116089D01*
X68061372Y-100077550D01*
X68090669Y-100050868D01*
X68097451Y-100047155D01*
X68120893Y-100034260D01*
X68135366Y-100023051D01*
X68136242Y-100021867D01*
X68148132Y-100018037D01*
X68176156Y-100014943D01*
X68216443Y-100012876D01*
X68264718Y-100012130D01*
X68327979Y-100011070D01*
X68371484Y-100007882D01*
X68395373Y-100002553D01*
X68399180Y-100000126D01*
X68402409Y-99987111D01*
X68405174Y-99956770D01*
X68407476Y-99911780D01*
X68409316Y-99854819D01*
X68410692Y-99788562D01*
X68411605Y-99715686D01*
X68412056Y-99638869D01*
X68412043Y-99560788D01*
X68411567Y-99484118D01*
X68410628Y-99411537D01*
X68409227Y-99345721D01*
X68407362Y-99289348D01*
X68405034Y-99245095D01*
X68402243Y-99215637D01*
X68399180Y-99203812D01*
X68381961Y-99197576D01*
X68345264Y-99193584D01*
X68289498Y-99191874D01*
X68273412Y-99191807D01*
X68222859Y-99191448D01*
X68187312Y-99189816D01*
X68161774Y-99186078D01*
X68141246Y-99179401D01*
X68120731Y-99168952D01*
X68114447Y-99165318D01*
X68075587Y-99135121D01*
X68042748Y-99096528D01*
X68040327Y-99092790D01*
X68027821Y-99071754D01*
X68019548Y-99052883D01*
X68014629Y-99031287D01*
X68012182Y-99002079D01*
X68011327Y-98960371D01*
X68011218Y-98931205D01*
X68009980Y-98870487D01*
X68006526Y-98828717D01*
X68000893Y-98806311D01*
X67999023Y-98803655D01*
X67984700Y-98799159D01*
X67954317Y-98795642D01*
X67911801Y-98793105D01*
X67861075Y-98791546D01*
X67806065Y-98790967D01*
X67750694Y-98791367D01*
X67698889Y-98792746D01*
X67654574Y-98795104D01*
X67621673Y-98798441D01*
X67604113Y-98802757D01*
X67602867Y-98803655D01*
X67596625Y-98820873D01*
X67592630Y-98857524D01*
X67590926Y-98913154D01*
X67590862Y-98928777D01*
X67590460Y-98979576D01*
X67588690Y-99015562D01*
X67584711Y-99041920D01*
X67577680Y-99063837D01*
X67566754Y-99086501D01*
X67564576Y-99090565D01*
X67530487Y-99135082D01*
X67484616Y-99168845D01*
X67432594Y-99188372D01*
X67400787Y-99191807D01*
X67347777Y-99182486D01*
X67297541Y-99156842D01*
X67255711Y-99118357D01*
X67236999Y-99090565D01*
X67210713Y-99041895D01*
X67210903Y-98198990D01*
X67210998Y-97776118D01*
X67990034Y-97776118D01*
X67990105Y-97871435D01*
X67990480Y-97965161D01*
X67991158Y-98055136D01*
X67992139Y-98139202D01*
X67993422Y-98215198D01*
X67995009Y-98280965D01*
X67996899Y-98334342D01*
X67999092Y-98373172D01*
X68001588Y-98395293D01*
X68003024Y-98399495D01*
X68015474Y-98402151D01*
X68045770Y-98404503D01*
X68091752Y-98406553D01*
X68151261Y-98408299D01*
X68222137Y-98409743D01*
X68302220Y-98410883D01*
X68389351Y-98411721D01*
X68481371Y-98412255D01*
X68576118Y-98412486D01*
X68671435Y-98412415D01*
X68765161Y-98412040D01*
X68855136Y-98411362D01*
X68939202Y-98410381D01*
X69015198Y-98409098D01*
X69080965Y-98407511D01*
X69134342Y-98405621D01*
X69173172Y-98403428D01*
X69195293Y-98400932D01*
X69199495Y-98399495D01*
X69202151Y-98387046D01*
X69204503Y-98356750D01*
X69206553Y-98310768D01*
X69208299Y-98251259D01*
X69209743Y-98180383D01*
X69210883Y-98100300D01*
X69211721Y-98013169D01*
X69212255Y-97921149D01*
X69212486Y-97826402D01*
X69212415Y-97731085D01*
X69212040Y-97637359D01*
X69211362Y-97547383D01*
X69210381Y-97463318D01*
X69209098Y-97387322D01*
X69207511Y-97321555D01*
X69205621Y-97268177D01*
X69203428Y-97229348D01*
X69200932Y-97207227D01*
X69199495Y-97203024D01*
X69187046Y-97200369D01*
X69156750Y-97198016D01*
X69110768Y-97195967D01*
X69051259Y-97194221D01*
X68980383Y-97192777D01*
X68900300Y-97191637D01*
X68813169Y-97190799D01*
X68721149Y-97190265D01*
X68626402Y-97190034D01*
X68531085Y-97190105D01*
X68437359Y-97190480D01*
X68347383Y-97191158D01*
X68263318Y-97192139D01*
X68187322Y-97193422D01*
X68121555Y-97195009D01*
X68068177Y-97196899D01*
X68029348Y-97199092D01*
X68007227Y-97201588D01*
X68003024Y-97203024D01*
X68000369Y-97215474D01*
X67998016Y-97245770D01*
X67995967Y-97291752D01*
X67994221Y-97351261D01*
X67992777Y-97422137D01*
X67991637Y-97502220D01*
X67990799Y-97589351D01*
X67990265Y-97681371D01*
X67990034Y-97776118D01*
X67210998Y-97776118D01*
X67211093Y-97356085D01*
X67240012Y-97310045D01*
X67271687Y-97271222D01*
X67310454Y-97239746D01*
X67314132Y-97237517D01*
X67335516Y-97225889D01*
X67355543Y-97218260D01*
X67379210Y-97213799D01*
X67411516Y-97211672D01*
X67457457Y-97211047D01*
X67473097Y-97211028D01*
X67533353Y-97209869D01*
X67574639Y-97206417D01*
X67596546Y-97200713D01*
X67598865Y-97199023D01*
X67605073Y-97181867D01*
X67609114Y-97145235D01*
X67610949Y-97089544D01*
X67611060Y-97071473D01*
X67611425Y-97021062D01*
X67612910Y-96985770D01*
X67616396Y-96960707D01*
X67622764Y-96940985D01*
X67632894Y-96921716D01*
X67640169Y-96909888D01*
X67671845Y-96871065D01*
X67710612Y-96839589D01*
X67714289Y-96837359D01*
X67759490Y-96810870D01*
X68273412Y-96810870D01*
X68395935Y-96810749D01*
X68499651Y-96810368D01*
X68585759Y-96809699D01*
X68655459Y-96808714D01*
X68709949Y-96807388D01*
X68750430Y-96805691D01*
X68778101Y-96803597D01*
X68794161Y-96801079D01*
X68799338Y-96798865D01*
X68803834Y-96784542D01*
X68807350Y-96754160D01*
X68809888Y-96711643D01*
X68811446Y-96660918D01*
X68812026Y-96605907D01*
X68811626Y-96550537D01*
X68810247Y-96498732D01*
X68807889Y-96454416D01*
X68804552Y-96421516D01*
X68800235Y-96403955D01*
X68799338Y-96402709D01*
X68789829Y-96399119D01*
X68768292Y-96396238D01*
X68733327Y-96394017D01*
X68683532Y-96392405D01*
X68617507Y-96391353D01*
X68533850Y-96390809D01*
X68464796Y-96390705D01*
X68372849Y-96390406D01*
X68293962Y-96389537D01*
X68229506Y-96388139D01*
X68180851Y-96386252D01*
X68149365Y-96383917D01*
X68136418Y-96381174D01*
X68136242Y-96380968D01*
X68123786Y-96370461D01*
X68101149Y-96357478D01*
X68097451Y-96355680D01*
X68067809Y-96332606D01*
X68041122Y-96296172D01*
X68021087Y-96253011D01*
X68011402Y-96209758D01*
X68011028Y-96200630D01*
X68019984Y-96150200D01*
X68044326Y-96100476D01*
X68080264Y-96057876D01*
X68107443Y-96037407D01*
X68127967Y-96025831D01*
X68147070Y-96018159D01*
X68169560Y-96013595D01*
X68200244Y-96011342D01*
X68243928Y-96010605D01*
X68269537Y-96010555D01*
X68331426Y-96009430D01*
X68373773Y-96006064D01*
X68396428Y-96000472D01*
X68399180Y-95998550D01*
X68405278Y-95981639D01*
X68409230Y-95945163D01*
X68411050Y-95888980D01*
X68411185Y-95864087D01*
X68411942Y-95815456D01*
X68414018Y-95775250D01*
X68417120Y-95747339D01*
X68420921Y-95735612D01*
X68431429Y-95723156D01*
X68444412Y-95700519D01*
X68446210Y-95696821D01*
X68469284Y-95667179D01*
X68505718Y-95640492D01*
X68548878Y-95620457D01*
X68592132Y-95610772D01*
X68601260Y-95610397D01*
X68651690Y-95619354D01*
X68701413Y-95643696D01*
X68744014Y-95679634D01*
X68764483Y-95706813D01*
X68776059Y-95727337D01*
X68783731Y-95746440D01*
X68788295Y-95768930D01*
X68790548Y-95799614D01*
X68791285Y-95843298D01*
X68791335Y-95868907D01*
X68792460Y-95930796D01*
X68795825Y-95973143D01*
X68801418Y-95995797D01*
X68803340Y-95998550D01*
X68817663Y-96003046D01*
X68848045Y-96006563D01*
X68890561Y-96009100D01*
X68941287Y-96010659D01*
X68996298Y-96011238D01*
X69051668Y-96010838D01*
X69103473Y-96009459D01*
X69147788Y-96007101D01*
X69180689Y-96003764D01*
X69198250Y-95999448D01*
X69199495Y-95998550D01*
X69204259Y-95986104D01*
X69207754Y-95958708D01*
X69210063Y-95914995D01*
X69211268Y-95853600D01*
X69211500Y-95800472D01*
X69211005Y-95726141D01*
X69209463Y-95670428D01*
X69206791Y-95631970D01*
X69202908Y-95609401D01*
X69199495Y-95602394D01*
X69182277Y-95596152D01*
X69145626Y-95592157D01*
X69089996Y-95590453D01*
X69074373Y-95590390D01*
X69023574Y-95589987D01*
X68987589Y-95588218D01*
X68961231Y-95584239D01*
X68939313Y-95577208D01*
X68916649Y-95566281D01*
X68912585Y-95564104D01*
X68868068Y-95530015D01*
X68834305Y-95484144D01*
X68814778Y-95432121D01*
X68811343Y-95400315D01*
X68820299Y-95349885D01*
X68844641Y-95300161D01*
X68880579Y-95257561D01*
X68907759Y-95237092D01*
X68952213Y-95210240D01*
X69670088Y-95210240D01*
X69815634Y-95210159D01*
X69942215Y-95209904D01*
X70050876Y-95209458D01*
X70142659Y-95208804D01*
X70218608Y-95207925D01*
X70279765Y-95206803D01*
X70327175Y-95205422D01*
X70361880Y-95203763D01*
X70384923Y-95201812D01*
X70397349Y-95199549D01*
X70399968Y-95198235D01*
X70404732Y-95185789D01*
X70408227Y-95158392D01*
X70410535Y-95114680D01*
X70411741Y-95053285D01*
X70411973Y-95000157D01*
X70411477Y-94925826D01*
X70409935Y-94870113D01*
X70407264Y-94831655D01*
X70403381Y-94809085D01*
X70399968Y-94802079D01*
X70390340Y-94798444D01*
X70368546Y-94795527D01*
X70333187Y-94793276D01*
X70282860Y-94791639D01*
X70216166Y-94790565D01*
X70131704Y-94790000D01*
X70072339Y-94789884D01*
X69756715Y-94789694D01*
X69710676Y-94760775D01*
X69671852Y-94729100D01*
X69640377Y-94690333D01*
X69638147Y-94686655D01*
X69626519Y-94665271D01*
X69618891Y-94645244D01*
X69614429Y-94621577D01*
X69612302Y-94589271D01*
X69611677Y-94543330D01*
X69611658Y-94527690D01*
X69610499Y-94467434D01*
X69607048Y-94426148D01*
X69601344Y-94404241D01*
X69599653Y-94401922D01*
X69582497Y-94395714D01*
X69545865Y-94391673D01*
X69490174Y-94389838D01*
X69472103Y-94389727D01*
X69421692Y-94389362D01*
X69386400Y-94387877D01*
X69361337Y-94384391D01*
X69341615Y-94378023D01*
X69322346Y-94367893D01*
X69310518Y-94360618D01*
X69271695Y-94328942D01*
X69240219Y-94290175D01*
X69237990Y-94286498D01*
X69226361Y-94265114D01*
X69218733Y-94245087D01*
X69214272Y-94221419D01*
X69212145Y-94189114D01*
X69211520Y-94143173D01*
X69211500Y-94127533D01*
X69210341Y-94067276D01*
X69206890Y-94025990D01*
X69201186Y-94004083D01*
X69199495Y-94001764D01*
X69182277Y-93995522D01*
X69145626Y-93991527D01*
X69089996Y-93989823D01*
X69074373Y-93989759D01*
X69023574Y-93989357D01*
X68987589Y-93987588D01*
X68961231Y-93983609D01*
X68939313Y-93976577D01*
X68916649Y-93965651D01*
X68912585Y-93963473D01*
X68865007Y-93926925D01*
X68831249Y-93877856D01*
X68813515Y-93820038D01*
X68811343Y-93790344D01*
X68813158Y-93760528D01*
X68817781Y-93739804D01*
X68821079Y-93734824D01*
X68831638Y-93722337D01*
X68844557Y-93699782D01*
X68846071Y-93696657D01*
X68864552Y-93671474D01*
X68893408Y-93646003D01*
X68906771Y-93637058D01*
X68927618Y-93625241D01*
X68946762Y-93617406D01*
X68969029Y-93612740D01*
X68999249Y-93610431D01*
X69042247Y-93609667D01*
X69069852Y-93609610D01*
X69131741Y-93608485D01*
X69174088Y-93605119D01*
X69196743Y-93599527D01*
X69199495Y-93597605D01*
X69205696Y-93580380D01*
X69209674Y-93543420D01*
X69211415Y-93486878D01*
X69211500Y-93467962D01*
X69211800Y-93416820D01*
X69213240Y-93380856D01*
X69216633Y-93355242D01*
X69222792Y-93335149D01*
X69232530Y-93315752D01*
X69238949Y-93304880D01*
X69262205Y-93274027D01*
X69288459Y-93250203D01*
X69298547Y-93244181D01*
X69321777Y-93231353D01*
X69335986Y-93220197D01*
X69336715Y-93219188D01*
X69349633Y-93213654D01*
X69375401Y-93210494D01*
X69407004Y-93209707D01*
X69437426Y-93211293D01*
G37*
D14*
%TO.C,U1*%
X51769000Y-81091272D02*
X51769000Y-73096000D01*
X52269000Y-72596000D02*
X53179000Y-72596000D01*
D15*
X53179000Y-70115000D02*
X53179000Y-84085000D01*
D14*
X53179000Y-70115000D02*
X53179000Y-84085000D01*
X53179000Y-81595000D02*
X52268728Y-81591272D01*
X72229000Y-68210000D02*
X55084000Y-68210000D01*
X72229000Y-85990000D02*
X55084000Y-85990000D01*
X74134000Y-84085000D02*
X74134000Y-70115000D01*
X51769000Y-73096000D02*
G75*
G02*
X52269000Y-72596000I500000J0D01*
G01*
X52268728Y-81591272D02*
G75*
G02*
X51769001Y-81091272I291J500018D01*
G01*
X53179000Y-70115000D02*
G75*
G02*
X55084000Y-68210000I1905000J0D01*
G01*
X55084000Y-85990000D02*
G75*
G02*
X53179000Y-84085000I1J1905001D01*
G01*
X72229000Y-68210000D02*
G75*
G02*
X74134000Y-70115000I0J-1905000D01*
G01*
X74134000Y-84085000D02*
G75*
G02*
X72229000Y-85990000I-1905001J1D01*
G01*
D16*
X53672000Y-86050000D02*
G75*
G02*
X53168000Y-86050000I-252000J0D01*
G01*
X53168000Y-86050000D02*
G75*
G02*
X53672000Y-86050000I252000J0D01*
G01*
X54552000Y-84907000D02*
G75*
G02*
X54048000Y-84907000I-252000J0D01*
G01*
X54048000Y-84907000D02*
G75*
G02*
X54552000Y-84907000I252000J0D01*
G01*
%TD*%
M02*
