%TF.GenerationSoftware,KiCad,Pcbnew,9.0.6*%
%TF.CreationDate,2026-01-03T14:52:23+08:00*%
%TF.ProjectId,HackPad,4861636b-5061-4642-9e6b-696361645f70,rev?*%
%TF.SameCoordinates,Original*%
%TF.FileFunction,Copper,L2,Bot*%
%TF.FilePolarity,Positive*%
%FSLAX46Y46*%
G04 Gerber Fmt 4.6, Leading zero omitted, Abs format (unit mm)*
G04 Created by KiCad (PCBNEW 9.0.6) date 2026-01-03 14:52:23*
%MOMM*%
%LPD*%
G01*
G04 APERTURE LIST*
%TA.AperFunction,ComponentPad*%
%ADD10C,2.200000*%
%TD*%
%TA.AperFunction,ComponentPad*%
%ADD11C,1.524000*%
%TD*%
%TA.AperFunction,Conductor*%
%ADD12C,0.200000*%
%TD*%
G04 APERTURE END LIST*
D10*
%TO.P,SW3,1,1*%
%TO.N,GND*%
X114781000Y-63120000D03*
%TO.P,SW3,2,2*%
%TO.N,Net-(U1-GPIO1{slash}RX)*%
X108431000Y-65660000D03*
%TD*%
%TO.P,SW1,1,1*%
%TO.N,GND*%
X95740000Y-63120000D03*
%TO.P,SW1,2,2*%
%TO.N,Net-(U1-GPIO7{slash}SCL)*%
X89390000Y-65660000D03*
%TD*%
%TO.P,SW5,1,1*%
%TO.N,GND*%
X133781000Y-63120000D03*
%TO.P,SW5,2,2*%
%TO.N,Net-(U1-GPIO4{slash}MISO)*%
X127431000Y-65660000D03*
%TD*%
%TO.P,SW6,1,1*%
%TO.N,GND*%
X133781000Y-82189500D03*
%TO.P,SW6,2,2*%
%TO.N,Net-(U1-GPIO3{slash}MOSI)*%
X127431000Y-84729500D03*
%TD*%
%TO.P,SW4,1,1*%
%TO.N,GND*%
X114781000Y-82189500D03*
%TO.P,SW4,2,2*%
%TO.N,Net-(U1-GPIO2{slash}SCK)*%
X108431000Y-84729500D03*
%TD*%
%TO.P,SW2,1,1*%
%TO.N,GND*%
X95740000Y-82189500D03*
%TO.P,SW2,2,2*%
%TO.N,Net-(U1-GPIO0{slash}TX)*%
X89390000Y-84729500D03*
%TD*%
D11*
%TO.P,U1,1,GPIO26/ADC0/A0*%
%TO.N,unconnected-(U1-GPIO26{slash}ADC0{slash}A0-Pad1)*%
X56100000Y-84720000D03*
%TO.P,U1,2,GPIO27/ADC1/A1*%
%TO.N,unconnected-(U1-GPIO27{slash}ADC1{slash}A1-Pad2)*%
X58640000Y-84720000D03*
%TO.P,U1,3,GPIO28/ADC2/A2*%
%TO.N,unconnected-(U1-GPIO28{slash}ADC2{slash}A2-Pad3)*%
X61180000Y-84720000D03*
%TO.P,U1,4,GPIO29/ADC3/A3*%
%TO.N,unconnected-(U1-GPIO29{slash}ADC3{slash}A3-Pad4)*%
X63720000Y-84720000D03*
%TO.P,U1,5,GPIO6/SDA*%
%TO.N,unconnected-(U1-GPIO6{slash}SDA-Pad5)*%
X66260000Y-84720000D03*
%TO.P,U1,6,GPIO7/SCL*%
%TO.N,Net-(U1-GPIO7{slash}SCL)*%
X68800000Y-84720000D03*
%TO.P,U1,7,GPIO0/TX*%
%TO.N,Net-(U1-GPIO0{slash}TX)*%
X71340000Y-84720000D03*
%TO.P,U1,8,GPIO1/RX*%
%TO.N,Net-(U1-GPIO1{slash}RX)*%
X71340000Y-69480000D03*
%TO.P,U1,9,GPIO2/SCK*%
%TO.N,Net-(U1-GPIO2{slash}SCK)*%
X68800000Y-69480000D03*
%TO.P,U1,10,GPIO4/MISO*%
%TO.N,Net-(U1-GPIO4{slash}MISO)*%
X66260000Y-69480000D03*
%TO.P,U1,11,GPIO3/MOSI*%
%TO.N,Net-(U1-GPIO3{slash}MOSI)*%
X63720000Y-69480000D03*
%TO.P,U1,12,3V3*%
%TO.N,unconnected-(U1-3V3-Pad12)*%
X61180000Y-69480000D03*
%TO.P,U1,13,GND*%
%TO.N,GND*%
X58640000Y-69480000D03*
%TO.P,U1,14,VBUS*%
%TO.N,+5V*%
X56100000Y-69480000D03*
%TD*%
D12*
%TO.N,Net-(U1-GPIO7{slash}SCL)*%
X89390000Y-65660000D02*
X88650000Y-66400000D01*
X68800000Y-81232900D02*
X84372900Y-65660000D01*
X84372900Y-65660000D02*
X89390000Y-65660000D01*
X68800000Y-84720000D02*
X68800000Y-81232900D01*
%TO.N,Net-(U1-GPIO0{slash}TX)*%
X85741000Y-84729500D02*
X85731500Y-84720000D01*
X85731500Y-84720000D02*
X71340000Y-84720000D01*
X89390000Y-84729500D02*
X85741000Y-84729500D01*
%TO.N,Net-(U1-GPIO3{slash}MOSI)*%
X105100000Y-78900000D02*
X101700000Y-75500000D01*
X93100000Y-65200000D02*
X90700000Y-62800000D01*
X101700000Y-68000000D02*
X98900000Y-65200000D01*
X98900000Y-65200000D02*
X93100000Y-65200000D01*
X121601500Y-78900000D02*
X105100000Y-78900000D01*
X101700000Y-75500000D02*
X101700000Y-68000000D01*
X127431000Y-84729500D02*
X121601500Y-78900000D01*
X90700000Y-62800000D02*
X78440000Y-62800000D01*
X63800000Y-65800000D02*
X63720000Y-65880000D01*
X78440000Y-62800000D02*
X75440000Y-65800000D01*
X75440000Y-65800000D02*
X63800000Y-65800000D01*
X63720000Y-65880000D02*
X63720000Y-69480000D01*
%TD*%
M02*
