M48
; DRILL file {KiCad 9.0.6} date 2026-01-03T14:53:22+0800
; FORMAT={-:-/ absolute / metric / decimal}
; #@! TF.CreationDate,2026-01-03T14:53:22+08:00
; #@! TF.GenerationSoftware,Kicad,Pcbnew,9.0.6
; #@! TF.FileFunction,Plated,1,2,PTH
FMAT,2
METRIC
; #@! TA.AperFunction,Plated,PTH,ComponentDrill
T1C0.889
; #@! TA.AperFunction,Plated,PTH,ComponentDrill
T2C1.500
%
G90
G05
T1
X56.1Y-69.48
X56.1Y-84.72
X58.64Y-69.48
X58.64Y-84.72
X61.18Y-69.48
X61.18Y-84.72
X63.72Y-69.48
X63.72Y-84.72
X66.26Y-69.48
X66.26Y-84.72
X68.8Y-69.48
X68.8Y-84.72
X71.34Y-69.48
X71.34Y-84.72
T2
X89.39Y-65.66
X89.39Y-84.73
X95.74Y-63.12
X95.74Y-82.189
X108.431Y-65.66
X108.431Y-84.73
X114.781Y-63.12
X114.781Y-82.189
X127.431Y-65.66
X127.431Y-84.73
X133.781Y-63.12
X133.781Y-82.189
M30
