%TF.GenerationSoftware,KiCad,Pcbnew,9.0.6*%
%TF.CreationDate,2026-01-03T14:52:23+08:00*%
%TF.ProjectId,HackPad,4861636b-5061-4642-9e6b-696361645f70,rev?*%
%TF.SameCoordinates,Original*%
%TF.FileFunction,Soldermask,Bot*%
%TF.FilePolarity,Negative*%
%FSLAX46Y46*%
G04 Gerber Fmt 4.6, Leading zero omitted, Abs format (unit mm)*
G04 Created by KiCad (PCBNEW 9.0.6) date 2026-01-03 14:52:23*
%MOMM*%
%LPD*%
G01*
G04 APERTURE LIST*
%ADD10C,1.700000*%
%ADD11C,4.000000*%
%ADD12C,2.200000*%
%ADD13C,1.524000*%
G04 APERTURE END LIST*
D10*
%TO.C,SW3*%
X107161000Y-68200000D03*
D11*
X112241000Y-68200000D03*
D10*
X117321000Y-68200000D03*
D12*
X114781000Y-63120000D03*
X108431000Y-65660000D03*
%TD*%
D10*
%TO.C,SW1*%
X88120000Y-68200000D03*
D11*
X93200000Y-68200000D03*
D10*
X98280000Y-68200000D03*
D12*
X95740000Y-63120000D03*
X89390000Y-65660000D03*
%TD*%
D10*
%TO.C,SW5*%
X126161000Y-68200000D03*
D11*
X131241000Y-68200000D03*
D10*
X136321000Y-68200000D03*
D12*
X133781000Y-63120000D03*
X127431000Y-65660000D03*
%TD*%
D10*
%TO.C,SW6*%
X126161000Y-87269500D03*
D11*
X131241000Y-87269500D03*
D10*
X136321000Y-87269500D03*
D12*
X133781000Y-82189500D03*
X127431000Y-84729500D03*
%TD*%
D10*
%TO.C,SW4*%
X107161000Y-87269500D03*
D11*
X112241000Y-87269500D03*
D10*
X117321000Y-87269500D03*
D12*
X114781000Y-82189500D03*
X108431000Y-84729500D03*
%TD*%
D10*
%TO.C,SW2*%
X88120000Y-87269500D03*
D11*
X93200000Y-87269500D03*
D10*
X98280000Y-87269500D03*
D12*
X95740000Y-82189500D03*
X89390000Y-84729500D03*
%TD*%
D13*
%TO.C,U1*%
X56100000Y-84720000D03*
X58640000Y-84720000D03*
X61180000Y-84720000D03*
X63720000Y-84720000D03*
X66260000Y-84720000D03*
X68800000Y-84720000D03*
X71340000Y-84720000D03*
X71340000Y-69480000D03*
X68800000Y-69480000D03*
X66260000Y-69480000D03*
X63720000Y-69480000D03*
X61180000Y-69480000D03*
X58640000Y-69480000D03*
X56100000Y-69480000D03*
%TD*%
M02*
